<?xml version="1.0" standalone="no"?>
<!DOCTYPE svg PUBLIC "-//W3C//DTD SVG 1.1//EN" "http://www.w3.org/Graphics/SVG/1.1/DTD/svg11.dtd" >
<svg>
<metadata>
Created by FontForge 20120731 at Mon Sep 16 19:27:57 2019
 By www
Copyright (C) 2016 by original authors @ fontello.com
</metadata>
<defs>
<font id="fontello" horiz-adv-x="1000" >
  <font-face 
    font-family="fontello"
    font-weight="400"
    font-stretch="normal"
    units-per-em="1000"
    panose-1="2 0 5 3 0 0 0 0 0 0"
    ascent="850"
    descent="-150"
    bbox="-87 -150.163 1272 914"
    underline-thickness="0"
    underline-position="10"
    unicode-range="U+E800-E899"
  />
<missing-glyph 
 />
    <glyph glyph-name=".notdef" 
 />
    <glyph glyph-name=".null" horiz-adv-x="0" 
 />
    <glyph glyph-name="nonmarkingreturn" horiz-adv-x="333" 
 />
    <glyph glyph-name="arrowdownnavigationhover" unicode="&#xe800;" 
d="M496 -31l496 556h-992z" />
    <glyph glyph-name="arrowdownnavigationhover" unicode="&#xe801;" 
d="M496 -31l496 556h-992z" />
    <glyph glyph-name="corporate_fontservice" unicode="&#xe802;" 
d="M924 309l73 42l-73 42l63 55l-79 27l51 67l-83 10l37 76l-84 -6l22 81l-81 -22l6 84l-75 -37l-11 83l-67 -51l-27 79l-55 -63l-42 73l-42 -73l-55 63l-27 -79l-66 51l-11 -83l-75 37l5 -84l-81 22l22 -81l-83 6l37 -76l-83 -10l51 -67l-80 -27l63 -55l-72 -42l72 -42
l-63 -55l80 -27l-51 -66l83 -11l-37 -75l83 5l-22 -81l81 22l-5 -84l75 37l11 -83l66 51l27 -79l55 63l42 -72l42 72l55 -63l27 79l67 -51l11 83l75 -37l-6 84l81 -22l-22 81l84 -5l-37 75l83 11l-51 66l79 27zM508 397q-3 4 -11 12q-7 5 -15 8t-16 3q-17 0 -28 -6.5
t-18 -16t-10 -23.5t-3 -28t3 -28t10 -23.5t18 -16t28 -6.5q22 0 34 14t15 35h46q-1 -20 -8.5 -36t-20.5 -29q-10 -10 -30 -17q-15 -7 -36 -7q-25 0 -45 9t-33.5 24t-21.5 36q-7 18 -7 43.5t7 45.5t21 37q12 15 34 24q20 9 45 9q16 0 34 -5q17 -7 28 -15q14 -11 21.5 -25
t9.5 -33h-46q-1 5 -5 15zM642 455v-218h-48v218h48z" />
    <glyph glyph-name="desktop_catalog" unicode="&#xe803;" 
d="M257 411h485v22h-485v-22zM257 370h485v19h-485v-19zM136 114h726q12 0 20.5 8.5t8.5 20.5v473q0 12 -8.5 20.5t-20.5 8.5h-726q-11 0 -19.5 -8.5t-8.5 -20.5v-473q0 -12 8.5 -20.5t19.5 -8.5zM150 602h699v-446h-699v446zM566 93v-5q-1 -7 -6 -11.5t-15 -4.5h-102
q-13 0 -19 5q-4 4 -4 11v5h-418v-19q0 -9 11 -16.5t31 -7.5h907q25 0 38 10q9 7 9 15v18h-432zM257 325h485v22h-485v-22z" />
    <glyph glyph-name="favorites" unicode="&#xe804;" 
d="M501 586q-37 87 -101 137q-59 46 -128.5 52t-129.5 -28q-62 -35 -99 -104q-39 -75 -40 -175q-1 -55 18 -102q17 -42 50 -79q28 -31 69 -62q30 -21 79 -51q64 -39 75 -46q54 -35 102 -81q42 -40 71 -80q28 -36 34 -59q6 22 35.5 60.5t72.5 80.5q48 45 98 81q21 15 75 48
q51 32 78 51q42 31 70 62q33 36 50 78q19 46 19 101q-1 101 -41 174q-37 68 -100 101q-61 32 -130.5 25.5t-127.5 -51.5q-63 -49 -99 -133z" />
    <glyph glyph-name="fontevents_fontmagazine" unicode="&#xe805;" 
d="M986 -105q0 -13 -9 -22t-22 -9h-909q-13 0 -22.5 9t-9.5 22v909q0 13 9.5 22t22.5 9h909q13 0 22 -9t9 -22v-909z" />
    <glyph glyph-name="fontfeatures_fontmagazine" unicode="&#xe806;" 
d="M999 702q0 32 -24.5 56.5t-55.5 24.5l-841 2q-31 0 -53.5 -23.5t-22.5 -55.5l-2 -555q0 -32 24 -57.5t54 -25.5l363 1v-41h-194q-35 0 -60.5 -23t-25.5 -57q-3 -12 -3 -27l1 -13h684l-1 13q-1 15 -1 28q0 33 -28 55q-27 21 -62 21h-191l1 43l356 -1q20 0 39.5 12.5
t31.5 32t12 39.5zM869 547v-40l-358 -1l-1 41h359zM869 347l-360 -1v42l360 -1v-40zM510 427l1 41l358 -1l1 -41zM335 592h-56l-96 -252h56l20 56h94l19 -56h58zM273 437l33 93h1l32 -93h-66z" />
    <glyph glyph-name="fontinuseicon_fontmagazine" unicode="&#xe807;" 
d="M807 849h-17l104 -100v13zM758 849h-678v-995h814v858h-136v137zM757 81h-542v45h542v-45zM757 171h-542v46h542v-46zM757 262h-542v45h542v-45zM757 352h-542v45h542v-45zM757 443h-542v48h543z" />
    <glyph glyph-name="fontlinks_fontmagazine" unicode="&#xe808;" 
d="M525 606l210 -561h-128l-43 125h-210l-44 -125h-124l212 561h127zM532 262l-71 206h-1l-74 -206h146z" />
    <glyph glyph-name="fontnews_fontmagazine" unicode="&#xe809;" 
d="M927 308l73 42l-73 42l63 56l-80 27l52 66l-84 11l37 76l-83 -6l21 81l-81 -21l6 83l-76 -37l-11 84l-66 -52l-27 80l-56 -63l-42 73l-42 -73l-55 63l-27 -80l-67 52l-11 -84l-75 37l5 -83l-81 21l22 -81l-84 6l37 -76l-84 -11l52 -66l-80 -27l63 -56l-73 -42l73 -42
l-63 -55l80 -27l-52 -67l84 -11l-37 -76l83 6l-21 -81l81 22l-6 -84l76 37l11 -84l67 52l27 -80l55 63l42 -73l42 73l55 -63l28 80l66 -52l11 84l76 -37l-6 84l81 -22l-21 81l83 -6l-37 76l84 11l-52 67l80 27zM433 524l144 -232h1v232h72v-346h-76l-144 232h-1v-232h-71
v346h75z" />
    <glyph glyph-name="fontofweek_fontmagazine" unicode="&#xe80a;" 
d="M486 455l503 -1l-76 -136l77 -140h-402zM353 655l216 -579h-132l-44 129h-216l-46 -129h-128l219 579h131zM360 300l-73 213h-2l-75 -213h150zM765 224l-30 120l-30 -120h-39l-47 177h39l28 -121l31 121h36l31 -122l29 122h38l-47 -177h-39z" />
    <glyph glyph-name="home" unicode="&#xe80b;" 
d="M147 -81h710v400h-710v-400zM499 842l-498 -519h998z" />
    <glyph glyph-name="leftarrowsliderselector" unicode="&#xe80c;" 
d="M205 350l463 -500v1000z" />
    <glyph glyph-name="listview_catalog" unicode="&#xe80d;" 
d="M0 850v-160h1000v160h-1000zM0 410h1000v160h-1000v-160zM0 130h1000v160h-1000v-160zM0 -150h1000v160h-1000v-160z" />
    <glyph glyph-name="login" unicode="&#xe80e;" 
d="M937 632h-260q0 61 -18 106q-16 38 -44 63q-22 21 -52 33q-21 8 -44 11l-18 2l-20 -1q-24 -3 -46 -11q-32 -11 -56 -31q-30 -26 -46 -64q-20 -45 -20 -107v-1h-246l-65 -754h996zM484 14h-303v283h138v-139h165v-144zM381 632q0 96 43 132q27 23 77 23q26 0 50 -13
q29 -16 45 -48q20 -38 20 -94h-235z" />
    <glyph glyph-name="mobile_catalog" unicode="&#xe80f;" 
d="M546 652h-93v-92h93v92zM671 402h-93v-92h93v92zM671 652h-93v-92h93v92zM546 527h-93v-92h93v92zM671 527h-93v-92h93v92zM421 277h-93v-92h93v92zM421 402h-93v-92h93v92zM546 402h-93v-92h93v92zM670 840h-338q-23 0 -45.5 -11.5t-36.5 -31t-14 -42.5v-798
q0 -23 14 -42t36.5 -30.5t45.5 -11.5h338q23 0 45 11.5t35.5 30.5t13.5 42v798q0 23 -13.5 42.5t-35.5 31t-45 11.5zM484 778h94v-32h-94v32zM421 778h32v-32h-32v32zM500 -66q-20 0 -33.5 14t-13.5 34t14 33.5t33.5 13.5t33.5 -13.5t14 -33.5t-14 -34t-34 -14zM705 59h-409
v626h409v-626zM421 527h-93v-92h93v92zM421 652h-93v-92h93v92zM546 277h-93v-92h93v92z" />
    <glyph glyph-name="moviefonts_fontmagazine" unicode="&#xe810;" 
d="M986 567l1 -631q0 -17 -11.5 -35t-29.5 -29.5t-35 -11.5h-835q-17 0 -35 11.5t-29.5 29.5t-11.5 35l1 632zM221 585l-106 -107l121 -1l109 111zM503 610l-138 -132l121 -1l136 131zM802 623l-162 -145l119 -1l151 141zM65 709l825 130q17 2 36 -6.5t33.5 -24t16.5 -32.5
l8 -43l-975 -153l-6 44q-2 17 6.5 36t23.5 33t32 16zM146 793l231 -161l-113 -22l-225 163zM371 858l269 -194l-109 -26l-256 182zM641 914l269 -194l-89 -39l-278 203zM545 332l123 -330h-75l-25 74h-123l-26 -74h-73l125 330h74zM549 130l-41 121h-1l-43 -121h85z" />
    <glyph glyph-name="oem_fontservice" unicode="&#xe811;" 
d="M924 309l73 42l-73 42l63 55l-79 27l51 67l-83 10l37 76l-84 -6l22 81l-81 -22l6 84l-75 -37l-11 83l-67 -51l-27 79l-55 -63l-42 73l-42 -73l-55 63l-27 -79l-66 51l-11 -83l-75 37l5 -84l-81 22l22 -81l-83 6l37 -76l-83 -10l51 -67l-80 -27l63 -55l-72 -42l72 -42
l-63 -55l80 -27l-51 -66l83 -11l-37 -75l83 5l-22 -81l81 22l-5 -84l75 37l11 -83l66 51l27 -79l55 63l42 -72l42 72l55 -63l27 79l67 -51l11 83l75 -37l-6 84l81 -22l-22 81l84 -5l-37 75l83 11l-51 66l79 27zM251 378q6 17 16.5 28.5t24.5 18t34 6.5t34 -6.5t24.5 -18
t16.5 -27.5t6 -34.5t-6 -33.5q-6 -17 -16 -27q-13 -13 -25 -18q-17 -7 -34 -7q-20 0 -34 7q-16 8 -25 18q-11 12 -16.5 28t-5.5 32q0 19 6 34zM284 324q1 -9 8 -17q4 -7 13.5 -12.5t20.5 -5.5t20.5 5.5t13.5 12.5q7 8 8 17q-1 -5 2 10q1 6 1 10q0 11 -2 21t-8 18t-14 12.5
t-21 4.5t-21 -4.5t-14 -12.5t-8 -18t-2 -20t3 -21zM554 427v-30h-87v-36h80v-28h-80v-40h89v-30h-125v164h123zM631 427l38 -113h1l36 113h51v-164h-34v116h-1l-40 -116h-28l-40 115v-115h-34v164h51z" />
    <glyph glyph-name="searcharrow" unicode="&#xe812;" 
d="M830 342l-546 493v-985z" />
    <glyph glyph-name="server_catalog" unicode="&#xe813;" 
d="M952 491l-912 1q-10 0 -21 -13.5t-11 -26.5v-206q0 -12 14 -27t25 -15h908q10 0 23.5 14.5t13.5 26.5v201q0 13 -14.5 29t-25.5 16zM526 334h-366v28h366v-28zM849 309q-16 0 -27.5 11.5t-11.5 27.5t11.5 28t28 12t28 -11.5t11.5 -28t-11.5 -28t-28.5 -11.5zM952 179
h-912q-10 0 -21 -13t-11 -26v-202q0 -13 14 -27.5t25 -14.5h908q10 0 23.5 14t13.5 27v196q0 13 -14.5 29.5t-25.5 16.5zM526 24h-366v25h366v-25zM849 -2q-16 0 -27.5 11.5t-11.5 28t11.5 27.5t28 11t27.5 -11t11 -27.5t-11 -28t-28 -11.5zM952 804h-912q-10 0 -21 -13
t-11 -26v-207q0 -12 14 -27t25 -15h908q10 0 23.5 14.5t13.5 26.5v201q0 13 -14.5 29.5t-25.5 16.5zM526 646h-366v26h366v-26zM850 619q-16 0 -28 12t-12 28t12 27.5t28 11.5t27.5 -11.5t11.5 -27.5t-11.5 -28t-27.5 -12z" />
    <glyph glyph-name="shoppingcart" unicode="&#xe814;" 
d="M919 851q-34 0 -57.5 -23.5t-23.5 -57.5q0 -13 5 -28l-11 -59h-822l48 -546l715 -6l11 -108h-8q-10 3 -20.5 3t-21.5 -3h-670v-65h2q-3 -10 -3 -22q0 -35 25.5 -60.5t61 -25.5t61 25.5t25.5 60.5q0 12 -3 22h437q-3 -9 -3 -20q0 -37 26 -62.5t62.5 -25.5t62 25.5
t25.5 62.5q0 8 -2 20h2v65h-11l66 669q9 -3 21 -3q34 0 57.5 23.5t23.5 57.5t-23.5 57.5t-57.5 23.5z" />
    <glyph glyph-name="tablet_catalog" unicode="&#xe815;" 
d="M695 527h-355v-28h355v28zM695 636h-355v-27h355v27zM695 472h-355v-27h355v27zM695 581h-355v-27h355v27zM695 308h-355v-27h355v27zM695 417h-355v-27h355v27zM795 829h-555q-26 0 -45 -19t-19 -45v-830q0 -26 19 -45t45 -19h555q26 0 44.5 19t18.5 45v830
q0 26 -18.5 45t-44.5 19zM518 -75q-17 0 -29.5 12.5t-12.5 29.5t12.5 29.5t29.5 12.5t29.5 -12.5t12.5 -29.5t-12.5 -29.5t-29.5 -12.5zM778 60h-520v686h520v-686zM695 362h-355v-27h355v27zM505 253h-165v-27h164z" />
    <glyph glyph-name="web_catalog" unicode="&#xe816;" 
d="M773 159q43 90 44 182h-147q-3 -92 -30 -201q68 5 133 19zM845 370h81q-3 76 -29 148q-40 17 -95 29q39 -85 43 -177zM767 555q-59 11 -127 17q27 -106 30 -202h147q-4 95 -50 185zM376 139q53 -5 103 -5v207h-130q1 -96 27 -202zM349 370h130v207q-38 0 -100 -4
q-27 -109 -30 -203zM505 107v-156h43q32 78 54 159q-45 -3 -97 -3zM386 599q31 2 93 4v157h-41q-32 -83 -52 -161zM433 -49h46v156q-37 0 -97 4q21 -82 51 -160zM754 579q-38 66 -97 124q-34 33 -67 57h-14q35 -83 58 -164q60 -5 120 -17zM544 760h-39v-157q65 -2 97 -4
q-22 76 -58 161zM640 341h-135v-207q61 0 104 4q30 112 31 203zM609 574q-48 3 -104 3v-207h135q-3 94 -31 204zM139 341h-78q2 -75 27 -141q34 -14 82 -27q-30 81 -31 168zM355 596q14 52 30 101q13 40 23 63h-24q-97 -82 -155 -185q56 14 126 21zM214 137q29 -61 73 -115
q33 -40 70 -71h48q-32 78 -53 163q-73 8 -138 23zM633 113q-20 -75 -53 -162h35q90 80 144 179q-60 -11 -126 -17zM845 341q-1 -84 -38 -175q56 15 94 29q23 67 25 146h-81zM790 571q57 -14 98 -30q-35 80 -99 136q-67 59 -156 83h-11q34 -22 71 -58q60 -60 97 -131z
M648 -49h18q77 29 136 86q56 55 88 130q-53 -19 -96 -29q-30 -60 -76 -115q-33 -40 -70 -72zM166 341q1 -92 36 -176q76 -17 143 -24q-24 108 -27 200h-152zM181 145q-32 8 -81 25q31 -66 83 -118q52 -53 121 -85q-81 79 -123 178zM185 540q-40 -10 -94 -30
q-27 -66 -30 -140h79q4 83 45 170zM336 747q-78 -29 -139 -84q-59 -53 -94 -125q48 18 97 30q49 92 136 179zM214 547q-43 -89 -48 -177h153q1 83 29 200q-72 -9 -134 -23z" />
    <glyph glyph-name="add-more-persantage" unicode="&#xe817;" 
d="M0 850v-1000h1000v1000h-1000zM674 199q0 -48 7 -70q14 -41 52 -41q60 0 60 109q0 43 -8 68q-13 42 -48 42q-38 0 -53 -39q-10 -25 -10 -69v0zM583 199q0 78 37 124q41 51 117 51q148 0 148 -179q0 -79 -36 -125q-40 -51 -116 -51q-79 0 -117 53q-33 46 -33 127v0z
M276 13l375 676h78l-374 -676h-79zM205 501q0 -46 7 -68q13 -38 51 -38q61 0 61 104q0 45 -8 71q-13 44 -49 44q-38 0 -53 -41q-9 -26 -9 -72v0zM113 501q0 80 37 129q41 53 117 53q79 0 116 -54q32 -46 32 -130q0 -79 -36 -123q-39 -48 -116 -48q-150 0 -150 173z" />
    <glyph glyph-name="add-to-cart-in-grid" unicode="&#xe818;" 
d="M892 792q-31 0 -53 -21.5t-22 -52.5q0 -13 5 -26l-10 -54h-753l45 -499l654 -5l10 -99h-659v-59h1q-1 -5 -1 -15q0 -31 21.5 -52.5t52.5 -21.5t52.5 21.5t22.5 52.5q0 5 -2 15h405q-2 -12 -2 -17q0 -34 24 -58t58 -24t57.5 24t23.5 58q0 21 -10 37v39h1l59 611
q11 -3 20 -3q31 0 52.5 22t21.5 53t-21.5 52.5t-52.5 21.5zM463 222l-179 170h133v188h82v-188h143z" />
    <glyph glyph-name="add_to_favourite" unicode="&#xe819;" 
d="M503 600q-37 87 -100 136q-58 46 -126.5 52t-128.5 -28q-61 -35 -97 -103q-39 -75 -40 -175q0 -55 19 -101q16 -42 49 -79q27 -31 69 -61q28 -22 77 -52q60 -36 74 -46q53 -35 101 -80q42 -39 71 -79q27 -36 33 -59q6 21 35 59.5t72 79.5q47 46 97 81q21 15 73 47.5
t78 52.5q42 30 69 61q33 36 50 77q19 47 18 101q-1 100 -40 174q-37 67 -99 101q-60 32 -129 25t-127 -52q-63 -49 -98 -132zM676 360h-107v-108h-123v108h-109v123h109v108h123v-108h107v-123z" />
    <glyph glyph-name="blog-category-logo" unicode="&#xe81a;" 
d="M671 479q-35 0 -55 -32q-14 -24 -19 -68q-3 -23 -3 -64q0 -69 10 -105q17 -64 67.5 -64t67.5 64q10 36 10 105q0 66 -10 100q-18 64 -68 64zM875 790h-95v-107h-150v107h-247v-107h-150v107h-101q-49 0 -74.5 -25t-25.5 -75v-715q0 -49 25.5 -74.5t74.5 -25.5h743
q50 0 75 25.5t25 74.5v715q0 50 -25 75t-75 25zM373 76h-96v307h-119v72q55 -2 91 19q40 24 48 75h76v-473zM671 67q-78 0 -122 53q-51 63 -51 195q0 129 51 191q44 52 122 52t122 -52q52 -62 52 -191q0 -132 -52 -195q-44 -53 -122 -53z" />
    <glyph glyph-name="body-copy" unicode="&#xe81b;" 
d="M176 728v-80h801v80h-801zM31 728v-80h98v80h-98zM173 612v-80h804v80h-804zM31 612v-80h98v80h-98zM173 496v-80h804v80h-804zM28 496v-80h101v80h-101zM176 289v-80h801v80h-801zM31 289v-80h98v80h-98zM173 173v-80h804v80h-804zM31 173v-80h98v80h-98zM173 61v-84
h804v84h-804zM28 61v-84h101v84h-101z" />
    <glyph glyph-name="download" unicode="&#xe81c;" 
d="M10 50v-200h970v200h-970zM670 160l310 390h-300l-90 -100v390h-190v-390l-80 100h-300l310 -390h340z" />
    <glyph glyph-name="font_feature" unicode="&#xe81d;" 
d="M267 494l-39 -99h79zM990 662q0 30 -24.5 54.5t-54.5 24.5h-822q-36 0 -57.5 -19t-21.5 -50v-554q0 -32 21 -55q23 -25 58 -25h357v-39h-198q-32 0 -55 -21q-25 -23 -25 -58q-4 -9 -4 -19q0 -8 2 -15l2 -6h664v40q0 36 -25.5 57.5t-63.5 21.5h-188v39h356q20 0 38 11.5
t29.5 30t11.5 38.5v544zM337 286l-20 59h-99l-30 -59h-59l109 277h69l99 -277h-69zM871 514v-40h-356v40h356zM871 316h-356v39h356v-39zM515 395v39h356v-39h-356z" />
    <glyph glyph-name="font_feature" unicode="&#xe81e;" 
d="M267 494l-39 -99h79zM990 662q0 30 -24.5 54.5t-54.5 24.5h-822q-36 0 -57.5 -19t-21.5 -50v-554q0 -32 21 -55q23 -25 58 -25h357v-39h-198q-32 0 -55 -21q-25 -23 -25 -58q-4 -9 -4 -19q0 -8 2 -15l2 -6h664v40q0 36 -25.5 57.5t-63.5 21.5h-188v39h356q20 0 38 11.5
t29.5 30t11.5 38.5v544zM337 286l-20 59h-99l-30 -59h-59l109 277h69l99 -277h-69zM871 514v-40h-356v40h356zM871 316h-356v39h356v-39zM515 395v39h356v-39h-356z" />
    <glyph glyph-name="font_links" unicode="&#xe81f;" 
d="M830 531h-209l110 -299h99l170 149zM12 531v-299h180l110 299h-290zM401 591l-199 -529h119l40 120h190l40 -120h120l-190 529h-120zM391 262l70 199l60 -199h-130z" />
    <glyph glyph-name="font_week" unicode="&#xe820;" 
d="M282 468l68 -202h-144zM12 53h126l40 126h202l49 -126h124l-212 551h-114zM439 422l86 -243h443l-68 117l59 126h-520zM618 259h-21l-14 58l-14 -58h-18l-24 86h19l14 -61l14 61h19l14 -61l14 61h18zM649 345h65v-16h-47v-19h42v-16h-42v-21h47v-14h-65v86zM728 345h63
v-16h-44v-19h41v-16h-41v-21h46v-14h-65v86zM805 345h18v-37l35 37h24l-33 -35l35 -51h-23l-26 37l-12 -12v-25h-18v86z" />
    <glyph glyph-name="headlines" unicode="&#xe821;" 
d="M27 689v-76h916v76h-916zM27 569v-76h768v76h-768zM27 449v-68h624v68h-624zM27 333v-68h516v68h-516zM27 213v-64h428v64h-428zM27 101v-64h352v64h-352zM27 -11v-48h248v48h-248z" />
    <glyph glyph-name="hilighter_black" unicode="&#xe822;" 
d="M911 301l71 41l-71 41l62 53l-78 27l50 64l-81 11l36 73l-81 -6l21 79l-78 -21l5 81l-73 -36l-11 81l-64 -50l-27 77l-53 -61l-41 71l-41 -71l-53 61l-26 -77l-65 50l-11 -81l-73 36l6 -81l-79 21l21 -79l-81 6l36 -73l-81 -11l50 -64l-77 -27l61 -53l-71 -41l71 -41
l-61 -53l77 -26l-50 -65l81 -11l-36 -73l81 6l-21 -79l79 21l-6 -81l73 36l11 -81l65 49l26 -77l53 62l41 -71l41 71l53 -62l27 77l64 -49l11 81l73 -36l-5 81l78 -21l-21 79l81 -6l-36 73l81 11l-50 65l78 26zM604 174l-26 78h-126l-27 -78h-75l128 349h77l126 -349h-77z
" />
    <glyph glyph-name="hilighter_green_discount" unicode="&#xe823;" 
d="M404 459q-16 0 -22 -18q-4 -10 -4 -30t3 -29q6 -16 22 -16t22 16q3 10 3 28q0 49 -24 49zM604 328q-27 0 -27 -46q0 -20 3 -29q6 -18 22 -18q26 0 26 46.5t-24 46.5zM911 311l71 41l-71 41l62 53l-78 27l50 64l-81 11l36 73l-81 -6l21 79l-78 -21l5 81l-73 -36l-11 81
l-64 -50l-27 77l-53 -61l-41 71l-41 -71l-53 62l-27 -78l-64 50l-11 -81l-73 36l6 -81l-79 21l21 -79l-81 6l36 -73l-81 -11l50 -64l-77 -27l61 -53l-71 -41l71 -41l-61 -53l77 -26l-50 -65l81 -11l-36 -73l81 6l-21 -79l79 21l-6 -81l73 36l11 -81l64 49l27 -76l53 61
l41 -71l41 71l53 -61l27 76l64 -49l11 81l73 -36l-5 81l78 -21l-21 79l81 -6l-36 73l81 11l-50 65l78 26zM402 337q-33 0 -50 21q-14 19 -14 53t16 55q18 22 51 22t49 -23q14 -20 14 -54t-16.5 -54t-49.5 -20zM441 203h-33l160 288h33zM602 206q-34 0 -50 22q-14 20 -14 55
q0 33 16 52q17 22 50 22q63 0 63 -76q0 -33 -16 -53q-17 -22 -49 -22z" />
    <glyph glyph-name="info_icon_red" unicode="&#xe824;" 
d="M828 503v258h-822v-822h822v261l168 153zM363 558q0 26 25 26h32q26 0 26 -26v-26q0 -26 -26 -26h-32q-25 0 -25 26v26zM487 136h-140q-38 0 -38 27.5t38 27.5h44v200h-44q-38 0 -38 27.5t38 27.5h58q25 0 33 -7t8 -31v-217h41q17 0 26 -5q12 -7 12 -23q0 -27 -38 -27z
" />
    <glyph glyph-name="language_icon_drop_down" unicode="&#xe825;" 
d="M495 798l-230 -390h450zM495 -113l220 401h-450z" />
    <glyph glyph-name="lock" unicode="&#xe826;" 
d="M379 537v16q0 19 3 37q5 26 16 45q14 24 37 37q26 16 64 16t66 -16q23 -13 38 -37q11 -19 17 -45q4 -18 5 -37v-16h147l1 13q2 17 1 35q-1 25 -5 49q-4 31 -14 57q-12 31 -30 57q-20 28 -49 49q-32 23 -74 35q-46 13 -102 13t-101 -13q-40 -12 -72 -35q-28 -20 -48 -49
q-18 -25 -30 -55q-10 -27 -15 -56q-4 -24 -5 -49q-1 -18 0 -35l1 -13zM834 22v308h54v155h-769v-155h54v-308h-54v-155h769v155h-54zM563 150v-127h-120v127q0 43 12 65q14 27 49 27t49 -27q10 -20 10 -65v0z" />
    <glyph glyph-name="magnifier" unicode="&#xe827;" 
d="M969 -2l-192 188q-18 18 -42.5 24.5t-49.5 1.5q52 70 65.5 155.5t-12.5 167.5q-27 84 -90 147q-69 69 -164 93q-91 24 -183 -1q-95 -25 -164 -94q-51 -51 -78 -117t-26.5 -138.5t28 -138.5t79 -117t117.5 -78t138 -27q59 1 113.5 19t101.5 53q-5 -24 2 -48.5t25 -42.5
l190 -189q45 19 78 50q38 36 64 92zM573 248q-48 -49 -113 -66t-130 0t-113.5 65t-65.5 112.5t-0.5 129.5t64.5 114t113 66t130 0t113 -65q36 -35 55 -81t19.5 -96.5t-18.5 -96.5t-54 -82z" />
    <glyph glyph-name="movie_fonts" unicode="&#xe828;" 
d="M478 283l-40 -111h77zM919 461h-47l47 41v27h-111l-74 -68h-105l78 68l-131 3l-71 -71h-108l71 71h-128l-67 -71h-108l71 71h-189l-3 -559q0 -16 10.5 -31.5t26 -25.5t30.5 -10h741q23 0 45 21t22 43v491zM555 58l-23 67h-111l-24 -67h-67l114 299h68l111 -299h-68z
M909 700l-7 41q-2 22 -26.5 39t-47.5 14l-178 -26l121 -88zM670 663l-121 88l-125 -20l121 -88zM441 626l-124 88l-125 -20l128 -88zM216 593l-121 87q-23 -5 -40 -29.5t-14 -47.5l6 -37z" />
    <glyph glyph-name="news_letter" unicode="&#xe829;" 
d="M695 412l296 -292v483zM18 639l487 -312l482 312h-969zM14 116l300 296l-296 191zM338 396l-283 -280h899l-283 280l-166 -106z" />
    <glyph glyph-name="next-icon-in-popupbox" unicode="&#xe82a;" 
d="M30 265h690l-260 -320h180l320 400l-320 400h-180l260 -320h-690v-160z" />
    <glyph glyph-name="preview-icon-in-popup-box" unicode="&#xe82b;" 
d="M960 435h-690l260 320h-180l-320 -400l320 -400h180l-260 320h690v160z" />
    <glyph glyph-name="redeem-right-arrow" unicode="&#xe82c;" 
d="M30 195h590v-240h20l320 360l-320 360h-20v-240h-590v-240z" />
    <glyph glyph-name="share" unicode="&#xe82d;" 
d="M642 141v139h-140v234h150l-157 283l-157 -283l-318 -63l220 -237l-38 -321l293 136l293 -136l-31 248h-115zM970 329v140h-140v140h-140v-140h-143v-140h143v-139h140v139h140z" />
    <glyph glyph-name="shoping_cart_down_arrow" unicode="&#xe82e;" 
d="M13 683v-635h974v635h-974zM656 492q-4 1 -8 1l-25 -251v-16q4 -5 4 -15q0 -14 -9.5 -24t-23.5 -10t-24 10t-10 24q0 5 1 7h-167q1 -2 1 -6q0 -13 -9 -22t-21 -9t-21.5 9t-9.5 22q0 4 1 6h-1v24h271l-4 41l-269 2l-18 205h309l4 22q-2 6 -2 11q0 13 9 21.5t22 8.5
t21.5 -8.5t8.5 -21.5t-8.5 -22t-21.5 -9z" />
    <glyph glyph-name="submit-arrow-in-newsletter-form" unicode="&#xe82f;" 
d="M63 839v-185l339 -304l-329 -287v-206l519 488zM443 839v-185l334 -304l-324 -287v-206l514 488z" />
    <glyph glyph-name="right_arrow" unicode="&#xe830;" 
d="M249 850l560 -499l-560 -501h-249v1000h249z" />
    <glyph glyph-name="left_arrow" unicode="&#xe831;" 
d="M1000 850v0h-249l-560 -499l560 -501h249v1000z" />
    <glyph glyph-name="languge_box_icon" unicode="&#xe832;" 
d="M1000 345l-169 151v264h-829v-830h829v261z" />
    <glyph glyph-name="language-_icon_drop_up" unicode="&#xe833;" 
d="M1000 41l-491 702l-509 -702h1000z" />
    <glyph glyph-name="language-_icon_drop_down" unicode="&#xe834;" 
d="M0 660l491 -702l509 702h-1000z" />
    <glyph glyph-name="firefox" unicode="&#xe835;" 
d="M504 -137q-106 0 -199 39q-90 38 -158.5 107t-108.5 160q-42 98 -37 229q5 126 51 243q48 121 125 191l-6 -156q4 4 21.5 6.5t34.5 0.5t22 -8q16 30 53 56q35 24 80 39t87 15q-18 -14 -41 -46q-27 -34 -43 -66q-18 -39 -15 -62q18 -6 46 -9q20 -3 49 -4q54 -3 41 -2
q8 -5 5 -26.5t-17 -41.5q-12 -16 -37 -29q-18 -9 -41 -15l-19 -5l8 -106l-77 38q-12 -31 0 -59q11 -27 38.5 -41.5t58.5 -9.5q23 4 45 14q12 6 34 19q20 11 30 16q17 6 33 5q35 -1 52 -18q15 -16 9 -36q-3 -13 -18 -20q-11 -4 -27 -5h-14q-33 -53 -80.5 -75.5t-117.5 -16.5
q51 -42 114 -50q56 -8 115 12q53 18 97 53q42 34 61 71q24 46 22 107q-1 55 -20 105t-45 71q49 -21 74 -42q31 -26 46 -65q5 62 -11 127t-51 122q-36 59 -87 100q148 -43 228 -153q84 -115 86 -291q1 -89 -36 -176.5t-104 -157.5q-69 -71 -158 -111q-94 -43 -198 -43z" />
    <glyph glyph-name="chrome" unicode="&#xe836;" 
d="M498 850q-112 -1 -213 -49q-103 -49 -174 -137l154 -237q19 55 60 95.5t95 60.5t112 14l414 -22q-32 64 -81 116q-50 54 -115 92q-115 67 -252 67zM82 624q-40 -60 -60 -129q-22 -70 -22 -145q0 -123 56 -231q55 -105 151.5 -175t215.5 -88l128 252q-57 -11 -113 4
t-100 52t-68 90zM967 530l-282 -15q38 -44 52.5 -100t4.5 -113t-44 -104l-226 -347q72 -5 142.5 11.5t135.5 54.5q106 61 172 164q63 100 75.5 218.5t-30.5 230.5zM500 519q-46 0 -84.5 -23t-61.5 -61.5t-23 -84.5t23 -84.5t61.5 -61.5t84.5 -23t84.5 23t61.5 61.5t23 84.5
t-23 84.5t-61.5 61.5t-84.5 23z" />
    <glyph glyph-name="opera" unicode="&#xe837;" horiz-adv-x="851" 
d="M426 -150q-103 0 -186 43q-78 40 -133 113q-53 69 -80 160q-27 88 -27 184t27 184q27 91 80 160q55 73 133 113q83 43 186 43t186 -43q78 -40 133 -113q53 -69 80 -160q27 -88 27 -184t-27 -184q-28 -91 -80 -160q-56 -73 -133 -113q-83 -43 -186 -43zM426 -58
q68 0 114 85q41 76 57 202q14 121 0 242q-16 126 -57 202q-46 85 -114 85t-114 -85q-42 -76 -57 -202q-15 -121 0 -242q15 -126 57 -202q46 -85 114 -85z" />
    <glyph glyph-name="ie" unicode="&#xe838;" horiz-adv-x="944" 
d="M844 850q-107 -1 -281 -106q-90 13 -179 -6t-161 -68q-75 -51 -118 -127q-47 -83 -51 -185q32 50 90 110q64 65 132 114q78 56 145 77v-13q-54 -27 -126.5 -99.5t-138.5 -165.5q-70 -99 -111 -192q-45 -105 -45 -182q1 -88 61 -134q31 -24 87 -23q47 1 106 21
q50 16 96 40q41 22 55 38q46 -8 89 -8q99 0 187 38q86 37 148.5 103.5t88.5 150.5h-301q-10 -43 -41.5 -67.5t-79.5 -24.5q-71 0 -101 44q-25 37 -25 107h561q14 99 -24 192q-36 89 -111 154.5t-171 92.5q95 63 169 83q84 23 120 -17q40 -45 10 -170h20q26 82 16 139.5
t-54 73.5q-26 10 -58 10h-4zM492 547q60 0 94 -34t34 -95h-252q0 59 33 94t91 35zM125 125q44 -63 110 -107.5t146 -63.5q-37 -28 -94 -46q-54 -18 -103 -20t-69 14q-35 29 -30 89q4 56 40 134z" />
    <glyph glyph-name="cancel" unicode="&#xe839;" horiz-adv-x="785" 
d="M724 112q0 -22 -15 -38l-76 -76q-16 -15 -38 -15t-38 15l-164 165l-164 -165q-16 -15 -38 -15t-38 15l-76 76q-16 16 -16 38t16 38l164 164l-164 164q-16 16 -16 38t16 38l76 76q16 16 38 16t38 -16l164 -164l164 164q16 16 38 16t38 -16l76 -76q15 -15 15 -38t-15 -38
l-164 -164l164 -164q15 -15 15 -38z" />
    <glyph glyph-name="file-pdf" unicode="&#xe83a;" horiz-adv-x="857" 
d="M819 638q16 -16 27 -42t11 -50v-642q0 -23 -15 -38t-38 -16h-750q-23 0 -38 16t-16 38v892q0 23 16 38t38 16h500q22 0 49 -11t42 -27zM571 774v-210h210q-5 17 -12 23l-175 175q-6 7 -23 12zM786 -79v572h-232q-23 0 -38 16t-16 37v233h-429v-858h715zM499 252
q18 -14 47 -31q33 4 65 4q82 0 99 -27q9 -13 1 -29q0 -1 -1 -1l-1 -2q-3 -21 -39 -21q-27 0 -64 11t-73 29q-123 -13 -219 -46q-85 -146 -135 -146q-8 0 -15 4l-14 7l-3 2q-6 6 -4 20q5 23 32 51t73 54q8 5 13 -3q1 -1 1 -2q29 47 60 110q38 76 58 146q-13 46 -17 89t4 71
q6 22 23 22h12q13 0 20 -8q10 -12 5 -38q-1 -3 -2 -4v-22q-1 -68 -8 -107q31 -91 82 -133zM178 23q29 13 76 88q-29 -22 -49 -47t-27 -41zM400 536q-9 -23 -2 -73q1 4 4 24q0 2 4 24q1 3 3 5q-1 0 -1 1v1l-1 1q0 12 -7 20v-3zM330 168q76 30 159 45q-1 0 -7 5l-9 8
q-43 37 -71 98q-15 -48 -46 -110q-17 -31 -26 -46zM691 177q-13 13 -78 13q42 -16 69 -16q8 0 10 1z" />
    <glyph glyph-name="facebook-squared" unicode="&#xe83b;" horiz-adv-x="857" 
d="M696 779q67 0 114 -48t47 -113v-536q0 -66 -47 -113t-114 -48h-104v333h111l16 129h-127v83q0 31 13 46t51 16l68 1v115q-35 5 -100 5q-75 0 -121 -44t-45 -127v-95h-112v-129h112v-333h-297q-67 0 -114 48t-47 113v536q0 66 47 113t114 48h535z" />
    <glyph glyph-name="facebook-official" unicode="&#xe83c;" horiz-adv-x="857" 
d="M810 779q19 0 33 -14t14 -34v-762q0 -20 -14 -34t-33 -14h-218v333h111l16 129h-127v83q0 31 13 46t51 16l68 1v115q-35 5 -100 5q-75 0 -121 -44t-45 -127v-95h-112v-129h112v-333h-411q-19 0 -33 14t-14 34v762q0 20 14 34t33 14h763z" />
    <glyph glyph-name="twitter-squared" unicode="&#xe83d;" horiz-adv-x="857" 
d="M714 510q-31 -14 -67 -19q38 22 52 65q-37 -21 -75 -28q-34 36 -84 36t-84 -34t-35 -83q0 -16 3 -27q-72 4 -135 37t-107 86q-16 -28 -16 -59q0 -64 51 -98q-27 1 -56 15v-1q0 -42 28 -75t68 -40q-16 -5 -28 -5q-7 0 -22 3q12 -36 42 -59t67 -23q-64 -50 -145 -50
q-15 0 -28 2q82 -53 180 -53q62 0 117 20t94 53t67 76t42 91t13 94v15q35 25 58 61zM857 618v-536q0 -66 -47 -113t-114 -48h-535q-67 0 -114 48t-47 113v536q0 66 47 113t114 48h535q67 0 114 -48t47 -113z" />
    <glyph glyph-name="twitter" unicode="&#xe83e;" horiz-adv-x="928" 
d="M904 622q-37 -54 -90 -93v-23q0 -73 -21 -145t-64 -139t-103 -117t-144 -82t-181 -30q-151 0 -276 81q19 -2 43 -2q126 0 224 77q-59 1 -105 36t-64 89q19 -3 34 -3q24 0 48 6q-63 13 -104 62t-41 115v2q38 -21 82 -23q-37 25 -59 64t-22 87t25 90q68 -83 164 -133
t208 -55q-5 21 -5 41q0 75 53 127t127 53q79 0 132 -57q61 12 115 44q-21 -64 -80 -100q52 6 104 28z" />
    <glyph glyph-name="cancel-1" unicode="&#xe83f;" horiz-adv-x="470" 
d="M452 194q18 -18 18 -43t-18 -42t-43 -17t-43 16l-132 152l-132 -152q-18 -16 -43 -16t-43 16q-16 18 -16 43t16 43l138 156l-138 158q-16 18 -16 43t16 43q18 16 43 16t43 -16l132 -152l132 152q18 16 43 16t43 -17t18 -42t-18 -43l-138 -158z" />
    <glyph glyph-name="quote" unicode="&#xe840;" horiz-adv-x="762" 
d="M146 680q146 0 184 -146q38 -140 -40 -302q-80 -168 -224 -204q-32 -8 -66 -8v70q112 0 182 108q54 86 26 146q-16 36 -62 36q-60 0 -103 44t-43 106t43 106t103 44zM566 680q146 0 184 -146q38 -140 -40 -302q-80 -168 -224 -204q-32 -8 -66 -8v70q112 0 182 108
q54 86 26 146q-16 36 -62 36q-60 0 -103 44t-43 106t43 106t103 44z" />
    <glyph glyph-name="arrow-combo" unicode="&#xe841;" horiz-adv-x="460" 
d="M230 850l230 -364h-460zM230 -150l-230 366h460z" />
    <glyph glyph-name="dot" unicode="&#xe842;" horiz-adv-x="220" 
d="M110 460q46 0 78 -32t32 -77t-32 -78t-78 -33t-78 33t-32 78t32 77t78 32z" />
    <glyph glyph-name="zoom-in" unicode="&#xe843;" horiz-adv-x="685" 
d="M0 266q-57 58 -77 137q-20 77 0 153q20 79 78 137t136 78q77 20 154 0q78 -20 137 -78q54 -54 74 -132q18 -73 2 -148t-63 -129l115 -40l129 -130q17 -22 15 -50t-22 -48.5t-48 -22t-50 14.5l-130 130l-40 112q-55 -46 -130 -61.5t-148 3.5q-77 20 -132 74zM370 323
q43 43 58.5 100t0 114t-58 99.5t-99.5 58t-114.5 0t-100 -58t-57.5 -99.5t0 -114t57.5 -100t100 -58t114.5 0t99 58zM80 514h100v101h68v-101h98v-64h-98v-100h-68v100h-100v64z" />
    <glyph glyph-name="pencil" unicode="&#xe844;" horiz-adv-x="930" 
d="M0 -119l60 281l627 628q21 21 51 21t50 -20l121 -122q21 -21 21 -50t-21 -50l-628 -628zM68 -50l194 44l24 25l-149 149l-24 -24z" />
    <glyph glyph-name="left" unicode="&#xe845;" horiz-adv-x="938" 
d="M0 353l390 391q19 18 44 18t43 -18t18 -44t-18 -43l-243 -243h642q25 0 43 -18t18 -43t-18 -43t-43 -18h-642l243 -243q18 -18 18 -44t-18 -43t-43 -18t-44 18z" />
    <glyph glyph-name="right" unicode="&#xe846;" horiz-adv-x="938" 
d="M0 347q0 26 18 43t43 17h642l-242 244q-19 18 -19 44t19 42q17 19 42 19t44 -19l390 -390l-390 -391q-20 -18 -44 -18t-42 18t-19 44t19 43l242 242h-642q-25 0 -43 18t-18 44z" />
    <glyph glyph-name="email" unicode="&#xe847;" horiz-adv-x="1037" 
d="M0 62v576l3 19l339 -290l-338 -325q-4 14 -4 20zM45 697q7 3 17 3h913q9 0 18 -3l-340 -291l-45 -36l-89 -73l-89 73l-45 36zM46 3l341 327l132 -107l132 107l341 -327q-8 -3 -17 -3h-913q-8 0 -16 3zM696 367l338 290q3 -9 3 -19v-576q0 -9 -3 -20z" />
    <glyph glyph-name="languge_box_icon-1" unicode="&#xe848;" 
d="M1000 343l-160 150v260h-830v-820h830v260z" />
    <glyph glyph-name="left_right_arrow" unicode="&#xe849;" 
d="M600 611h130l270 -250l-270 -250h-130v500zM430 611h-130l-280 -250l280 -250h130v500z" />
    <glyph glyph-name="search" unicode="&#xe84a;" 
d="M949 18q-1 1 -2 3l-207 206q31 48 48 104t17 116q0 110 -55 204q-53 91 -144 144q-94 55 -204 55t-204 -55q-91 -53 -144 -144q-55 -94 -55 -204t55 -204q54 -91 145 -144q94 -55 203 -55q105 0 196 50l215 -215q29 -27 68.5 -27t68 28.5t28.5 69t-29 68.5zM153 447
q0 68 33.5 125.5t91 91t125 33.5t125 -33.5t91 -91t33.5 -125.5t-33.5 -125.5t-91 -91t-125 -33.5t-125 33.5t-91 91t-33.5 125.5z" />
    <glyph glyph-name="font_in_use" unicode="&#xe84b;" 
d="M100 -150h800v860h-130v140h-670v-1000zM230 80v50h540v-50h-540zM230 170v50h540v-50h-540zM230 260v50h540v-50h-540zM230 350v50h540v-50h-540zM230 490h540v-50h-540v50zM820 850h-20l100 -100v10z" />
    <glyph glyph-name="gridview_catalog" unicode="&#xe84c;" 
d="M600 850v-400h400v400h-400zM0 450h400v400h-400v-400zM600 -150h400v400h-400v-400zM0 -150h400v400h-400v-400z" />
    <glyph glyph-name="ico-account" unicode="&#xe84d;" 
d="M289 483q3 -19 14 -33q5 -7 20 -19q14 -12 20 -21q5 -7 24 -46q15 -31 26 -42q20 -20 46 -36q35 -22 62.5 -22t54.5 14q18 10 49 34q15 12 27 34q7 13 19 43t20 43q17 29 21.5 53t-2.5 48q-4 14 -3 29q1 10 5 28q6 23 7 33q4 20 3 39q-2 31 -26 60q-27 31 -71 50
q-49 20 -110.5 20t-109.5 -25q-42 -21 -67 -56q-22 -31 -22 -61q0 -33 5 -68l4 -36q0 -4 -6 -13t-9 -17q-4 -14 -1 -33zM955 139q-25 34 -80 61q-44 22 -104 38q-43 12 -90 20l-38 5l-11 -10q-13 -11 -29 -21q-22 -14 -44 -21q-28 -10 -55.5 -10t-56.5 10q-24 8 -46 22
q-17 9 -32 21l-11 10l-52 -18q-62 -23 -115 -47q-75 -33 -119 -63q-23 -15 -32 -30q-9 -12 -11 -29v-38q0 -19 21 -39q25 -24 75 -43q58 -22 146 -35q101 -14 235 -14q69 0 129 6q56 5 104 15q43 9 80 22q33 11 60 25q23 12 41 25q15 11 27 22q8 8 14 15l4 6l4 16q3 20 1 37
q-2 25 -15 42z" />
    <glyph glyph-name="ico-account" unicode="&#xe858;" 
d="M289 483q3 -19 14 -33q5 -7 20 -19q14 -12 20 -21q5 -7 24 -46q15 -31 26 -42q20 -20 46 -36q35 -22 62.5 -22t54.5 14q18 10 49 34q15 12 27 34q7 13 19 43t20 43q17 29 21.5 53t-2.5 48q-4 14 -3 29q1 10 5 28q6 23 7 33q4 20 3 39q-2 31 -26 60q-27 31 -71 50
q-49 20 -110.5 20t-109.5 -25q-42 -21 -67 -56q-22 -31 -22 -61q0 -33 5 -68l4 -36q0 -4 -6 -13t-9 -17q-4 -14 -1 -33zM955 139q-25 34 -80 61q-44 22 -104 38q-43 12 -90 20l-38 5l-11 -10q-13 -11 -29 -21q-22 -14 -44 -21q-28 -10 -55.5 -10t-56.5 10q-24 8 -46 22
q-17 9 -32 21l-11 10l-52 -18q-62 -23 -115 -47q-75 -33 -119 -63q-23 -15 -32 -30q-9 -12 -11 -29v-38q0 -19 21 -39q25 -24 75 -43q58 -22 146 -35q101 -14 235 -14q69 0 129 6q56 5 104 15q43 9 80 22q33 11 60 25q23 12 41 25q15 11 27 22q8 8 14 15l4 6l4 16q3 20 1 37
q-2 25 -15 42z" />
    <glyph glyph-name="ico-faq" unicode="&#xe84e;" horiz-adv-x="923" 
d="M813 834h-703q-34 0 -58 -23.5t-24 -57.5v-570q0 -34 24 -58t58 -24h703q34 0 58 24t24 58v570q0 34 -24 57.5t-58 23.5zM503 261h-90v87h90v-87zM595 522q-9 -20 -18.5 -30.5t-22.5 -20.5q-9 -6 -25 -18q-11 -9 -19.5 -20t-11.5 -29v-21h-77v25q1 25 9.5 42t18.5 28
q6 8 21 20l11 9q7 5 10 8q10 9 16.5 19t4.5 25q0 27 -12 39q-15 13 -36 13q-15 0 -27 -6q-8 -4 -18 -16q-7 -9 -10 -24q-4 -12 -4 -29h-84q2 34 11 57q11 27 28 44q21 21 43 30q24 10 57 10q42 0 67 -11q28 -11 44.5 -28t23.5 -35q7 -23 7 -36q0 -24 -7 -45z" />
    <glyph glyph-name="ico-faq" unicode="&#xe859;" horiz-adv-x="923" 
d="M813 834h-703q-34 0 -58 -23.5t-24 -57.5v-570q0 -34 24 -58t58 -24h703q34 0 58 24t24 58v570q0 34 -24 57.5t-58 23.5zM503 261h-90v87h90v-87zM595 522q-9 -20 -18.5 -30.5t-22.5 -20.5q-9 -6 -25 -18q-11 -9 -19.5 -20t-11.5 -29v-21h-77v25q1 25 9.5 42t18.5 28
q6 8 21 20l11 9q7 5 10 8q10 9 16.5 19t4.5 25q0 27 -12 39q-15 13 -36 13q-15 0 -27 -6q-8 -4 -18 -16q-7 -9 -10 -24q-4 -12 -4 -29h-84q2 34 11 57q11 27 28 44q21 21 43 30q24 10 57 10q42 0 67 -11q28 -11 44.5 -28t23.5 -35q7 -23 7 -36q0 -24 -7 -45z" />
    <glyph glyph-name="ico-support" unicode="&#xe84f;" 
d="M60 -45l236 242h-236v-242zM677 637q0 48 -23.5 88.5t-64 64t-88.5 23.5t-88.5 -23.5t-64.5 -64t-24 -88.5q0 -58 33 -103.5t86 -63.5v-69h-90v-58h90v-437h116v437h88v58h-88v69q52 18 85 64t33 103zM501 579q-24 0 -41.5 17.5t-17.5 41.5t17.5 41.5t41.5 17.5
t41.5 -17.5t17.5 -41.5t-17 -41.5t-42 -17.5zM706 196l236 -244v244h-236zM499 7q-93 0 -170 53q-75 51 -109 135l-95 -95q59 -96 157 -153q101 -58 218.5 -58t218.5 59q98 56 158 154l-97 96q-22 -56 -64 -99.5t-98 -67.5t-119 -24z" />
    <glyph glyph-name="ico-support" unicode="&#xe85b;" 
d="M60 -45l236 242h-236v-242zM677 637q0 48 -23.5 88.5t-64 64t-88.5 23.5t-88.5 -23.5t-64.5 -64t-24 -88.5q0 -58 33 -103.5t86 -63.5v-69h-90v-58h90v-437h116v437h88v58h-88v69q52 18 85 64t33 103zM501 579q-24 0 -41.5 17.5t-17.5 41.5t17.5 41.5t41.5 17.5
t41.5 -17.5t17.5 -41.5t-17 -41.5t-42 -17.5zM706 196l236 -244v244h-236zM499 7q-93 0 -170 53q-75 51 -109 135l-95 -95q59 -96 157 -153q101 -58 218.5 -58t218.5 59q98 56 158 154l-97 96q-22 -56 -64 -99.5t-98 -67.5t-119 -24z" />
    <glyph glyph-name="ico-orderhistory" unicode="&#xe850;" 
d="M874 785q-30 0 -51.5 -21.5t-21.5 -52.5q0 -25 20 -42l-7 -47h-762l43 -471l666 -2l10 -71h43l59 572h1q28 0 50 15q24 17 24 47t-21.5 51.5t-52.5 21.5z" />
    <glyph glyph-name="ico-orderhistory" unicode="&#xe85d;" 
d="M874 785q-30 0 -51.5 -21.5t-21.5 -52.5q0 -25 20 -42l-7 -47h-762l43 -471l666 -2l10 -71h43l59 572h1q28 0 50 15q24 17 24 47t-21.5 51.5t-52.5 21.5z" />
    <glyph glyph-name="ico-newsletter" unicode="&#xe851;" 
d="M20 -97l952 -1l-479 399zM3 488l-3 -546l329 275zM1000 -60l-1 548l-324 -278zM495 364l148 -126l305 274l-444 286l-455 -282l310 -266z" />
    <glyph glyph-name="ico-newsletter" unicode="&#xe85a;" 
d="M20 -97l952 -1l-479 399zM3 488l-3 -546l329 275zM1000 -60l-1 548l-324 -278zM495 364l148 -126l305 274l-444 286l-455 -282l310 -266z" />
    <glyph glyph-name="ico-favorites" unicode="&#xe852;" 
d="M523 337q5 1 -10 -2q-6 -1 -10 -1l-21 -3l-19 -5q-9 -3 -17 -8.5t-12 -13.5t-4 -20t5.5 -21t10.5 -12q8 -4 19 -6t19 -2q27 0 41 8t20 21q6 10 8 25.5t2 18.5v33q-8 -6 -14 -8zM502 620q-30 79 -92 124q-57 42 -127 46t-131 -29q-64 -35 -99 -102q-39 -73 -35 -171
q5 -118 104 -229q64 -73 167 -140q85 -56 146 -117q58 -58 68 -93q8 34 42 71q28 31 81 72q24 19 107 78q68 48 106 84q62 57 96 119q42 78 46.5 168t-35.5 159q-36 63 -101 96q-61 32 -131.5 28t-125.5 -44q-60 -43 -86 -120zM565 193q-2 5 -4 15t-2 16
q-21 -22 -49.5 -30.5t-58.5 -8.5q-20 0 -42 5q-18 4 -34.5 17.5t-24 29.5t-7.5 43t9 45q12 19 25.5 28.5t33.5 15.5q26 6 40 8q26 4 39 5q16 1 33 5.5t24.5 11t7.5 20.5t-4.5 22t-13.5 13.5t-16.5 6.5t-22.5 1q-25 0 -41 -11q-14 -10 -17 -37h-88q3 32 16 51q14 21 34.5 33
t48 17.5t51.5 5.5q28 0 49 -4q27 -3 46 -13t33 -27q13 -19 13 -47v-166q0 -28 2 -41q3 -19 9 -30h-89z" />
    <glyph glyph-name="ico-favorites" unicode="&#xe85e;" 
d="M523 337q5 1 -10 -2q-6 -1 -10 -1l-21 -3l-19 -5q-9 -3 -17 -8.5t-12 -13.5t-4 -20t5.5 -21t10.5 -12q8 -4 19 -6t19 -2q27 0 41 8t20 21q6 10 8 25.5t2 18.5v33q-8 -6 -14 -8zM502 620q-30 79 -92 124q-57 42 -127 46t-131 -29q-64 -35 -99 -102q-39 -73 -35 -171
q5 -118 104 -229q64 -73 167 -140q85 -56 146 -117q58 -58 68 -93q8 34 42 71q28 31 81 72q24 19 107 78q68 48 106 84q62 57 96 119q42 78 46.5 168t-35.5 159q-36 63 -101 96q-61 32 -131.5 28t-125.5 -44q-60 -43 -86 -120zM565 193q-2 5 -4 15t-2 16
q-21 -22 -49.5 -30.5t-58.5 -8.5q-20 0 -42 5q-18 4 -34.5 17.5t-24 29.5t-7.5 43t9 45q12 19 25.5 28.5t33.5 15.5q26 6 40 8q26 4 39 5q16 1 33 5.5t24.5 11t7.5 20.5t-4.5 22t-13.5 13.5t-16.5 6.5t-22.5 1q-25 0 -41 -11q-14 -10 -17 -37h-88q3 32 16 51q14 21 34.5 33
t48 17.5t51.5 5.5q28 0 49 -4q27 -3 46 -13t33 -27q13 -19 13 -47v-166q0 -28 2 -41q3 -19 9 -30h-89z" />
    <glyph glyph-name="ico-5min" unicode="&#xe853;" 
d="M500 791q-120 0 -222 -60q-100 -59 -159 -158q-60 -103 -60 -223t60 -223q59 -99 159 -158q102 -60 222 -60t222 60q100 59 159 159q60 102 60 222t-60 222q-59 100 -158 159q-103 60 -223 60zM500 19q-90 0 -167 45q-75 44 -119 119q-45 77 -45 167q0 85 41 159
q39 72 108.5 117.5t152.5 52.5l1 -435l164 407q87 -39 141 -119q54 -83 54 -182q0 -90 -45 -167q-44 -75 -119 -119q-77 -45 -167 -45z" />
    <glyph glyph-name="ico-faq-1" unicode="&#xe854;" horiz-adv-x="923" 
d="M813 834h-703q-34 0 -58 -23.5t-24 -57.5v-570q0 -34 24 -58t58 -24h110v-235l237 235h356q34 0 58 24t24 58v570q0 34 -24 57.5t-58 23.5zM503 261h-90v87h90v-87zM595 522q-9 -20 -18.5 -30.5t-22.5 -20.5q-9 -6 -25 -18q-11 -9 -19.5 -20t-11.5 -29v-21h-77v25
q1 25 9.5 42t18.5 28q6 8 21 20l11 9q7 5 10 8q10 9 16.5 19t4.5 25q0 27 -12 39q-15 13 -36 13q-15 0 -27 -6q-8 -4 -18 -16q-7 -9 -10 -24q-4 -12 -4 -29h-84q2 34 11 57q11 27 28 44q21 21 43 30q24 10 57 10q42 0 67 -11q28 -11 44.5 -28t23.5 -35q7 -23 7 -36
q0 -24 -7 -45z" />
    <glyph glyph-name="ico-pageviews" unicode="&#xe855;" horiz-adv-x="1280" 
d="M862 757h-775q-12 0 -20.5 -8.5t-8.5 -19.5v-691h846v691q0 11 -14.5 19.5t-27.5 8.5zM650 715h212v-43h-212v43zM86 715h550v-43h-550v43zM876 79h-791v565h791v-565zM477 316q-19 0 -32 13.5t-13 32.5t13 32t32 13t32.5 -13t13.5 -32t-13.5 -32.5t-32.5 -13.5zM481 546
q-96 0 -177 -51q-79 -50 -120 -133q41 -83 120 -133q81 -51 177 -51t177 51q79 50 121 133q-42 83 -120 133q-81 51 -178 51zM477 261q-42 0 -71.5 29.5t-29.5 71.5t29.5 71.5t71.5 29.5t72 -29.5t30 -71.5t-30 -71.5t-72 -29.5zM1252 375l-45 45q-18 20 -46 20t-48 -20
l-300 -300l-110 110q-20 20 -47 20t-47 -20l-45 -45q-19 -19 -19 -46.5t19 -46.5l202 -203q21 -19 48 -19t46 19l392 392q20 20 20 47.5t-20 46.5zM1232 355l-45 45q-11 11 -27 11t-27 -11l-320 -320l-130 130q-11 11 -27 11t-27 -11l-45 -45q-11 -11 -11 -27t11 -27
l202 -202q13 -11 28 -11t26 11l392 392q11 11 11 27t-11 27z" />
    <glyph glyph-name="ico-uhr" unicode="&#xe856;" 
d="M500 791q-120 0 -222 -60q-100 -59 -159 -158q-60 -103 -60 -223t60 -222q59 -100 159 -159q102 -60 222 -60t223 60q99 59 158 159q60 102 60 222t-60 223q-58 100 -158 158q-103 60 -223 60zM500 19q-90 0 -167 45q-75 44 -119 119q-45 77 -45 167t45 167
q44 75 119 119q77 45 167 45t167 -45q75 -44 119 -119q45 -77 45 -167t-45 -167q-44 -75 -119 -119q-77 -45 -167 -45zM542 337h-84v283h84v-283zM459 336l59 59l188 -188l-59 -59z" />
    <glyph glyph-name="ico-webfonts" unicode="&#xe85c;" 
d="M374 123q57 -5 111 -5v222h-140q1 -101 29 -217zM345 371h140v223q-52 0 -107 -5q-30 -122 -33 -218zM385 617q32 3 100 5v169h-44q-33 -84 -56 -174zM878 371h87q-3 87 -31 159q-43 18 -102 32q42 -95 46 -191zM351 614q14 53 33 109l24 68h-25q-35 -30 -67 -65
q-59 -64 -99 -134q66 15 134 22zM624 591q-51 3 -111 3v-223h145q-3 103 -34 220zM780 597q-42 70 -104 132q-36 36 -72 62h-14q39 -96 61 -176q72 -7 129 -18zM555 791h-42v-169q70 -2 104 -4q-24 84 -62 173zM658 340h-145v-222q65 0 112 4q32 129 33 218zM149 340
q1 -97 38 -189q74 -17 154 -25q-27 117 -28 214h-164zM801 144q46 98 47 196h-158q-3 -97 -32 -216q76 7 143 20zM794 571q-64 11 -136 17q29 -114 32 -217h158q-4 102 -54 200zM170 555q-47 -13 -102 -33q-29 -72 -32 -151h85q4 87 49 184zM667 -79h17q85 31 148 92
q60 60 94 140q-49 -18 -103 -31q-54 -109 -156 -201zM650 95q-23 -88 -56 -174h38q97 90 153 193q-54 -11 -135 -19zM878 340q-1 -96 -41 -188q54 13 101 31q27 78 28 157h-88zM78 156q34 -70 88 -125q56 -56 129 -91q-87 84 -131 190q-29 7 -86 26zM513 89v-168h47
q33 86 57 171q-48 -3 -104 -3zM819 588q51 -12 105 -33q-38 87 -107 147q-72 63 -168 89h-10q37 -24 75 -63q65 -64 105 -140zM201 562q-46 -93 -52 -191h164q3 96 31 215q-79 -9 -143 -24zM330 775q-84 -32 -147.5 -89.5t-100.5 -133.5q44 17 104 33q32 60 78 117
q32 40 66 73zM201 121q31 -66 79 -124q35 -43 74 -76h51q-37 96 -57 175q-78 8 -147 25zM436 -79h49v168q-38 0 -104 4q20 -81 55 -172zM120 340h-85q3 -80 30 -152q39 -15 87 -28q-31 89 -32 180z" />
    <glyph glyph-name="digitalads" unicode="&#xe899;" horiz-adv-x="1115" 
d="M339 317h145v232q-54 0 -112 -5q-30 -127 -33 -227zM369 59q58 -5 115 -5v231h-145q1 -108 30 -226zM813 82q46 103 49 203h-165q-1 -99 -33 -224q84 7 149 21zM428 -137h56v161q-51 0 -108 5q23 -89 52 -166zM380 573q33 3 104 5v162h-51q-30 -78 -53 -167zM664 285
h-151v-231q45 0 117 4q33 131 34 227zM513 24v-161h54q35 93 54 165q-44 -4 -108 -4zM656 30q-22 -81 -54 -167h49q89 82 146 187q-66 -13 -141 -20zM188 57q52 -108 144 -194h64q-32 81 -54 169q-78 8 -154 25zM105 285h-88q2 -83 30 -158q45 -16 91 -29q-32 90 -33 187z
M688 -137h37q75 35 132 95q54 57 86 133q-44 -17 -107 -32q-52 -107 -148 -196zM345 570q24 90 54 170h-37q-100 -92 -157 -193q65 16 140 23zM893 285q-1 -100 -43 -195q50 12 105 32q28 78 29 163h-91zM134 285q3 -104 40 -196q70 -17 161 -27q-29 124 -30 223h-171z
M151 66q-43 11 -90 28q35 -74 92 -131q59 -60 136 -96q-38 36 -70 80q-41 56 -68 119zM325 739q-88 -32 -156 -94q-65 -60 -105 -140q55 20 109 34q34 63 83 124q33 41 69 76zM188 516q-49 -102 -53 -199h170q3 99 33 224q-76 -8 -150 -25zM156 508q-55 -14 -105 -34
q-31 -76 -34 -157h88q4 90 51 191zM1107 359q0 -17 -12.5 -29.5t-29.5 -12.5h-509q-18 0 -30.5 12.5t-12.5 29.5v434q0 17 12.5 29.5t30.5 12.5h509q17 0 29.5 -12.5t12.5 -29.5v-434zM752 659h-38l-65 -166h34l15 38h69l15 -38h36zM707 557l13 38q8 20 12 38h1q1 -5 11 -38
l14 -38h-51zM954 530v143h-31v-42q0 -25 1 -34h-1q-13 21 -38 21t-39.5 -17.5t-14.5 -46.5t14 -46.5t40 -17.5t40 24h1v-21h29q-1 10 -1 37zM893 515q-13 0 -21 11t-8 28.5t8 28.5t21 11t21.5 -11.5t8.5 -28.5t-8.5 -28t-21.5 -11z" />
  </font>
</defs>
</svg>
