<svg xmlns="http://www.w3.org/2000/svg" xmlns:xlink="http://www.w3.org/1999/xlink" xml:space="preserve" width="1159" height="272" version="1.1" style="shape-rendering:geometricPrecision; text-rendering:geometricPrecision; image-rendering:optimizeQuality; fill-rule:evenodd; clip-rule:evenodd">
  <path d="M135.95763113850293,0 c-75.07418131695877,0 -135.95763113850293,60.88344982154416 -135.95763113850293,135.9582267620704 c0,75.07537256409374 60.88344982154416,135.95882238563792 135.95882238563792,135.95882238563792 c75.07537256409374,0 135.9594180092054,-60.88344982154416 135.9594180092054,-135.95882238563792 c0,-0.016081836322190735 0,-0.04943675610154932 0,-0.06611421599122858 c-0.03335491977935858,-75.05809948063659 -60.900127281433846,-135.8921125460792 -135.9594180092054,-135.8921125460792 c0,0 0,0 0,0 l-0.0011912471349770923,0 z"/>
  <path d="M221.18600303400643,143.06103780437132 c-7.591817991209003,18.07419715543992 -25.291963546266118,29.84074073117614 -44.90108263512402,29.84074073117614 c-0.02978117837442729,0 -0.07147482809862547,0 -0.10125600647305277,0 c-2.316380053962954,-0.005956235674885457 -4.630973237223443,-0.1673702224642814 -6.920550230649413,-0.4764988539908365 l-2.983478449550126,-0.5366568343071798 l-3.0442320534339573,-0.7755018848700866 c-5.002642343336295,-1.302033118529961 -9.770013377514616,-3.422453018789184 -14.086497371104107,-6.264768682844524 c-1.4396221626198151,-0.9643145557639557 -2.8470806525952486,-2.0066557988689104 -4.178894949499637,-3.105581280885277 c0.16379648105935007,1.1114335769336263 0.48722007820563046,2.2008290818701766 0.9553802022516272,3.222323500113032 l0,0.000595623567488546 c0.6682896427221483,1.3943547714906854 1.0155381825679703,2.926298587071225 1.0155381825679703,4.4743242389739555 c-0.0035737414049312756,1.4336659269449294 -0.29006867736692177,2.8548237589725995 -0.8356598651864297,4.178894949499637 l0,0.41753212080947055 c-0.3585653876281045,0.8356598651864297 -0.7755018848700866,1.7308820871217139 -1.1936296292470456,2.5069795955592897 c-2.4015542241138164,5.056248464410264 -5.356442742424492,9.883181855337439 -8.77353514910628,14.324151174532037 c-3.4230486423566724,-4.455264284814323 -6.405931468339309,-9.26849833368926 -8.837862494395042,-14.327724915936967 l-1.4283053148375326,-2.6820929244009215 l0,0 c-0.5485693056569507,-1.3395574032817392 -0.8350642416189411,-2.7779883187665773 -0.8350642416189411,-4.2265448348987205 c0,-0.0029781178374427286 0,-0.009529977079816739 0,-0.01191247134977092 c0.004169364972419822,-1.452130257537074 0.2894730537994333,-2.893539290859356 0.8368511123214067,-4.237861682681003 c0.5044931616627982,-1.1221548011484201 0.8684191613982998,-2.308041324018115 1.0727180450468707,-3.5219221545597708 c-1.345513638956625,1.119772306878466 -2.767862718119272,2.157944185011001 -4.237861682681003,3.106176904452766 c-4.2712166024603615,2.8566106296750653 -9.004637093291834,5.025871662468348 -13.964990163336445,6.383893396342233 l-3.043636429866469,0.7755018848700866 l-3.0442320534339573,0.5366568343071798 c-2.264560803591451,0.31151112579650947 -4.568432762637146,0.4711382418834397 -6.860987873900558,0.4782857246933022 c-0.013103718484748013,0 -0.030972425509404378,0 -0.042884896859175306,0 c-19.633539655124935,0 -37.37537885990624,-11.76296983433129 -45.02020734862173,-29.844314472581072 c-0.05420174464145768,-0.10959473641789243 -0.0816004287459308,-0.23229319132053283 -0.0816004287459308,-0.356778516925639 c0,-0.46101264123613445 0.37464722395029537,-0.8356598651864297 0.8356598651864297,-0.8356598651864297 c0.00714748280986255,0 0.0142949656197251,0 0.02144244842958765,0.000595623567488546 l75.55782765375947,0.0011912471349770923 l0,-19.158232048269074 c0.0011912471349770923,-0.01727308345716783 0.0011912471349770923,-0.044671767561640936 0.0011912471349770923,-0.06194485101880877 c0,-3.8143733261966473 -0.3031723958516698,-7.6370853823381335 -0.8910528569628646,-11.397852587460813 c-0.5443999406845307,-3.4528298207310995 -1.349087380361556,-6.871709098115352 -2.3896417527640454,-10.202436087511298 c-2.044180083620689,-6.671579579439201 -5.0979421141344625,-13.027478668109472 -9.015953941074118,-18.801453531343437 c-0.03931115545424404,-0.07981355804346513 -0.06134922745132021,-0.16617897532930428 -0.06134922745132021,-0.25492688688509757 c0,-0.2966205366092958 0.24063192126537253,-0.5366568343071798 0.5366568343071798,-0.5366568343071798 c0.041693649724198215,0 0.08279167588090788,0.0047649885399083675 0.12329407847012896,0.0142949656197251 c3.41590115954681,1.0340025131601154 6.79070429293691,2.324718783907794 10.031492123642085,3.8161601968991117 l1.7308820871217139,0.8356598651864297 l1.6707241068053706,0.8362554887539182 c1.6343910691885697,0.7826493676799491 3.2378097128677346,1.6641722475629968 4.772731646285717,2.6266999326244864 c0.7076007981763924,0.43361395713166134 1.5236050856356997,0.6623334070472627 2.3550955858497096,0.6623334070472627 c0.8314905002140099,0 1.6474947876733175,-0.2287194499156016 2.357478080119664,-0.6605465363447972 c1.611161750056516,-1.0149425590004817 3.1633567669316665,-1.9095691573682778 4.834676497304526,-2.6862622893733414 l1.6707241068053706,-0.8356598651864297 l1.7308820871217139,-0.8356598651864297 c3.274738374052024,-1.4872720480188986 6.65549774311701,-2.7696495888217374 10.086885115418522,-3.8185426911690667 c0.03990677902173258,-0.009529977079816739 0.0816004287459308,-0.0142949656197251 0.12329407847012896,-0.0142949656197251 c0.2966205366092958,0 0.5366568343071798,0.24063192126537253 0.5366568343071798,0.5366568343071798 c0,0.08874791155579331 -0.022038071997076192,0.1751133288416325 -0.06373172172127442,0.25314001618263193 c-3.9090774734273253,5.7876742052862 -6.978325716695802,12.136425811146607 -9.07134693285055,18.80383602561339 c-2.1275673830690853,6.984877575938175 -3.2467440663800624,14.2896050076177 -3.283672727564352,21.603266792809553 l0,18.919386997706166 l75.55901890089443,-0.0011912471349770923 c0.03216367264438148,-0.0047649885399083675 0.06373172172127442,-0.005956235674885457 0.09529977079816734,-0.005956235674885457 c0.46101264123613445,0 0.8356598651864297,0.37405160038280677 0.8356598651864297,0.8356598651864297 c0,0.1727308345716783 -0.05360612107396913,0.3418879277384253 -0.1536708804120448,0.482455089665722 l-0.0011912471349770923,0.000595623567488546 z" fill="#FFFFFF"/>
  <path d="M329.3327785593342,34.48183956904689 c0.000595623567488546,-0.02322931913205329 0,-0.048841132534060756 0,-0.07326169880109115 c0,-0.8380423594563838 0.32104110287632626,-1.6445166698358746 0.8958178455027728,-2.2538395793766575 c0.6051535445683625,-0.6128966509457134 1.431879056242464,-0.9583583200890701 2.293150734830901,-0.9583583200890701 c0.051819250371503506,0 0.10304287717551845,0.0011912471349770923 0.1536708804120448,0.0029781178374427286 l21.963023427572637,0 c0.8392336065913609,0.013699342052236555 1.6463035405383404,0.33295357422609706 2.268730168563871,0.8958178455027728 c0.7016445625015069,0.5962191910560343 1.115602941906046,1.4664252231567996 1.1346628960656795,2.386663634926603 l-0.0011912471349770923,80.75226078582708 l40.824039315664926,0 c0.012508094917259469,-0.000595623567488546 0.026207436969496022,-0.0011912471349770923 0.038715531886755486,-0.0011912471349770923 c0.8308948766465213,0 1.6302217042161498,0.32163672644381464 2.2294190131096263,0.8952222219352843 c0.6128966509457134,0.5950279439210572 0.9601451907915357,1.4146059727852962 0.9601451907915357,2.269921415698848 c0,0.05896673318136604 -0.002382494269954184,0.1185290899302206 -0.0047649885399083675,0.17690019954409814 l-0.0011912471349770923,19.517988683032154 c0.000595623567488546,0.0142949656197251 0.0011912471349770923,0.03216367264438148 0.0011912471349770923,0.048841132534060756 c0,0.8344686180514526 -0.29721616017678426,1.6421341755659205 -0.8362554887539182,2.27706889850871 c-0.5866892139762175,0.7153439045537434 -1.461660234616891,1.132876025363214 -2.386663634926603,1.1352585196331682 l-66.25001816461597,0.000595623567488546 c-0.14890589187213643,0.02263369556456475 -0.30138552514920414,0.035737414049312764 -0.4526739112912948,0.035737414049312764 c-1.5819761952495774,0 -2.8643537360524167,-1.2829731643703275 -2.8643537360524167,-2.8649493596199047 c0,-0.15188400970957916 0.012508094917259469,-0.3043636429866469 0.036333037616801296,-0.4532695348587833 l-0.0011912471349770923,-103.78919350558155 z"/>
  <path d="M483.79345582186886,37.64519633597857 l-1.8506024241869115,-4.237861682681003 c-0.38953781313750896,-0.4985369259879129 -0.8314905002140099,-0.9601451907915357 -1.3115630956097777,-1.3729123230610978 c-0.5837110961387748,-0.49913254955540154 -1.3288361790669454,-0.7755018848700866 -2.097786204694658,-0.7755018848700866 c-0.016677459889679287,0 -0.03514179048182421,0.000595623567488546 -0.05122362680401496,0.000595623567488546 l-18.98014060159,-0.000595623567488546 c-0.20489450721605976,-0.0375242847517784 -0.41514962653951637,-0.05658423891141186 -0.625404745862973,-0.05658423891141186 c-0.20965949575596812,0 -0.42051023864691317,0.01905995415963348 -0.6265959929979501,0.05658423891141186 c-0.4479089227513863,0.17987831738154086 -0.870801655668254,0.421105862214402 -1.2531919859959002,0.715939528121232 c-0.37822096535522665,0.27398684104473103 -0.7195132695261632,0.5944323203535686 -1.0143469354329935,0.9559758258191159 c-0.23705817986044125,0.27279559390975405 -0.40204590805476836,0.6009841795959426 -0.4776901011258136,0.9547845786841389 l-40.34634921453911,104.80413606458202 c-0.1751133288416325,0.27636933531468527 -0.26803060536984563,0.5980060617584998 -0.26803060536984563,0.9261946474446887 c0,0.48781570177311884 0.20668137791852545,0.9529977079816732 0.5670336362490955,1.2805906701003733 c0.6265959929979501,0.4675645004785085 1.389589782950777,0.7201088930936518 2.1722391506307264,0.7201088930936518 c0.05122362680401496,0 0.10423412431049552,-0.0011912471349770923 0.15486212754702194,-0.0035737414049312756 l21.90346107082378,0.000595623567488546 c0.06134922745132021,0.002382494269954184 0.12388970203761757,0.004169364972419822 0.18464330592144923,0.004169364972419822 c1.6772759660477448,0 3.1454880599070103,-1.1293022839582827 3.5761238992012285,-2.7499940110946155 l2.8649493596199047,-7.520938786677866 l2.8643537360524167,-7.520343163110378 c0,0 15.935312924588553,-46.673062748402444 16.890097503272692,-49.59697884120372 c0.9553802022516272,-2.9239160928012717 1.910164780935766,-5.610178382174612 2.8643537360524167,-8.176720334482756 c0,0 21.545491306763164,62.78706274323756 22.50087150901479,65.29344671522935 c0.9553802022516272,2.5069795955592897 1.9095691573682778,5.0139591911185795 2.9239160928012717,7.520938786677866 c0.23884505056290678,0.8326817473489869 0.7421469650907282,1.5664899824948753 1.4324746798099524,2.08885185118233 c0.7230870109310947,0.4330183335641727 1.5504081461726846,0.6623334070472627 2.3932154941689774,0.6623334070472627 c0.07743106377351094,0 0.15605337468199898,-0.002382494269954184 0.23288881488802138,-0.005956235674885457 l21.30664625620026,0.000595623567488546 c0.11019035998538099,0.00893435351232819 0.22097634353825052,0.0142949656197251 0.33176232709112013,0.0142949656197251 c0.9172602939323604,0 1.801165668085362,-0.3466529162783337 2.4742202993474187,-0.9696751678713526 c0.23586693272546416,-0.3532047755207076 0.3621391290330358,-0.7689500256277125 0.3621391290330358,-1.194225252814534 c0,-0.42408398005184467 -0.12627219630757172,-0.8404248537263381 -0.3621391290330358,-1.1936296292470456 l-38.73518746448259,-100.6258367386499 z"/>
  <path d="M1120.0790530157226,37.64519633597857 l-1.850006800619423,-4.237861682681003 c-0.39072906027248605,-0.4985369259879129 -0.8326817473489869,-0.9601451907915357 -1.3133499663122432,-1.3729123230610978 c-0.5831154725712863,-0.49913254955540154 -1.328240555499457,-0.7755018848700866 -2.097786204694658,-0.7755018848700866 c-0.016081836322190735,0 -0.03454616691433566,0.000595623567488546 -0.05062800323652638,0.000595623567488546 l-19.039107334771366,-0.000595623567488546 c-0.20668137791852545,-0.0375242847517784 -0.41693649724198206,-0.05658423891141186 -0.6265959929979501,-0.05658423891141186 c-0.2102551193234567,0 -0.42051023864691317,0.01905995415963348 -0.6265959929979501,0.05658423891141186 c-0.8892659862603989,0.3478441634133107 -1.673106601075325,0.9261946474446887 -2.268134544996382,1.6719153539403477 c-0.23646255629295268,0.27279559390975405 -0.4014502844872799,0.6009841795959426 -0.4770944775583252,0.9547845786841389 l-40.285595610655285,104.80413606458202 c-0.17630457597660962,0.27636933531468527 -0.26981747607231127,0.5980060617584998 -0.26981747607231127,0.9261946474446887 c0,0.48781570177311884 0.20668137791852545,0.9529977079816732 0.5676292598165841,1.2805906701003733 c0.6277872401329271,0.4675645004785085 1.3901854065182657,0.7201088930936518 2.172834774198215,0.7201088930936518 c0.05122362680401496,0 0.10363850074300703,-0.0011912471349770923 0.15486212754702194,-0.0035737414049312756 l21.90346107082378,0.000595623567488546 c0.060753603883831664,0.002382494269954184 0.12329407847012896,0.004169364972419822 0.18404768235396066,0.004169364972419822 c1.6778715896152332,0 3.1460836834744983,-1.1293022839582827 3.576719522768717,-2.7499940110946155 l2.8643537360524167,-7.520938786677866 l2.8643537360524167,-7.520343163110378 c0,0 15.935312924588553,-46.673062748402444 16.89069312684018,-49.59697884120372 c0.9553802022516272,-2.9239160928012717 1.9095691573682778,-5.610178382174612 2.8643537360524167,-8.176720334482756 c0,0 21.545491306763164,62.78706274323756 22.50087150901479,65.29344671522935 c0.9547845786841389,2.5069795955592897 1.9095691573682778,5.0139591911185795 2.9239160928012717,7.520938786677866 c0.23824942699541835,0.8326817473489869 0.7415513415232394,1.5664899824948753 1.431879056242464,2.08885185118233 c0.723682634498583,0.4330183335641727 1.5510037697401733,0.6623334070472627 2.393811117736465,0.6623334070472627 c0.07743106377351094,0 0.15605337468199898,-0.002382494269954184 0.23229319132053283,-0.005956235674885457 l21.307837503335236,0.000595623567488546 c0.10899911285040392,0.00893435351232819 0.22038071997076197,0.0142949656197251 0.330571079956143,0.0142949656197251 c0.917855917499849,0 1.8017612916528507,-0.3466529162783337 2.4748159229149076,-0.9696751678713526 c0.23646255629295268,-0.3532047755207076 0.3621391290330358,-0.7689500256277125 0.3621391290330358,-1.194225252814534 c0,-0.42408398005184467 -0.12567657274008315,-0.8404248537263381 -0.3621391290330358,-1.1936296292470456 l-38.734591840915115,-100.6258367386499 z"/>
  <path d="M598.2067869007436,62.35404440967338 c-2.4736246757799303,-1.7636413833335838 -5.18907251996021,-3.1758648618489262 -8.056999997417558,-4.178299325932149 c-2.9090255036140578,-0.9875438748960087 -5.974104381910114,-1.4932282836937842 -9.048713237285986,-1.4932282836937842 c-0.044671767561640936,0 -0.09946913577058718,0 -0.14473652689971667,0 c-0.07564419307104532,-0.000595623567488546 -0.16379648105935007,-0.000595623567488546 -0.24241879196783817,-0.000595623567488546 c-7.513791303868004,0 -14.685099056430095,3.1663348847691086 -19.74849500365022,8.71575966305989 c-2.562372587335724,2.712469726342837 -4.59523582317413,5.899651435974046 -5.968148146235228,9.369158716594825 c-1.3782729351684948,3.6088831954130987 -2.0900430983173073,7.451250829281707 -2.0900430983173073,11.316252158714882 c0,0.04645863826410658 0,0.09649101793314445 0,0.14294965619725095 c-0.000595623567488546,0.06730546312620567 -0.000595623567488546,0.13222843198245718 -0.000595623567488546,0.19774702440619726 c0,3.847728245976005 0.7087920453113694,7.669844678550004 2.08885185118233,11.260263543370957 c1.3735079466285864,3.4552123150010536 3.4027974410620616,6.6239296940401164 5.968743769802716,9.31376572481839 c2.461116580862671,2.6594592288363565 5.457698748897544,4.80013033039019 8.77293952553879,6.264768682844524 c3.467124786350825,1.5313481920130512 7.224913873636059,2.328888148880214 11.014866633565676,2.328888148880214 c0.08636541728583913,0 0.17987831738154086,0 0.26564811109989145,0 c0.042289273291686746,-0.000595623567488546 0.09470414723067878,-0.000595623567488546 0.13818466765734264,-0.000595623567488546 c1.6879971902625386,0 3.3837374869024286,-0.12269845490264045 5.05386597014031,-0.3585653876281045 l5.430895688360562,-0.9553802022516272 l0,-19.456043832013346 c-0.000595623567488546,-0.030972425509404378 -0.0011912471349770923,-0.06313609815378586 -0.0011912471349770923,-0.09410852366319027 c0,-0.820769275999216 0.2978117837442728,-1.6153311150289362 0.8368511123214067,-2.2335883780820467 c0.5849023432737519,-0.6140878980806908 1.3967372657606396,-0.9619320614940013 2.245500849431817,-0.9619320614940013 c0.06670983955871715,0 0.13461092625241133,0.0017868707024656385 0.20132076581112845,0.0065518592423740064 l20.173174607269555,0.0011912471349770923 c0.8690147849657882,0.04050240258922112 1.704674650152218,0.35439602265568476 2.3872592584940913,0.8934353512328186 c0.7820537441124606,0.5056844087977753 1.2543832331308773,1.3741035701960749 1.2543832331308773,2.3056588297481606 c0,0.02680306053698456 -0.000595623567488546,0.05539299177643478 -0.0011912471349770923,0.08219605231341934 l0,35.810080124546346 c-0.02978117837442729,1.4152015963527849 -0.86424979642588,2.689836030778272 -2.149009831498673,3.283077103996864 c-2.4081060833561905,1.6165223621639133 -5.004429214038761,2.987647814522545 -7.701412727626897,4.05917461243444 c-2.858397500377531,1.1435972495780078 -5.830559102145374,2.0876606040473527 -8.833693129422622,2.8024088850336075 c-3.057335771918705,0.7373819765508197 -6.18852886620599,1.296672506422564 -9.310191983413457,1.670128483237882 c-3.0150464986270182,0.3597566347630817 -6.086677236165449,0.5396349521446224 -9.129718042464429,0.5396349521446224 c-0.01846433059214492,0 -0.03811990831926695,0 -0.05658423891141186,0 c-0.07802668734099949,0.000595623567488546 -0.16022273965441886,0.000595623567488546 -0.23586693272546416,0.000595623567488546 c-9.983842238243003,0 -19.794953641914326,-2.6660110880787307 -28.41183979277112,-7.702603974761873 c-4.1967636565242925,-2.337226878825054 -8.105841129951619,-5.21349308622724 -11.582495893382262,-8.529329486435973 c-3.4552123150010536,-3.57552827563374 -6.458941965845789,-7.603730462558775 -8.890277368334033,-11.936296292470455 c-2.58024129436038,-4.206889257171598 -4.592853328904177,-8.758048936351576 -5.966956899100252,-13.49087380361556 c-1.300841871394984,-4.821572778819777 -1.9566234191998726,-9.80872890940137 -1.9566234191998726,-14.803628146360314 c0,-10.197671098971393 2.738081539744845,-20.22916322261348 7.920006576895193,-29.005676489557203 c2.4605209572951825,-4.190211797281918 5.461868113869964,-8.07308183373975 8.893255486171476,-11.518168548093497 c3.4105405474394126,-3.402201817494573 7.278519994710029,-6.3678115600200424 11.458010567777155,-8.774130772673768 c4.238457306248491,-2.5498644924184646 8.80152945677824,-4.564859021232214 13.549244913229439,-5.963978781262808 c4.9246156559952965,-1.3419398975516936 10.027918382237157,-2.0251201294610555 15.1371773441539,-2.0251201294610555 c5.687013822380635,0 11.360328302709032,0.8445942186987578 16.794202108907033,2.4986408656144494 c5.257569230221392,1.662385376860531 10.285823386959697,4.078830190161561 14.85902113813675,7.161182151914786 c0.8064743103794908,0.46935137118097403 1.4676164702917769,1.152531603090336 1.9119516516382318,1.9715140083870861 c0.2585006282900289,0.421105862214402 0.3954940488123944,0.9077303168525437 0.3954940488123944,1.4026935014355253 c0,0.494367561015493 -0.1369934205223655,0.9809920156536348 -0.3954940488123944,1.4020978778680366 l-11.936891916037943,17.368383227965996 c-0.49377193744800435,0.684371479044339 -1.1519359795228474,1.2394926439436635 -1.910164780935766,1.6105661264890276 c-0.22395446137569328,0.053010497506480604 -0.453865158426272,0.08100480517844225 -0.684371479044339,0.08100480517844225 c-0.7153439045537434,0 -1.4068628664079452,-0.2632656168299372 -1.941732830012659,-0.7379776001183082 l-0.3579697640606161,0.3597566347630817 zm0,0 l0,0 l0,0 z"/>
  <path d="M663.7390786665358,86.40651531199583 c-0.000595623567488546,0.07564419307104532 -0.000595623567488546,0.15724462181697613 -0.000595623567488546,0.2340800620229985 c0,3.8548757287858684 0.7117701631488121,7.687117762007171 2.08885185118233,11.28349286250301 c1.3556392396039303,3.4599773035409624 3.3908849697122907,6.634055294687422 5.9693393933702055,9.312574477683413 c2.5194876904765486,2.5456951274460446 5.526195459158727,4.582727728256871 8.832501882287644,5.968148146235228 c3.5719545342288086,1.49084578942383 7.410748426692487,2.2621783093214964 11.280514744665567,2.2621783093214964 c3.8697663179730815,0 7.708560210436758,-0.7713325198976667 11.278727873963103,-2.2633695564564738 c3.333109483665902,-1.3705298287911438 6.359472830075202,-3.404584311764527 8.892659862603988,-5.968148146235228 c2.5796456707928916,-2.677327935861013 4.614295777333764,-5.851405927007473 5.971721887640159,-9.312574477683413 c1.371721075926121,-3.667849928594465 2.082299991939956,-7.565610554239507 2.082299991939956,-11.487196122584097 c0,-3.920989944777097 -0.7105789160138352,-7.8181549468546505 -2.0834912390749327,-11.487196122584097 c-1.3550436160364416,-3.47725038699813 -3.391480593279779,-6.669792708736735 -5.96755252266774,-9.372136834432267 c-5.321300951942668,-5.561337249640552 -12.696907588153328,-8.71099467451998 -20.39653344507776,-8.71099467451998 c-3.907886226292349,0 -7.778248167832919,0.8130261696218649 -11.356158937736613,2.384876764224137 c-3.3337051072333903,1.498588895801181 -6.343986617320501,3.651172468704785 -8.83428875299011,6.325522286728356 c-2.5766675529554486,2.7035353728305087 -4.612508906631298,5.896077694569113 -5.9693393933702055,9.372732457999756 c-1.377081688033518,3.6035225833057014 -2.0876606040473527,7.4417208522018905 -2.0876606040473527,11.30374406379762 c0,0.05003237966903786 0,0.10423412431049552 0,0.15426650397953334 l0.29900303087924984,0 zm-29.005676489557203,0 c-0.000595623567488546,-0.03216367264438148 -0.000595623567488546,-0.08100480517844225 -0.000595623567488546,-0.11555097209277793 c0,-5.06220470008515 0.6879452204492703,-10.111305681685552 2.0292894944334754,-14.988271452281763 c2.618361202679647,-9.494239665767418 7.663292819307629,-18.157584454888315 14.62136733470882,-25.12221082953188 c3.482610999105527,-3.483206622673015 7.425043392312211,-6.516121828324691 11.698642489042525,-8.955795960757774 c4.234287941276071,-2.548077621715999 8.802720703913216,-4.564859021232214 13.548053666094463,-5.965170028397785 c4.9103206903755705,-1.344918015389136 10.002306568835149,-2.0346501065408718 15.1008443065371,-2.0346501065408718 c5.09913336126944,0 10.191119239729018,0.689732091151736 15.102035553672076,2.0334588594058953 c4.760223551368457,1.3955460186256627 9.347120644597748,3.4105405474394126 13.601659787168431,5.968148146235228 c8.45785465833735,4.914490055347991 15.50169896745689,11.957143117332555 20.413210904967443,20.410828410697487 c2.5617769637682355,4.258112883975613 4.568432762637146,8.842031859367461 5.968148146235228,13.60523352857336 c1.3496830039290446,4.915681302482968 2.0388194715132917,10.002902192402638 2.0388194715132917,15.102631177239564 c0,5.100920231971905 -0.6891364675842474,10.187545498324084 -2.0388194715132917,15.100248682969612 c-1.3854204179783576,4.731633620129007 -3.4081580531694584,9.278028310769077 -5.966361275532763,13.490278180048072 c-2.417636060436007,4.311719005049582 -5.4213657112807425,8.293462553710512 -8.890872991901523,11.816575955405257 c-3.4569991857035194,3.427218007329092 -7.3291479979465555,6.424395798931454 -11.522337913065916,8.894446733306454 c-4.240839800518446,2.5814325414953574 -8.833097505855134,4.602978929551481 -13.609402893545782,5.966956899100252 c-4.907938196105617,1.325858061229503 -9.998732827430217,2.0042733045989563 -15.09607931799719,2.0042733045989563 c-5.0979421141344625,0 -10.188141121891574,-0.6778196198019651 -15.102035553672076,-2.0054645517339336 c-4.755458562828549,-1.3746991937635633 -9.320317584060763,-3.392076216847268 -13.54388430112204,-5.966956899100252 c-8.453089669797441,-5.076499665704876 -15.47668277762237,-12.269249866696555 -20.356626666056027,-20.833125520046863 c-5.036592886683143,-8.559110664810401 -7.697838986221965,-18.332102160162457 -7.697838986221965,-28.26829451300638 c0,-0.10244725360802989 0,-0.21740260213331927 0,-0.31984985574134916 l-0.29721616017678426,0.18106956451651798 zm0,0 l0,0 l0,0 z"/>
  <path d="M766.9910197142427,34.54199754936323 c0,-0.02322931913205329 -0.000595623567488546,-0.04764988539908368 -0.000595623567488546,-0.07147482809862547 c0,-0.82732113524159 0.29721616017678426,-1.6290304570811727 0.8362554887539182,-2.256222073646611 c0.5640555184116528,-0.6140878980806908 1.3627867224137924,-0.9649101793314441 2.197255340465245,-0.9649101793314441 c0.08279167588090788,0 0.16677459889679283,0.0035737414049312756 0.24897065121021214,0.010125600647305279 l21.78552760446105,-0.000595623567488546 c0.8672279142633228,0.04645863826410658 1.7022921558822635,0.3597566347630817 2.3872592584940913,0.8952222219352843 c0.7814581205449719,0.5062800323652639 1.2537876095633886,1.3746991937635633 1.2537876095633886,2.3056588297481606 c0,0.02739868410447311 -0.000595623567488546,0.05539299177643478 -0.0011912471349770923,0.08279167588090788 l0,103.66947316851636 c0,2.1484142079311845 -1.2525963624284118,3.2824814804293756 -3.64104686805748,3.2824814804293756 l-21.784336357326072,0 c-0.14950151543962498,0.02263369556456475 -0.3019811487166928,0.03514179048182421 -0.4532695348587833,0.03514179048182421 c-1.5819761952495774,0 -2.8643537360524167,-1.282377540802839 -2.8643537360524167,-2.8643537360524167 c0,-0.15188400970957916 0.012508094917259469,-0.3043636429866469 0.036333037616801296,-0.4532695348587833 l-0.000595623567488546,-103.66947316851636 z"/>
  <path d="M819.9306380161921,34.54199754936323 c0,-0.02322931913205329 -0.000595623567488546,-0.04764988539908368 -0.000595623567488546,-0.07147482809862547 c0,-0.82732113524159 0.29721616017678426,-1.6290304570811727 0.8362554887539182,-2.256222073646611 c0.5640555184116528,-0.6140878980806908 1.3621910988463042,-0.9649101793314441 2.197255340465245,-0.9649101793314441 c0.08279167588090788,0 0.16677459889679283,0.0035737414049312756 0.24897065121021214,0.010125600647305279 l24.231753596136503,-0.000595623567488546 c0.7463163300631478,0.02084682486209911 1.480124565209036,0.20489450721605976 2.1484142079311845,0.5372524578746682 c0.7933705918947429,0.40442840232472266 1.4562996225094942,1.0262594067827642 1.9107604045032545,1.7910400674380569 c6.286211131274112,10.146447472167376 12.513455529366858,20.092765425658598 18.68054194714326,29.84133635474363 l18.800262284208458,29.841931978311116 l0,-59.68386395662223 c0.14890589187213643,-0.8118349224868879 0.5700117540865383,-1.5486212754702189 1.1930340056795572,-2.08885185118233 c0.5753723661939352,-0.5003237966903785 1.3133499663122432,-0.7760975084375751 2.0757481326975817,-0.7760975084375751 c0.004169364972419822,0 0.009529977079816739,0 0.013699342052236555,0 l21.128554809521184,0 c0.044671767561640936,-0.0011912471349770923 0.09113040582574754,-0.002382494269954184 0.1369934205223655,-0.002382494269954184 c0.879736009180582,0 1.736242699229111,0.2954292894743188 2.4289529082182897,0.8374467358888955 c0.6462515707250721,0.5551211648993246 1.0191119239729018,1.3669560873862125 1.0191119239729018,2.2192934124623216 c0,0.05658423891141186 -0.0011912471349770923,0.11257285425533516 -0.0047649885399083675,0.16856146959925855 l0.000595623567488546,104.74457370783317 c0.005956235674885457,0.07385732236857968 0.009529977079816739,0.14890589187213643 0.009529977079816739,0.22455008494318177 c0,0.7606112956828729 -0.330571079956143,1.4848895537489446 -0.9047521990151008,1.983426479736857 c-0.6498253121300034,0.4687557476134855 -1.433070303377441,0.7218957637961173 -2.2347796252170236,0.7218957637961173 c-0.07087920453113694,0 -0.14294965619725095,-0.002382494269954184 -0.2120419900259224,-0.0065518592423740064 l-23.873783832075887,0.0011912471349770923 c-0.005360612107396912,-0.000595623567488546 -0.010721224214793823,-0.000595623567488546 -0.016677459889679287,-0.000595623567488546 c-0.6325522286728356,0 -1.2436620089160833,-0.23467568559048704 -1.7148002507995233,-0.6563771713723774 c-0.5777548604638894,-0.5396349521446224 -1.0995211055838554,-1.1430016260105194 -1.5521950168751504,-1.7910400674380569 l-19.516201812329694,-32.28875359355406 l-19.516201812329694,-32.4066870599168 l0,63.74244294548919 c0.0047649885399083675,0.07564419307104532 0.007743106377351096,0.1536708804120448 0.007743106377351096,0.2311019441855558 c0,0.8064743103794908 -0.2769649588821739,1.5879324309244631 -0.7838406148149262,2.2145284239224132 c-0.6391040879152096,0.5521430470618819 -1.4562996225094942,0.8565066900485289 -2.3014894647757407,0.8565066900485289 c-0.12805906701003736,0 -0.25671375758756326,-0.00714748280986255 -0.38358157746262356,-0.02084682486209911 l-21.068396829204843,0.0011912471349770923 c-0.08576979371835061,0.005956235674885457 -0.17153958743670117,0.010125600647305279 -0.2573093811550518,0.010125600647305279 c-0.8505504543736433,0 -1.6647678711304854,-0.34963103411577634 -2.250265837971726,-0.966101426466421 c-0.5009194202578671,-0.6087272859732937 -0.7766931320050635,-1.3746991937635633 -0.7766931320050635,-2.1644960442533754 c0,-0.03395054334684711 0.0011912471349770923,-0.06909233382867132 0.0017868707024656385,-0.10304287717551845 l0.2984074073117614,-103.72903552526522 z"/>
  <path d="M941.5659048508654,34.54199754936323 c0.04526739112912949,-0.8434029715637807 0.3829859538951349,-1.6463035405383404 0.9541889551166503,-2.268134544996382 c0.5324874693347599,-0.6426778293201407 1.3252624376620141,-1.016133806135459 2.1615179264159328,-1.016133806135459 c0.035737414049312764,0 0.07147482809862547,0.000595623567488546 0.10721224214793822,0.0017868707024656385 l22.023181407888977,-0.000595623567488546 c0.8410204772938265,0.05479736820894622 1.641538551998432,0.3925159309749517 2.268134544996382,0.9559758258191159 c0.7481032007656137,0.5372524578746682 1.1936296292470456,1.4038847485705022 1.1936296292470456,2.32650565461026 c0,0 0,0.000595623567488546 0,0.000595623567488546 l0,35.27282766667168 l36.88458504029568,0 l0,-35.27282766667168 c0,-0.02025120129461057 -0.000595623567488546,-0.041693649724198215 -0.000595623567488546,-0.06194485101880877 c0,-1.7803188432232633 1.4431959040247464,-3.222919123680521 3.222919123680521,-3.222919123680521 c0.03990677902173258,0 0.08100480517844225,0.0011912471349770923 0.11972033706519769,0.0017868707024656385 l21.963619051140125,0 c0.009529977079816739,0.000595623567488546 0.02025120129461057,0.000595623567488546 0.02978117837442729,0.000595623567488546 c0.9035609518801238,0 1.788657573168103,0.27100872320728836 2.537356397501205,0.7760975084375751 c0.7147482809862549,0.48841132534060744 1.1435972495780078,1.3002462478274952 1.1435972495780078,2.1668785385233296 c0,0.07385732236857968 -0.0035737414049312756,0.14711902116967082 -0.009529977079816739,0.21978509640327343 l0,103.8493514858979 c0.005360612107396912,0.07326169880109115 0.008338729944839644,0.14890589187213643 0.008338729944839644,0.22395446137569328 c0,0.8422117244288037 -0.3490354105482878,1.6468991641058288 -0.963718932196467,2.222271530299764 c-0.6766283726669879,0.5414218228470881 -1.5188400970957916,0.8374467358888955 -2.386663634926603,0.8374467358888955 c-0.03931115545424404,0 -0.0804091816109537,-0.0011912471349770923 -0.11972033706519769,-0.0017868707024656385 l-21.90405669439127,0.000595623567488546 c-0.03514179048182421,-0.000595623567488546 -0.07207045166611403,0.000595623567488546 -0.10840348928291534,0.000595623567488546 c-0.8344686180514526,0 -1.6427297991334089,-0.2966205366092958 -2.2788557692111757,-0.8368511123214067 c-0.6140878980806908,-0.5849023432737519 -0.9619320614940013,-1.3973328893281283 -0.9619320614940013,-2.245500849431817 c0,-0.06730546312620567 0.0017868707024656385,-0.13520654981989988 0.0065518592423740064,-0.20132076581112845 l0.000595623567488546,-42.19516476802355 l-36.88458504029568,0 l0,42.13619803484218 c0.0017868707024656385,0.04586301469661803 0.0029781178374427286,0.09351290009570169 0.0029781178374427286,0.1411627854947854 c0,0.8594848078859715 -0.371073482545364,1.6790628367502105 -1.0179206768379248,2.2449052258643287 c-0.7016445625015069,0.5455911878195079 -1.5664899824948753,0.8422117244288037 -2.4551603451877853,0.8422117244288037 c-0.07683544020602238,0 -0.15486212754702194,-0.002382494269954184 -0.2311019441855558,-0.0065518592423740064 l-22.142901744954177,0.0011912471349770923 c-2.0882562276148415,0 -3.162761143364178,-0.9553802022516272 -3.162761143364178,-2.9245117163687597 l0,-103.96847619939561 z"/>
  <path d="M329.2976367688523,250.79087683245712 l0,-65.16538764821932 c0,-0.6849671026118276 0.18702580019140339,-1.1983946177869542 0.559886153439233,-1.5402825455253792 c0.3734559768153183,-0.34307917487340234 0.8404248537263381,-0.5134275151751264 1.400311007165571,-0.5134275151751264 l29.96820417461869,0 c3.1746736147139485,0 6.084294741895494,0.6528034299674462 8.729459005112126,1.9607927841722927 c2.644568639649143,1.3067981070698693 4.9162769260504575,3.0180246164644613 6.815124859203941,5.134870775318752 c1.8982523095859953,2.1156549117193144 3.3765900040925656,4.527930360047924 4.434417459952223,7.235635097850854 c1.0590187029946345,2.70710911423544 1.5879324309244631,5.491649292244391 1.5879324309244631,8.35540740472932 c0,2.8012176378986307 -0.5134275151751264,5.539299177643475 -1.5402825455253792,8.216031489937 c-1.0280462774852301,2.676136688726036 -2.4742202993474187,5.072925924299945 -4.342095806991499,7.188580836019258 c-1.867279884076591,2.1156549117193144 -4.1080157449685,3.8119908319266926 -6.721611959108238,5.087816513487158 c-2.614787461274716,1.2758256815604652 -5.508326752134072,1.914334145908186 -8.682404743280532,1.914334145908186 l-14.284244395510305,0 l0,22.126819908631987 c0,1.368742958088678 -0.715939528121232,2.0531144371330172 -2.146627337228719,2.0531144371330172 l-13.817275518599283,0 c-1.3067981070698693,0 -1.9607927841722927,-0.684371479044339 -1.9607927841722927,-2.0531144371330172 zm28.008007014013888,-52.46848006006599 l-10.08331137401359,0 l0,15.591042502580173 l10.08331137401359,0 c2.3032763354782064,0 4.077043319459095,-0.7933705918947429 5.321300951942668,-2.3801117756842287 c1.2442576324835721,-1.5867411837894858 1.867279884076591,-3.3771856276600545 1.867279884076591,-5.3683552137742625 c0,-0.9333421302545511 -0.17153958743670117,-1.867279884076591 -0.5134275151751264,-2.8012176378986307 c-0.3418879277384253,-0.9333421302545511 -0.8088568046494451,-1.7737669839808896 -1.400311007165571,-2.5206789376115255 c-0.5908585789486374,-0.7469119536306362 -1.3377705325792737,-1.3532567453339759 -2.240735860891909,-1.8202256222449957 c-0.9017740811776582,-0.4669688769110198 -1.9137385223406975,-0.7004533153665298 -3.0335108292191633,-0.7004533153665298 zm35.47653092675276,52.46848006006599 l0,-65.16538764821932 c0,-0.4979413024204242 0.15545775111451052,-0.9649101793314441 0.4663732533435312,-1.4009066307330595 c0.31151112579650947,-0.4348052042666384 0.8088568046494451,-0.6528034299674462 1.4938239072612727,-0.6528034299674462 l30.995059204968943,0 c3.2991589403190544,0 6.301697344028813,0.6688852662896368 9.009402081831741,2.0078470460038877 c2.7083003613704175,1.3377705325792737 5.04195349879054,3.0960513038054605 7.002150659395344,5.274842313678561 c1.9601971606048036,2.177599762738123 3.4695072806207787,4.651820062085542 4.527930360047924,7.422065274474768 c1.0578274558596574,2.7696495888217374 1.5867411837894858,5.616730241416986 1.5867411837894858,8.541837581353235 c0,3.734559768153182 -1.0429368666724437,7.313066161624364 -3.127023729314865,10.736710427548525 c-2.0852781097773985,3.4230486423566724 -4.840037109411923,6.223670656687814 -8.263085751768594,8.402461666560914 l13.350902265255753,24.833929022867427 c0.31151112579650947,0.49734567885293574 0.3734559768153183,0.9649101793314441 0.18643017662391484,1.3997153835980825 c-0.18643017662391484,0.4354008278341269 -0.6218310044580416,0.6533990535349347 -1.3067981070698693,0.6533990535349347 l-16.80373208598685,0 c-0.6849671026118276,0 -1.1835040285997405,-0.12388970203761757 -1.4938239072612727,-0.3734559768153183 c-0.31210674936399796,-0.24897065121021214 -0.6539946771024232,-0.7784800027075294 -1.0280462774852301,-1.5873368073569742 l-11.108975157228866,-21.099369254714244 l-7.468523912738875,0 l0,21.006451978186032 c0,1.368742958088678 -0.6849671026118276,2.0531144371330172 -2.054305684267994,2.0531144371330172 l-14.0037056952232,0 c-1.3067981070698693,0 -1.9607927841722927,-0.684371479044339 -1.9607927841722927,-2.0531144371330172 zm28.381462990829203,-52.84193603688131 l-10.362658827165719,0 l0,16.897840609650043 l10.362658827165719,0 c1.2442576324835721,0 2.3646255629295263,-0.23348443845550992 3.3605081677703748,-0.7004533153665298 c0.9958826048408483,-0.4663732533435312 1.8678755076440796,-1.0887998813690616 2.614787461274716,-1.8666842605091023 c0.7469119536306362,-0.7778843791400408 1.3222843198245715,-1.680849707452676 1.726712722149294,-2.707704737802929 c0.4050240258922111,-1.0274506539177413 0.606940415270828,-2.069196273455208 0.606940415270828,-3.1276193528823533 c0,-0.9958826048408483 -0.20251201294610555,-2.0072514224363993 -0.606940415270828,-3.0341064527866517 c-0.40442840232472266,-1.0274506539177413 -0.9798007685186577,-1.9453065714175901 -1.726712722149294,-2.754163376067036 c-0.7469119536306362,-0.8094524282169336 -1.6189048564338673,-1.4622558581843799 -2.614787461274716,-1.9607927841722927 c-0.9958826048408483,-0.4979413024204242 -2.1156549117193144,-0.7469119536306362 -3.3605081677703748,-0.7469119536306362 zm52.00151118315497,20.258944400987907 c0,2.614191837707227 0.4348052042666384,5.041357875223051 1.3067981070698693,7.28209373611496 c0.870801655668254,2.2401402373244204 2.0840868626424216,4.185446808742011 3.64104686805748,5.8347284671177935 c1.5563643818475699,1.6498772819432717 3.4230486423566724,2.956079765445653 5.601839652229772,3.9215855683445855 c2.177599762738123,0.9649101793314441 4.5428209492351375,1.446769645429678 7.095067935923557,1.446769645429678 c2.5516513631209303,0 4.9162769260504575,-0.4818594660982335 7.095067935923557,-1.446769645429678 c2.1781953863056116,-0.9655058028989327 4.045475270382203,-2.271708286401313 5.601244028662284,-3.9215855683445855 c1.5557687582800817,-1.6492816583757832 2.7696495888217374,-3.5945882297933736 3.6416424916249683,-5.8347284671177935 c0.8713972792357425,-2.240735860891909 1.3067981070698693,-4.667901898407734 1.3067981070698693,-7.28209373611496 c0,-2.5522469866884183 -0.4354008278341269,-4.9478449751273486 -1.3067981070698693,-7.188580836019258 c-0.8719929028032309,-2.240735860891909 -2.0852781097773985,-4.201528645064203 -3.6416424916249683,-5.881782728949389 c-1.5557687582800817,-1.6802540838851874 -3.4230486423566724,-3.0031340272772473 -5.601244028662284,-3.9674485830412034 c-2.1787910098731,-0.9649101793314441 -4.543416572802626,-1.447365268997166 -7.095067935923557,-1.447365268997166 c-2.5522469866884183,0 -4.9174681731854335,0.482455089665722 -7.095067935923557,1.447365268997166 c-2.1787910098731,0.9643145557639557 -4.045475270382203,2.2871944991560156 -5.601839652229772,3.9674485830412034 c-1.5563643818475699,1.6802540838851874 -2.7702452123892263,3.64104686805748 -3.64104686805748,5.881782728949389 c-0.8719929028032309,2.240735860891909 -1.3067981070698693,4.63633384933084 -1.3067981070698693,7.188580836019258 zm-18.018804163663482,0.09351290009570169 c0,-4.979413024204242 0.9339377538220398,-9.631828709857274 2.800622014331142,-13.957842680526582 c1.8678755076440796,-4.325418347101819 4.404040658010308,-8.106436753519107 7.609091074666171,-11.343055219251866 c3.205646040223353,-3.2366184657327577 6.986664446640641,-5.788269828853688 11.343650842819354,-7.655549712930278 c4.356986396178712,-1.867279884076591 8.993320245509553,-2.800622014331142 13.910788418694985,-2.800622014331142 c4.9162769260504575,0 9.53831580976157,0.9333421302545511 13.863734156863389,2.800622014331142 c4.326013970669307,1.867279884076591 8.106436753519107,4.418931247197521 11.343055219251866,7.655549712930278 c3.2366184657327577,3.2366184657327577 5.788269828853688,7.017636872150045 7.655549712930278,11.343055219251866 c1.8678755076440796,4.326013970669307 2.801813261466119,8.978429656322339 2.801813261466119,13.957842680526582 c0,4.916872549617945 -0.9339377538220398,9.53831580976157 -2.801813261466119,13.863734156863389 c-1.867279884076591,4.326013970669307 -4.418931247197521,8.091546164331893 -7.655549712930278,11.296596580987757 c-3.2366184657327577,3.205050416655865 -7.017041248582557,5.741811190589581 -11.343055219251866,7.609091074666171 c-4.325418347101819,1.867279884076591 -8.947457230812935,2.8012176378986307 -13.863734156863389,2.8012176378986307 c-4.9174681731854335,0 -9.553802022516273,-0.9339377538220398 -13.910788418694985,-2.8012176378986307 c-4.356986396178712,-1.867279884076591 -8.138004802595999,-4.404040658010308 -11.343650842819354,-7.609091074666171 c-3.205050416655865,-3.205050416655865 -5.741215567022092,-6.97058261031845 -7.609091074666171,-11.296596580987757 c-1.8666842605091023,-4.325418347101819 -2.800622014331142,-8.946861607245445 -2.800622014331142,-13.863734156863389 zm112.12494533258375,32.395370212134516 l-10.829627704076739,-37.436728087357565 l-3.920989944777097,37.53083661102076 c-0.06254047458629731,1.368742958088678 -0.7469119536306362,2.0531144371330172 -2.0537100607005057,2.0531144371330172 l-13.257389365160053,0 c-1.431879056242464,0 -2.1156549117193144,-0.684371479044339 -2.0537100607005057,-2.0531144371330172 l7.002150659395344,-65.16538764821932 c0.06194485101880877,-1.3693385816561665 0.7463163300631478,-2.0537100607005057 2.0531144371330172,-2.0537100607005057 l16.33795445621081,0 c0.6849671026118276,0 1.1358541432006566,0.17094396386921265 1.3532567453339759,0.5134275151751264 c0.2185938492682963,0.3424835513059138 0.4514826641563177,0.8553154429135517 0.7004533153665298,1.5402825455253792 l12.69631196458584,41.9176041855739 l12.697503211720818,-41.9176041855739 c0.24897065121021214,-0.6849671026118276 0.4818594660982335,-1.1983946177869542 0.6998576917990412,-1.5402825455253792 c0.21799822570080782,-0.34307917487340234 0.6688852662896368,-0.5134275151751264 1.3532567453339759,-0.5134275151751264 l16.33795445621081,0 c1.3067981070698693,0 1.9923608332491858,0.684371479044339 2.0537100607005057,2.0537100607005057 l7.002150659395344,65.16538764821932 c0.06194485101880877,1.368742958088678 -0.6224266280255303,2.0531144371330172 -2.0537100607005057,2.0531144371330172 l-13.257389365160053,0 c-1.3067981070698693,0 -1.9923608332491858,-0.684371479044339 -2.0537100607005057,-2.0531144371330172 l-3.827477044681395,-36.59749448076621 l-10.923736227739928,36.50338595710301 c-0.24897065121021214,0.8719929028032309 -0.5128318916076379,1.447365268997166 -0.7933705918947429,1.7273083457167826 c-0.2799430767196166,0.2805387002871049 -0.7623981663853385,0.41991461507942485 -1.446769645429678,0.41991461507942485 l-11.577135281274863,0 c-0.6837758554768505,0 -1.1823127814647632,-0.13997153835980827 -1.4932282836937842,-0.41991461507942485 c-0.31151112579650947,-0.2799430767196166 -0.5604817770067215,-0.8553154429135517 -0.7469119536306362,-1.7273083457167826 zm60.4033772261484,0.09410852366319027 l0,-65.16538764821932 c0,-1.3693385816561665 0.6539946771024232,-2.0537100607005057 1.9613884077397812,-2.0537100607005057 l14.004301318790688,0 c1.368742958088678,0 2.0531144371330172,0.684371479044339 2.0531144371330172,2.0537100607005057 l0,65.16538764821932 c0,1.368742958088678 -0.684371479044339,2.0531144371330172 -2.0531144371330172,2.0531144371330172 l-14.004301318790688,0 c-1.3067981070698693,0 -1.9613884077397812,-0.684371479044339 -1.9613884077397812,-2.0531144371330172 zm41.545339455893554,-20.259540024555395 c0.559886153439233,0.4354008278341269 1.2448532560510606,1.0113688175955506 2.0537100607005057,1.7273083457167826 c0.8094524282169336,0.715939528121232 1.742794558471485,1.446769645429678 2.800622014331142,2.193681599060314 c1.5563643818475699,1.0584230794271459 3.1282149764498426,1.882766096831293 4.714956160239328,2.4742202993474187 c1.5873368073569742,0.5908585789486374 3.2211322529780553,0.8868834919904446 4.9019819604307315,0.8868834919904446 c3.236022842165269,0 5.429704441225583,-0.6533990535349347 6.58164042074843,-1.9607927841722927 c1.1513403559553588,-1.3067981070698693 1.7273083457167826,-2.832190063408035 1.7273083457167826,-4.574388998312031 c0,-0.9958826048408483 -0.37405160038280677,-1.867279884076591 -1.120963554013443,-2.614191837707227 c-0.7469119536306362,-0.7469119536306362 -1.633795445621081,-1.415797219920273 -2.6606504759713343,-2.0072514224363993 c-1.0268550303502526,-0.5908585789486374 -2.116250535286803,-1.08939550493655 -3.267590891242162,-1.4938239072612727 c-1.1519359795228474,-0.4050240258922111 -2.1627091735509096,-0.7623981663853385 -3.0341064527866517,-1.073909292181848 c-7.531064387325172,-2.614191837707227 -13.148390252309646,-5.694756928757986 -16.851381971385937,-9.242886520287252 c-3.7029917190762887,-3.5475339679617792 -5.554785390398178,-8.059978115255 -5.554785390398178,-13.536736818312178 c0,-2.925107339936248 0.5914542025161259,-5.570271603152879 1.7743626075483778,-7.935492789649894 c1.1823127814647632,-2.365221186497015 2.8470806525952486,-4.388554445255606 4.994303613391456,-6.068212905573303 c2.1472229607962072,-1.680849707452676 4.745928585748733,-2.9721616017678434 7.7949256277225984,-3.8751269300804787 c3.050188289108843,-0.9017740811776582 6.4422645059561106,-1.3532567453339759 10.176228650541804,-1.3532567453339759 c2.8012176378986307,0 5.523812964888773,0.31151112579650947 8.168977228105405,0.9333421302545511 c2.64575988678412,0.6224266280255303 5.212897462659751,1.6498772819432717 7.702603974761873,3.0811607146182465 c2.1156549117193144,1.2448532560510606 3.9525579938539894,2.5206789376115255 5.508326752134072,3.827477044681395 c1.5557687582800817,1.3067981070698693 2.3336531374201224,2.396193612006419 2.3336531374201224,3.267590891242162 c0,0.559886153439233 -0.40442840232472266,1.3067981070698693 -1.213880830541656,2.240735860891909 l-7.188580836019258,7.655549712930278 c-0.49734567885293574,0.49734567885293574 -1.0268550303502526,0.7469119536306362 -1.5873368073569742,0.7469119536306362 c-0.4348052042666384,0 -0.8243430174041473,-0.12448532560510603 -1.1668265687100612,-0.3734559768153183 c-0.34307917487340234,-0.24956627477770074 -0.7314257408759343,-0.559886153439233 -1.1674221922775496,-0.9339377538220398 l-0.4669688769110198,-0.3734559768153183 c-1.2442576324835721,-1.0590187029946345 -2.754163376067036,-2.1007643225321013 -4.527334736480436,-3.1276193528823533 c-1.7737669839808896,-1.0274506539177413 -3.656533080812182,-1.5402825455253792 -5.648298290493878,-1.5402825455253792 c-2.0531144371330172,0 -3.827477044681395,0.3418879277384253 -5.320705328375179,1.0268550303502526 c-1.4938239072612727,0.6849671026118276 -2.240735860891909,1.9298203586628881 -2.240735860891909,3.733964144585693 c0,1.7433901820389732 0.870801655668254,3.0805650910507585 2.614191837707227,4.014502844872799 c1.742794558471485,0.9339377538220398 4.325418347101819,1.9613884077397812 7.748466989458491,3.0805650910507585 c3.2985633167515664,1.120963554013443 6.34815598229292,2.271708286401313 9.149373620191552,3.4546166914335656 c2.8012176378986307,1.1835040285997405 5.212897462659751,2.598705624952525 7.235039474283365,4.2485829068957965 c2.0233332587585897,1.6486860348082946 3.5945882297933736,3.609478818980587 4.714956160239328,5.8811871053819 c1.1203679304459544,2.271708286401313 1.680849707452676,5.025871662468348 1.680849707452676,8.262490128201106 c0,3.4236442659241604 -0.7004533153665298,6.51969556972962 -2.1007643225321013,9.289940782118848 c-1.400311007165571,2.7696495888217374 -3.3140495295062684,5.134870775318752 -5.741811190589581,7.095067935923557 c-2.427166037515824,1.9607927841722927 -5.290328526433263,3.48558911694297 -8.588891843184829,4.574388998312031 c-3.2985633167515664,1.08939550493655 -6.846692908280833,1.633795445621081 -10.642601903885335,1.633795445621081 c-2.427761661083312,0 -4.823955273089732,-0.31151112579650947 -7.189176459586747,-0.9339377538220398 c-2.3646255629295263,-0.6218310044580416 -4.651820062085542,-1.4622558581843799 -6.862179121035535,-2.5206789376115255 c-2.2091678118150164,-1.0578274558596574 -4.2789597088377125,-2.3026807119107175 -6.208184443933113,-3.733964144585693 c-1.9292247350953997,-1.431879056242464 -3.64104686805748,-2.987647814522545 -5.134870775318752,-4.667901898407734 l-0.18702580019140339,-0.09351290009570169 c-0.06194485101880877,-0.12448532560510603 -0.12388970203761757,-0.20251201294610555 -0.18643017662391484,-0.23348443845550992 c-0.06254047458629731,-0.03156804907689294 -0.12448532560510603,-0.07802668734099949 -0.18702580019140339,-0.13997153835980827 c-0.684371479044339,-0.7469119536306362 -1.0268550303502526,-1.3693385816561665 -1.0268550303502526,-1.8678755076440796 c0,-0.49734567885293574 0.3424835513059138,-1.08939550493655 1.0268550303502526,-1.7737669839808896 l8.122518589841299,-7.748466989458491 c0.6224266280255303,-0.4354008278341269 1.1519359795228474,-0.6533990535349347 1.5867411837894858,-0.6533990535349347 c0.49734567885293574,0 1.1519359795228474,0.3734559768153183 1.9607927841722927,1.1203679304459544 zm61.24380207987474,0 c0.559886153439233,0.4354008278341269 1.2448532560510606,1.0113688175955506 2.0537100607005057,1.7273083457167826 c0.8094524282169336,0.715939528121232 1.742794558471485,1.446769645429678 2.8012176378986307,2.193681599060314 c1.5563643818475699,1.0584230794271459 3.1276193528823533,1.882766096831293 4.7143605366718395,2.4742202993474187 c1.5879324309244631,0.5908585789486374 3.2211322529780553,0.8868834919904446 4.9019819604307315,0.8868834919904446 c3.2366184657327577,0 5.429704441225583,-0.6533990535349347 6.58164042074843,-1.9607927841722927 c1.1513403559553588,-1.3067981070698693 1.7273083457167826,-2.832190063408035 1.7273083457167826,-4.574388998312031 c0,-0.9958826048408483 -0.37405160038280677,-1.867279884076591 -1.120963554013443,-2.614191837707227 c-0.7469119536306362,-0.7469119536306362 -1.6331998220535924,-1.415797219920273 -2.6606504759713343,-2.0072514224363993 c-1.0268550303502526,-0.5908585789486374 -2.116250535286803,-1.08939550493655 -3.267590891242162,-1.4938239072612727 c-1.1519359795228474,-0.4050240258922111 -2.1627091735509096,-0.7623981663853385 -3.0335108292191633,-1.073909292181848 c-7.531660010892661,-2.614191837707227 -13.148985875877134,-5.694756928757986 -16.851381971385937,-9.242886520287252 c-3.7035873426437775,-3.5475339679617792 -5.554785390398178,-8.059978115255 -5.554785390398178,-13.536736818312178 c0,-2.925107339936248 0.5908585789486374,-5.570271603152879 1.7737669839808896,-7.935492789649894 c1.1823127814647632,-2.365221186497015 2.8470806525952486,-4.388554445255606 4.994303613391456,-6.068212905573303 c2.1472229607962072,-1.680849707452676 4.745928585748733,-2.9721616017678434 7.795521251290086,-3.8751269300804787 c3.050188289108843,-0.9017740811776582 6.441668882388622,-1.3532567453339759 10.176228650541804,-1.3532567453339759 c2.800622014331142,0 5.523812964888773,0.31151112579650947 8.168381604537915,0.9333421302545511 c2.64575988678412,0.6224266280255303 5.21349308622724,1.6498772819432717 7.703199598329363,3.0811607146182465 c2.1156549117193144,1.2448532560510606 3.9519623702865005,2.5206789376115255 5.507731128566583,3.827477044681395 c1.5557687582800817,1.3067981070698693 2.3336531374201224,2.396193612006419 2.3336531374201224,3.267590891242162 c0,0.559886153439233 -0.40442840232472266,1.3067981070698693 -1.213880830541656,2.240735860891909 l-7.18798521245177,7.655549712930278 c-0.4979413024204242,0.49734567885293574 -1.0274506539177413,0.7469119536306362 -1.5879324309244631,0.7469119536306362 c-0.4348052042666384,0 -0.8243430174041473,-0.12448532560510603 -1.1668265687100612,-0.3734559768153183 c-0.3424835513059138,-0.24956627477770074 -0.7314257408759343,-0.559886153439233 -1.1674221922775496,-0.9339377538220398 l-0.4663732533435312,-0.3734559768153183 c-1.2448532560510606,-1.0590187029946345 -2.754758999634524,-2.1007643225321013 -4.527930360047924,-3.1276193528823533 c-1.7737669839808896,-1.0274506539177413 -3.656533080812182,-1.5402825455253792 -5.64770266692639,-1.5402825455253792 c-2.0537100607005057,0 -3.827477044681395,0.3418879277384253 -5.321300951942668,1.0268550303502526 c-1.4938239072612727,0.6849671026118276 -2.240735860891909,1.9298203586628881 -2.240735860891909,3.733964144585693 c0,1.7433901820389732 0.8713972792357425,3.0805650910507585 2.614191837707227,4.014502844872799 c1.742794558471485,0.9339377538220398 4.325418347101819,1.9613884077397812 7.748466989458491,3.0805650910507585 c3.2991589403190544,1.120963554013443 6.34815598229292,2.271708286401313 9.149373620191552,3.4546166914335656 c2.801813261466119,1.1835040285997405 5.212897462659751,2.598705624952525 7.235635097850854,4.2485829068957965 c2.0227376351911013,1.6486860348082946 3.593992606225885,3.609478818980587 4.7143605366718395,5.8811871053819 c1.1203679304459544,2.271708286401313 1.680849707452676,5.025871662468348 1.680849707452676,8.262490128201106 c0,3.4236442659241604 -0.7004533153665298,6.51969556972962 -2.1007643225321013,9.289940782118848 c-1.3997153835980825,2.7696495888217374 -3.3140495295062684,5.134870775318752 -5.741811190589581,7.095067935923557 c-2.4265704139483355,1.9607927841722927 -5.289732902865775,3.48558911694297 -8.588891843184829,4.574388998312031 c-3.2985633167515664,1.08939550493655 -6.846097284713345,1.633795445621081 -10.642601903885335,1.633795445621081 c-2.427761661083312,0 -4.823359649522244,-0.31151112579650947 -7.189176459586747,-0.9339377538220398 c-2.3646255629295263,-0.6218310044580416 -4.651820062085542,-1.4622558581843799 -6.861583497468047,-2.5206789376115255 c-2.209763435382505,-1.0578274558596574 -4.2795553324052005,-2.3026807119107175 -6.208780067500601,-3.733964144585693 c-1.9292247350953997,-1.431879056242464 -3.64104686805748,-2.987647814522545 -5.134275151751265,-4.667901898407734 l-0.18702580019140339,-0.09351290009570169 c-0.06254047458629731,-0.12448532560510603 -0.12448532560510603,-0.20251201294610555 -0.18643017662391484,-0.23348443845550992 c-0.06313609815378586,-0.03156804907689294 -0.12508094917259463,-0.07802668734099949 -0.18702580019140339,-0.13997153835980827 c-0.6849671026118276,-0.7469119536306362 -1.0274506539177413,-1.3693385816561665 -1.0274506539177413,-1.8678755076440796 c0,-0.49734567885293574 0.3424835513059138,-1.08939550493655 1.0274506539177413,-1.7737669839808896 l8.12192296627381,-7.748466989458491 c0.6224266280255303,-0.4354008278341269 1.1519359795228474,-0.6533990535349347 1.5867411837894858,-0.6533990535349347 c0.4979413024204242,0 1.1519359795228474,0.3734559768153183 1.9607927841722927,1.1203679304459544 zm47.14658348455583,20.259540024555395 l25.300897899778445,-65.16538764821932 c0.559886153439233,-1.3693385816561665 1.5247963327706773,-2.0537100607005057 2.893539290859356,-2.0537100607005057 l11.39010948108346,0 c1.4312834326749755,0 2.365221186497015,0.684371479044339 2.8012176378986307,2.0537100607005057 l25.487328076402363,65.16538764821932 c0.559886153439233,1.368742958088678 0.12448532560510603,2.0531144371330172 -1.3067981070698693,2.0531144371330172 l-13.910788418694985,0 c-1.368742958088678,0 -2.271708286401313,-0.684371479044339 -2.70710911423544,-2.0531144371330172 l-16.151524279586894,-45.37281650057495 l-15.778068302771574,45.37281650057495 c-0.4354008278341269,1.368742958088678 -1.3693385816561665,2.0531144371330172 -2.800622014331142,2.0531144371330172 l-13.911384042262473,0 c-1.4306878091074868,0 -1.867279884076591,-0.684371479044339 -1.3067981070698693,-2.0531144371330172 zm23.43302239213437,-76.92895310611809 c-0.49734567885293574,0.6849671026118276 -1.0733136686143596,0.7784800027075294 -1.7273083457167826,0.2805387002871049 c-0.6528034299674462,-0.4979413024204242 -1.1668265687100612,-0.9333421302545511 -1.5402825455253792,-1.3067981070698693 l-2.987052190955057,-2.893539290859356 c-0.8713972792357425,-0.8719929028032309 -1.2603394688057628,-1.447365268997166 -1.1668265687100612,-1.7273083457167826 c0.09291727652821315,-0.2799430767196166 0.4818594660982335,-0.9494239665767419 1.1668265687100612,-2.0072514224363993 c1.2442576324835721,-1.8678755076440796 2.7851358015764394,-3.3307269893959477 4.621443260143626,-4.388554445255606 c1.8363074585671864,-1.0584230794271459 3.781018406417288,-1.5873368073569742 5.8347284671177935,-1.5873368073569742 c1.1835040285997405,0 2.3497349737423128,0.24956627477770074 3.50167095326516,0.7469119536306362 c1.1513403559553588,0.4979413024204242 2.2401402373244204,1.0429368666724437 3.267590891242162,1.633795445621081 c1.0268550303502526,0.5914542025161259 1.9762789969269947,1.120963554013443 2.8470806525952486,1.5873368073569742 c0.8713972792357425,0.4663732533435312 1.6183092328663788,0.7004533153665298 2.2401402373244204,0.7004533153665298 c0.8719929028032309,0 1.5247963327706773,-0.20251201294610555 1.9607927841722927,-0.606940415270828 c0.4359964514016156,-0.4056196494596997 0.9964782284083369,-1.0119644411630393 1.680849707452676,-1.8208212458124842 c0.559886153439233,-0.7469119536306362 1.1358541432006566,-1.08939550493655 1.726712722149294,-1.0268550303502526 c0.5914542025161259,0.06194485101880877 1.136449766768145,0.3418879277384253 1.6343910691885697,0.8398292301588495 l4.2944459215924145,4.2944459215924145 c0.3734559768153183,0.37405160038280677 0.5443999406845307,0.7469119536306362 0.5134275151751264,1.120963554013443 c-0.030972425509404378,0.3734559768153183 -0.10899911285040392,0.6533990535349347 -0.23348443845550992,0.8404248537263381 c-1.431879056242464,2.1156549117193144 -3.1121331401276513,3.7804227828498 -5.04195349879054,4.994899236958944 c-1.9298203586628881,1.213880830541656 -4.0764476958916065,1.8202256222449957 -6.441668882388622,1.8202256222449957 c-1.2442576324835721,0 -2.411679824761122,-0.24897065121021214 -3.501075329697672,-0.7469119536306362 c-1.08939550493655,-0.49734567885293574 -2.116250535286803,-1.0268550303502526 -3.0811607146182465,-1.5867411837894858 c-0.9649101793314441,-0.559886153439233 -1.8821704732638045,-1.0899911285040387 -2.754163376067036,-1.5873368073569742 c-0.8713972792357425,-0.49734567885293574 -1.711226509394592,-0.7463163300631478 -2.5206789376115255,-0.7463163300631478 c-1.1823127814647632,0 -2.0537100607005057,0.3579697640606161 -2.614191837707227,1.0733136686143596 c-0.559886153439233,0.715939528121232 -1.1203679304459544,1.415797219920273 -1.680849707452676,2.100168698964612 zm61.15148042691401,44.345961470224694 c0,2.614191837707227 0.4354008278341269,5.041357875223051 1.3067981070698693,7.28209373611496 c0.8713972792357425,2.2401402373244204 2.08468248620991,4.185446808742011 3.64104686805748,5.8347284671177935 c1.5563643818475699,1.6498772819432717 3.4236442659241604,2.956079765445653 5.601839652229772,3.9215855683445855 c2.1781953863056116,0.9649101793314441 4.543416572802626,1.446769645429678 7.095067935923557,1.446769645429678 c2.5522469866884183,0 4.916872549617945,-0.4818594660982335 7.095067935923557,-1.446769645429678 c2.1787910098731,-0.9655058028989327 4.045475270382203,-2.271708286401313 5.601839652229772,-3.9215855683445855 c1.5557687582800817,-1.6492816583757832 2.7696495888217374,-3.5945882297933736 3.64104686805748,-5.8347284671177935 c0.8713972792357425,-2.240735860891909 1.3067981070698693,-4.667901898407734 1.3067981070698693,-7.28209373611496 c0,-2.5522469866884183 -0.4354008278341269,-4.9478449751273486 -1.3067981070698693,-7.188580836019258 c-0.8713972792357425,-2.240735860891909 -2.08468248620991,-4.201528645064203 -3.64104686805748,-5.881782728949389 c-1.5563643818475699,-1.6802540838851874 -3.4230486423566724,-3.0031340272772473 -5.601839652229772,-3.9674485830412034 c-2.1781953863056116,-0.9649101793314441 -4.5428209492351375,-1.447365268997166 -7.095067935923557,-1.447365268997166 c-2.5516513631209303,0 -4.916872549617945,0.482455089665722 -7.095067935923557,1.447365268997166 c-2.1781953863056116,0.9643145557639557 -4.045475270382203,2.2871944991560156 -5.601839652229772,3.9674485830412034 c-1.5557687582800817,1.6802540838851874 -2.7696495888217374,3.64104686805748 -3.64104686805748,5.881782728949389 c-0.8713972792357425,2.240735860891909 -1.3067981070698693,4.63633384933084 -1.3067981070698693,7.188580836019258 zm-18.018804163663482,0.09351290009570169 c0,-4.979413024204242 0.9339377538220398,-9.631828709857274 2.8012176378986307,-13.957842680526582 c1.8678755076440796,-4.325418347101819 4.404040658010308,-8.106436753519107 7.609091074666171,-11.343055219251866 c3.205050416655865,-3.2366184657327577 6.986068823073154,-5.788269828853688 11.343650842819354,-7.655549712930278 c4.356390772611223,-1.867279884076591 8.993320245509553,-2.800622014331142 13.910192795127495,-2.800622014331142 c4.916872549617945,0 9.53831580976157,0.9333421302545511 13.864329780430879,2.800622014331142 c4.325418347101819,1.867279884076591 8.106436753519107,4.418931247197521 11.343055219251866,7.655549712930278 c3.2366184657327577,3.2366184657327577 5.788269828853688,7.017636872150045 7.655549712930278,11.343055219251866 c1.867279884076591,4.326013970669307 2.8012176378986307,8.978429656322339 2.8012176378986307,13.957842680526582 c0,4.916872549617945 -0.9339377538220398,9.53831580976157 -2.8012176378986307,13.863734156863389 c-1.867279884076591,4.326013970669307 -4.418931247197521,8.091546164331893 -7.655549712930278,11.296596580987757 c-3.2366184657327577,3.205050416655865 -7.017636872150045,5.741811190589581 -11.343055219251866,7.609091074666171 c-4.326013970669307,1.867279884076591 -8.947457230812935,2.8012176378986307 -13.864329780430879,2.8012176378986307 c-4.916872549617945,0 -9.553802022516273,-0.9339377538220398 -13.910192795127495,-2.8012176378986307 c-4.3575820197462,-1.867279884076591 -8.138600426163487,-4.404040658010308 -11.343650842819354,-7.609091074666171 c-3.205050416655865,-3.205050416655865 -5.741215567022092,-6.97058261031845 -7.609091074666171,-11.296596580987757 c-1.867279884076591,-4.325418347101819 -2.8012176378986307,-8.946861607245445 -2.8012176378986307,-13.863734156863389 z"/>
</svg>