<?xml version="1.0" encoding="UTF-8"?>
<!DOCTYPE svg PUBLIC "-//W3C//DTD SVG 1.1//EN" "http://www.w3.org/Graphics/SVG/1.1/DTD/svg11.dtd">
<svg xmlns="http://www.w3.org/2000/svg" xml:space="preserve" width="799px" height="188px" version="1.1" style="shape-rendering:geometricPrecision; text-rendering:geometricPrecision; image-rendering:optimizeQuality; fill-rule:evenodd; clip-rule:evenodd"
viewBox="0 0 798.14 187.71"
 xmlns:xlink="http://www.w3.org/1999/xlink">
 <g fill="#FFFFFF">
  <path d="M93.85 0c-51.83,0 -93.85,42.02 -93.85,93.85 0,51.83 42.02,93.86 93.85,93.86 51.83,0 93.86,-42.03 93.86,-93.9 -0.02,-51.82 -42.04,-93.81 -93.86,-93.81zm0 16.53c-42.7,0 -77.32,34.62 -77.32,77.32 0,42.7 34.62,77.33 77.32,77.33 42.7,0 77.33,-34.63 77.33,-77.36 -0.02,-42.7 -34.64,-77.29 -77.33,-77.29z"/>
  <path d="M152.52 98.74c-5.23,12.44 -17.41,20.54 -30.91,20.54 -0.02,0 -0.05,0 -0.07,0 -1.59,0 -3.19,-0.11 -4.76,-0.33l-2.06 -0.37 -2.09 -0.53c-3.44,-0.9 -6.73,-2.35 -9.7,-4.31 -0.99,-0.67 -1.96,-1.38 -2.87,-2.14 0.11,0.77 0.33,1.52 0.65,2.22l0 0c0.46,0.96 0.7,2.01 0.7,3.08 0,0.99 -0.2,1.96 -0.57,2.88l0 0.28c-0.25,0.58 -0.54,1.19 -0.82,1.73 -1.66,3.48 -3.69,6.8 -6.04,9.86 -2.36,-3.07 -4.41,-6.38 -6.09,-9.86l-0.98 -1.85 0 0c-0.38,-0.92 -0.57,-1.91 -0.57,-2.91 0,0 0,-0.01 0,-0.01 0,-1 0.2,-1.99 0.57,-2.91 0.35,-0.78 0.6,-1.59 0.74,-2.43 -0.93,0.77 -1.9,1.49 -2.92,2.14 -2.94,1.97 -6.19,3.46 -9.61,4.39l-2.09 0.54 -2.1 0.37c-1.56,0.21 -3.14,0.32 -4.72,0.33 -0.01,0 -0.02,0 -0.03,0 -13.51,0 -25.73,-8.1 -30.99,-20.55 -0.04,-0.07 -0.05,-0.15 -0.05,-0.24 0,-0.32 0.25,-0.58 0.57,-0.58 0.01,0 0.01,0 0.02,0l52 0.01 0 -13.19c0,-0.01 0,-0.03 0,-0.04 0,-2.63 -0.21,-5.26 -0.61,-7.85 -0.38,-2.38 -0.93,-4.73 -1.65,-7.02 -1.4,-4.59 -3.5,-8.97 -6.2,-12.94 -0.03,-0.06 -0.04,-0.12 -0.04,-0.18 0,-0.2 0.16,-0.37 0.37,-0.37 0.03,0 0.05,0.01 0.08,0.01 2.35,0.71 4.68,1.6 6.91,2.63l1.19 0.57 1.15 0.58c1.12,0.54 2.23,1.14 3.28,1.81 0.49,0.3 1.05,0.45 1.62,0.45 0.58,0 1.14,-0.15 1.63,-0.45 1.11,-0.7 2.17,-1.32 3.32,-1.85l1.15 -0.58 1.2 -0.57c2.25,-1.02 4.58,-1.91 6.94,-2.63 0.03,-0.01 0.05,-0.01 0.08,-0.01 0.21,0 0.37,0.17 0.37,0.37 0,0.06 -0.01,0.12 -0.04,0.17 -2.69,3.99 -4.8,8.36 -6.25,12.95 -1.46,4.81 -2.23,9.83 -2.26,14.87l0 13.02 52.01 0c0.02,0 0.05,-0.01 0.07,-0.01 0.32,0 0.57,0.26 0.57,0.58 0,0.12 -0.03,0.24 -0.1,0.33l0 0z"/>
  <g>
   <path d="M226.95 24.01c0.01,-0.02 0,-0.04 0,-0.05 0,-0.58 0.23,-1.14 0.62,-1.56 0.42,-0.42 0.99,-0.65 1.58,-0.65 0.04,0 0.07,0 0.11,0l15.11 0c0.58,0.01 1.14,0.23 1.56,0.61 0.49,0.41 0.77,1.01 0.79,1.65l-0.01 55.58 28.1 0c0.01,0 0.02,0 0.03,0 0.57,0 1.12,0.22 1.54,0.61 0.42,0.41 0.66,0.98 0.66,1.57 0,0.04 -0.01,0.08 -0.01,0.12l0 13.43c0,0.01 0,0.02 0,0.04 0,0.57 -0.2,1.13 -0.57,1.56 -0.41,0.5 -1.01,0.78 -1.65,0.78l-45.6 0.01c-0.1,0.01 -0.2,0.02 -0.31,0.02 -1.09,0 -1.97,-0.88 -1.97,-1.97 0,-0.11 0.01,-0.21 0.03,-0.31l-0.01 -71.44z"/>
   <path d="M333.27 26.18l-1.27 -2.91c-0.27,-0.35 -0.57,-0.66 -0.91,-0.95 -0.4,-0.34 -0.91,-0.53 -1.44,-0.53 -0.01,0 -0.02,0 -0.03,0l-13.07 0c-0.14,-0.03 -0.28,-0.04 -0.43,-0.04 -0.14,0 -0.29,0.01 -0.43,0.04 -0.31,0.12 -0.6,0.29 -0.86,0.49 -0.26,0.19 -0.5,0.41 -0.7,0.66 -0.16,0.19 -0.28,0.41 -0.33,0.66l-27.77 72.13c-0.12,0.19 -0.19,0.42 -0.19,0.64 0,0.34 0.15,0.66 0.39,0.88 0.44,0.32 0.96,0.5 1.5,0.5 0.04,0 0.07,0 0.11,0l15.07 0c0.05,0 0.09,0 0.13,0 1.15,0 2.17,-0.78 2.46,-1.89l1.97 -5.18 1.98 -5.18c0,0 10.96,-32.12 11.62,-34.13 0.66,-2.02 1.32,-3.87 1.97,-5.63 0,0 14.83,43.21 15.49,44.94 0.66,1.72 1.31,3.45 2.01,5.18 0.17,0.57 0.51,1.07 0.99,1.43 0.5,0.3 1.07,0.46 1.65,0.46 0.05,0 0.1,0 0.16,0l14.66 0c0.08,0 0.15,0.01 0.23,0.01 0.63,0 1.24,-0.24 1.7,-0.67 0.17,-0.24 0.25,-0.53 0.25,-0.82 0,-0.3 -0.08,-0.58 -0.25,-0.82l-26.66 -69.27z"/>
   <path d="M771.23 26.18l-1.27 -2.91c-0.27,-0.35 -0.57,-0.66 -0.91,-0.95 -0.4,-0.34 -0.91,-0.53 -1.44,-0.53 -0.01,0 -0.02,0 -0.03,0l-13.11 0c-0.14,-0.03 -0.29,-0.04 -0.43,-0.04 -0.14,0 -0.29,0.01 -0.43,0.04 -0.61,0.24 -1.15,0.64 -1.56,1.15 -0.17,0.19 -0.28,0.41 -0.33,0.66l-27.73 72.13c-0.12,0.19 -0.19,0.42 -0.19,0.64 0,0.34 0.15,0.66 0.4,0.88 0.43,0.32 0.95,0.5 1.49,0.5 0.04,0 0.07,0 0.11,0l15.07 0c0.05,0 0.09,0 0.13,0 1.16,0 2.17,-0.78 2.46,-1.89l1.97 -5.18 1.98 -5.18c0,0 10.96,-32.12 11.62,-34.13 0.66,-2.02 1.32,-3.87 1.97,-5.63 0,0 14.83,43.21 15.49,44.94 0.66,1.72 1.32,3.45 2.01,5.18 0.17,0.57 0.51,1.07 0.99,1.43 0.5,0.3 1.07,0.46 1.65,0.46 0.05,0 0.1,0 0.16,0l14.66 0c0.08,0 0.15,0.01 0.23,0.01 0.63,0 1.24,-0.24 1.7,-0.67 0.17,-0.24 0.25,-0.53 0.25,-0.82 0,-0.3 -0.08,-0.58 -0.25,-0.82l-26.66 -69.27z"/>
   <g>
    <path d="M412.02 43.19c-1.7,-1.21 -3.57,-2.18 -5.54,-2.87 -2,-0.68 -4.11,-1.03 -6.23,-1.03 -0.03,0 -0.07,0 -0.1,0 -0.05,0 -0.11,0 -0.17,0 -5.17,0 -10.1,2.18 -13.59,6 -1.76,1.86 -3.16,4.06 -4.11,6.45 -0.95,2.48 -1.44,5.12 -1.44,7.78 0,0.04 0,0.07 0,0.1 0,0.05 0,0.09 0,0.14 0,2.65 0.49,5.28 1.44,7.75 0.95,2.38 2.34,4.56 4.11,6.41 1.69,1.83 3.76,3.3 6.04,4.31 2.38,1.06 4.97,1.61 7.58,1.61 0.06,0 0.12,0 0.18,0 0.03,-0.01 0.07,-0.01 0.1,-0.01 1.16,0 2.33,-0.08 3.48,-0.24l3.73 -0.66 0 -13.39c0,-0.02 0,-0.04 0,-0.07 0,-0.56 0.21,-1.11 0.58,-1.53 0.4,-0.43 0.96,-0.67 1.55,-0.67 0.04,0 0.09,0.01 0.13,0.01l13.89 0c0.6,0.03 1.17,0.24 1.64,0.61 0.54,0.35 0.87,0.95 0.87,1.59 0,0.02 0,0.04 -0.01,0.06l0 24.65c-0.02,0.97 -0.59,1.85 -1.47,2.26 -1.66,1.11 -3.45,2.05 -5.31,2.79 -1.96,0.79 -4.01,1.44 -6.08,1.93 -2.1,0.51 -4.26,0.89 -6.4,1.15 -2.08,0.25 -4.19,0.37 -6.29,0.37 -0.01,0 -0.02,0 -0.04,0 -0.05,0 -0.11,0 -0.16,0 -6.87,0 -13.62,-1.83 -19.55,-5.3 -2.89,-1.61 -5.58,-3.59 -7.98,-5.87 -2.38,-2.46 -4.44,-5.23 -6.12,-8.22 -1.77,-2.89 -3.16,-6.03 -4.1,-9.28 -0.9,-3.32 -1.35,-6.75 -1.35,-10.19 0,-7.02 1.88,-13.93 5.45,-19.97 1.7,-2.88 3.76,-5.55 6.12,-7.93 2.35,-2.34 5.01,-4.38 7.89,-6.04 2.92,-1.75 6.06,-3.14 9.33,-4.1 3.39,-0.92 6.9,-1.39 10.41,-1.39 3.92,0 7.82,0.58 11.56,1.72 3.62,1.14 7.08,2.8 10.23,4.93 0.56,0.32 1.01,0.79 1.32,1.35 0.18,0.29 0.27,0.63 0.27,0.97 0,0.34 -0.09,0.67 -0.27,0.96l-8.22 11.96c-0.34,0.47 -0.79,0.85 -1.31,1.11 -0.16,0.03 -0.32,0.05 -0.47,0.05 -0.5,0 -0.97,-0.18 -1.34,-0.51l-0.25 0.25zm0 0l0 0 0 0z"/>
   </g>
   <g>
    <path d="M457.13 59.75c0,0.05 0,0.1 0,0.16 0,2.65 0.49,5.29 1.44,7.76 0.93,2.39 2.33,4.57 4.11,6.41 1.73,1.76 3.8,3.16 6.08,4.11 2.45,1.03 5.1,1.56 7.76,1.56 2.66,0 5.31,-0.53 7.76,-1.56 2.3,-0.94 4.38,-2.34 6.12,-4.11 1.78,-1.84 3.18,-4.02 4.11,-6.41 0.95,-2.52 1.44,-5.2 1.44,-7.9 0,-2.7 -0.49,-5.38 -1.44,-7.91 -0.93,-2.39 -2.33,-4.59 -4.1,-6.45 -3.67,-3.83 -8.74,-6 -14.04,-6 -2.69,0 -5.36,0.56 -7.82,1.64 -2.29,1.04 -4.37,2.52 -6.08,4.36 -1.77,1.86 -3.18,4.06 -4.11,6.45 -0.95,2.48 -1.44,5.12 -1.44,7.78 0,0.03 0,0.07 0,0.11l0.21 0zm-19.97 0c0,-0.03 0,-0.06 0,-0.08 0,-3.49 0.48,-6.96 1.4,-10.32 1.8,-6.53 5.28,-12.5 10.06,-17.29 2.4,-2.4 5.12,-4.49 8.06,-6.17 2.91,-1.75 6.06,-3.14 9.32,-4.1 3.38,-0.93 6.89,-1.4 10.4,-1.4 3.51,0 7.01,0.47 10.39,1.4 3.28,0.96 6.43,2.35 9.36,4.11 5.83,3.38 10.67,8.23 14.05,14.04 1.77,2.94 3.15,6.09 4.11,9.37 0.93,3.38 1.41,6.88 1.41,10.39 0,3.52 -0.48,7.02 -1.41,10.4 -0.95,3.26 -2.34,6.38 -4.1,9.28 -1.67,2.97 -3.74,5.71 -6.12,8.14 -2.38,2.36 -5.05,4.42 -7.94,6.12 -2.91,1.78 -6.08,3.17 -9.36,4.11 -3.38,0.91 -6.88,1.38 -10.39,1.38 -3.51,0 -7.02,-0.47 -10.4,-1.38 -3.27,-0.95 -6.41,-2.34 -9.32,-4.11 -5.82,-3.49 -10.65,-8.45 -14.01,-14.34 -3.47,-5.89 -5.3,-12.62 -5.3,-19.46 0,-0.07 0,-0.15 0,-0.22l-0.21 0.13zm0 0l0 0 0 0z"/>
   </g>
   <path d="M528.2 24.05c0,-0.02 0,-0.03 0,-0.05 0,-0.57 0.2,-1.12 0.57,-1.55 0.39,-0.43 0.94,-0.67 1.52,-0.67 0.05,0 0.11,0 0.17,0.01l14.99 0c0.6,0.03 1.17,0.25 1.65,0.61 0.53,0.35 0.86,0.95 0.86,1.59 0,0.02 0,0.04 0,0.06l0 71.35c0,1.48 -0.86,2.26 -2.51,2.26l-14.99 0c-0.1,0.02 -0.21,0.03 -0.31,0.03 -1.09,0 -1.98,-0.88 -1.98,-1.97 0,-0.11 0.01,-0.21 0.03,-0.32l0 -71.35z"/>
   <path d="M564.64 24.05c0,-0.02 0,-0.03 0,-0.05 0,-0.57 0.2,-1.12 0.57,-1.55 0.39,-0.43 0.94,-0.67 1.52,-0.67 0.05,0 0.11,0 0.17,0.01l16.68 0c0.51,0.01 1.01,0.14 1.47,0.37 0.55,0.28 1.01,0.7 1.32,1.23 4.33,6.98 8.61,13.83 12.86,20.54l12.94 20.54 0 -41.08c0.1,-0.56 0.39,-1.07 0.82,-1.44 0.4,-0.34 0.9,-0.53 1.43,-0.53 0,0 0,0 0.01,0l14.54 0c0.03,0 0.06,0 0.09,0 0.61,0 1.2,0.2 1.68,0.57 0.44,0.39 0.7,0.94 0.7,1.53 0,0.04 0,0.08 -0.01,0.12l0 72.09c0.01,0.05 0.01,0.11 0.01,0.16 0,0.52 -0.23,1.02 -0.62,1.36 -0.45,0.33 -0.99,0.5 -1.54,0.5 -0.05,0 -0.1,0 -0.15,0l-16.43 0c0,0 -0.01,0 -0.01,0 -0.43,0 -0.86,-0.17 -1.18,-0.46 -0.4,-0.37 -0.76,-0.78 -1.07,-1.23l-13.43 -22.22 -13.43 -22.31 0 43.87c0,0.06 0,0.11 0,0.16 0,0.56 -0.19,1.1 -0.54,1.53 -0.44,0.38 -1,0.59 -1.58,0.59 -0.09,0 -0.18,-0.01 -0.27,-0.02l-14.5 0c-0.06,0.01 -0.12,0.01 -0.18,0.01 -0.58,0 -1.14,-0.24 -1.54,-0.66 -0.35,-0.42 -0.54,-0.95 -0.54,-1.49 0,-0.03 0,-0.05 0,-0.07l0.21 -71.4z"/>
   <path d="M648.36 24.05c0.03,-0.58 0.26,-1.14 0.66,-1.56 0.36,-0.45 0.91,-0.7 1.48,-0.7 0.03,0 0.05,0 0.08,0l15.16 0c0.58,0.04 1.13,0.27 1.56,0.66 0.51,0.37 0.82,0.96 0.82,1.6 0,0 0,0 0,0l0 24.28 25.39 0 0 -24.28c0,-0.02 0,-0.03 0,-0.04 0,-1.23 0.99,-2.22 2.22,-2.22 0.02,0 0.05,0 0.08,0l15.12 0c0,0 0.01,0 0.02,0 0.62,0 1.23,0.18 1.74,0.53 0.49,0.34 0.79,0.9 0.79,1.49 0,0.06 0,0.11 -0.01,0.16l0 71.48c0.01,0.05 0.01,0.1 0.01,0.15 0,0.58 -0.24,1.13 -0.66,1.53 -0.47,0.37 -1.05,0.58 -1.65,0.58 -0.02,0 -0.05,0 -0.08,-0.01l-15.08 0.01c-0.02,-0.01 -0.05,0 -0.07,0 -0.58,0 -1.13,-0.21 -1.57,-0.58 -0.42,-0.4 -0.66,-0.96 -0.66,-1.55 0,-0.04 0,-0.09 0,-0.13l0 -29.05 -25.38 0 0 29c0,0.04 0,0.07 0,0.1 0,0.59 -0.26,1.16 -0.7,1.55 -0.49,0.37 -1.08,0.58 -1.69,0.58 -0.06,0 -0.11,0 -0.16,-0.01l-15.24 0c-1.44,0 -2.18,-0.65 -2.18,-2.01l0 -71.56z"/>
  </g>
  <path d="M226.93 172.89l0 -44.85c0,-0.47 0.13,-0.82 0.39,-1.06 0.25,-0.24 0.57,-0.35 0.96,-0.35l20.63 0c2.18,0 4.19,0.45 6.01,1.35 1.82,0.9 3.38,2.07 4.69,3.53 1.3,1.46 2.32,3.12 3.05,4.98 0.73,1.86 1.09,3.78 1.09,5.75 0,1.93 -0.35,3.81 -1.06,5.66 -0.71,1.84 -1.7,3.49 -2.99,4.94 -1.28,1.46 -2.82,2.63 -4.62,3.51 -1.8,0.87 -3.79,1.31 -5.98,1.31l-9.83 0 0 15.23c0,0.95 -0.49,1.42 -1.48,1.42l-9.51 0c-0.9,0 -1.35,-0.47 -1.35,-1.42zm19.28 -36.11l-6.94 0 0 10.73 6.94 0c1.58,0 2.8,-0.55 3.66,-1.64 0.86,-1.09 1.29,-2.32 1.29,-3.69 0,-0.65 -0.12,-1.29 -0.36,-1.93 -0.23,-0.64 -0.55,-1.22 -0.96,-1.74 -0.41,-0.51 -0.92,-0.93 -1.54,-1.25 -0.62,-0.32 -1.32,-0.48 -2.09,-0.48zm24.42 36.11l0 -44.85c0,-0.34 0.1,-0.66 0.32,-0.96 0.21,-0.3 0.56,-0.45 1.03,-0.45l21.33 0c2.27,0 4.34,0.46 6.2,1.38 1.87,0.92 3.47,2.13 4.82,3.63 1.35,1.5 2.39,3.2 3.12,5.11 0.73,1.9 1.09,3.86 1.09,5.88 0,2.57 -0.72,5.03 -2.15,7.39 -1.44,2.35 -3.33,4.28 -5.69,5.78l9.19 17.09c0.21,0.35 0.26,0.67 0.13,0.97 -0.13,0.3 -0.43,0.45 -0.9,0.45l-11.57 0c-0.47,0 -0.81,-0.09 -1.03,-0.26 -0.21,-0.17 -0.45,-0.54 -0.7,-1.09l-7.65 -14.52 -5.14 0 0 14.45c0,0.95 -0.47,1.42 -1.41,1.42l-9.64 0c-0.9,0 -1.35,-0.47 -1.35,-1.42zm19.53 -36.37l-7.13 0 0 11.63 7.13 0c0.86,0 1.63,-0.16 2.32,-0.48 0.68,-0.32 1.28,-0.75 1.8,-1.28 0.51,-0.54 0.91,-1.16 1.18,-1.87 0.28,-0.7 0.42,-1.42 0.42,-2.15 0,-0.69 -0.14,-1.38 -0.42,-2.09 -0.27,-0.71 -0.67,-1.34 -1.18,-1.89 -0.52,-0.56 -1.12,-1.01 -1.8,-1.35 -0.69,-0.35 -1.46,-0.52 -2.32,-0.52zm35.8 13.95c0,1.8 0.3,3.47 0.9,5.01 0.59,1.54 1.43,2.88 2.5,4.02 1.07,1.13 2.36,2.03 3.86,2.69 1.5,0.67 3.12,1 4.88,1 1.76,0 3.39,-0.33 4.88,-1 1.5,-0.66 2.79,-1.56 3.86,-2.69 1.07,-1.14 1.91,-2.48 2.51,-4.02 0.6,-1.54 0.9,-3.21 0.9,-5.01 0,-1.76 -0.3,-3.41 -0.9,-4.95 -0.6,-1.54 -1.44,-2.89 -2.51,-4.05 -1.07,-1.16 -2.36,-2.07 -3.86,-2.73 -1.49,-0.66 -3.12,-1 -4.88,-1 -1.76,0 -3.38,0.34 -4.88,1 -1.5,0.66 -2.79,1.57 -3.86,2.73 -1.07,1.16 -1.91,2.51 -2.5,4.05 -0.6,1.54 -0.9,3.19 -0.9,4.95zm-12.41 0.06c0,-3.43 0.65,-6.63 1.93,-9.61 1.29,-2.97 3.03,-5.58 5.24,-7.8 2.2,-2.23 4.81,-3.99 7.81,-5.27 3,-1.29 6.19,-1.93 9.57,-1.93 3.39,0 6.57,0.64 9.54,1.93 2.98,1.28 5.58,3.04 7.81,5.27 2.23,2.22 3.99,4.83 5.27,7.8 1.29,2.98 1.93,6.18 1.93,9.61 0,3.39 -0.64,6.57 -1.93,9.54 -1.28,2.98 -3.04,5.57 -5.27,7.78 -2.23,2.21 -4.83,3.95 -7.81,5.24 -2.97,1.28 -6.15,1.92 -9.54,1.92 -3.38,0 -6.57,-0.64 -9.57,-1.92 -3,-1.29 -5.61,-3.03 -7.81,-5.24 -2.21,-2.21 -3.95,-4.8 -5.24,-7.78 -1.28,-2.97 -1.93,-6.15 -1.93,-9.54zm77.18 22.3l-7.45 -25.77 -2.7 25.83c-0.05,0.95 -0.52,1.42 -1.42,1.42l-9.12 0c-0.99,0 -1.46,-0.47 -1.42,-1.42l4.82 -44.85c0.05,-0.94 0.52,-1.41 1.42,-1.41l11.24 0c0.47,0 0.78,0.11 0.93,0.35 0.16,0.24 0.32,0.59 0.49,1.06l8.74 28.85 8.74 -28.85c0.17,-0.47 0.33,-0.82 0.48,-1.06 0.15,-0.24 0.46,-0.35 0.93,-0.35l11.25 0c0.89,0 1.37,0.47 1.41,1.41l4.82 44.85c0.04,0.95 -0.43,1.42 -1.42,1.42l-9.12 0c-0.9,0 -1.37,-0.47 -1.41,-1.42l-2.64 -25.19 -7.52 25.13c-0.17,0.6 -0.35,1 -0.54,1.19 -0.2,0.19 -0.53,0.29 -1,0.29l-7.97 0c-0.47,0 -0.81,-0.1 -1.03,-0.29 -0.21,-0.19 -0.38,-0.59 -0.51,-1.19zm41.58 0.06l0 -44.85c0,-0.94 0.45,-1.41 1.35,-1.41l9.64 0c0.94,0 1.41,0.47 1.41,1.41l0 44.85c0,0.95 -0.47,1.42 -1.41,1.42l-9.64 0c-0.9,0 -1.35,-0.47 -1.35,-1.42zm28.59 -13.94c0.39,0.3 0.86,0.7 1.42,1.19 0.55,0.49 1.2,0.99 1.92,1.51 1.07,0.73 2.16,1.29 3.25,1.7 1.09,0.41 2.22,0.61 3.37,0.61 2.23,0 3.74,-0.45 4.53,-1.35 0.8,-0.9 1.19,-1.95 1.19,-3.15 0,-0.68 -0.26,-1.28 -0.77,-1.8 -0.51,-0.51 -1.12,-0.97 -1.83,-1.38 -0.71,-0.4 -1.46,-0.75 -2.25,-1.03 -0.79,-0.27 -1.49,-0.52 -2.09,-0.73 -5.18,-1.8 -9.05,-3.92 -11.6,-6.37 -2.55,-2.44 -3.82,-5.54 -3.82,-9.31 0,-2.02 0.41,-3.84 1.22,-5.47 0.81,-1.62 1.96,-3.02 3.44,-4.17 1.48,-1.16 3.26,-2.05 5.36,-2.67 2.1,-0.62 4.44,-0.93 7.01,-0.93 1.93,0 3.8,0.21 5.62,0.64 1.82,0.43 3.59,1.14 5.3,2.12 1.46,0.86 2.72,1.74 3.79,2.64 1.07,0.9 1.61,1.65 1.61,2.25 0,0.38 -0.28,0.89 -0.84,1.54l-4.94 5.27c-0.35,0.34 -0.71,0.51 -1.1,0.51 -0.3,0 -0.56,-0.08 -0.8,-0.26 -0.23,-0.17 -0.5,-0.38 -0.8,-0.64l-0.32 -0.26c-0.86,-0.72 -1.9,-1.44 -3.12,-2.15 -1.22,-0.71 -2.52,-1.06 -3.89,-1.06 -1.41,0 -2.63,0.24 -3.66,0.71 -1.03,0.47 -1.54,1.33 -1.54,2.57 0,1.2 0.6,2.12 1.8,2.76 1.2,0.64 2.97,1.35 5.33,2.12 2.27,0.77 4.37,1.57 6.3,2.38 1.93,0.81 3.59,1.79 4.98,2.92 1.39,1.14 2.47,2.49 3.24,4.05 0.77,1.57 1.16,3.46 1.16,5.69 0,2.36 -0.48,4.49 -1.45,6.39 -0.96,1.91 -2.28,3.54 -3.95,4.89 -1.67,1.35 -3.64,2.4 -5.91,3.15 -2.27,0.75 -4.71,1.12 -7.33,1.12 -1.67,0 -3.32,-0.21 -4.94,-0.64 -1.63,-0.43 -3.21,-1.01 -4.73,-1.74 -1.52,-0.73 -2.94,-1.58 -4.27,-2.57 -1.33,-0.98 -2.51,-2.05 -3.53,-3.21l-0.13 -0.07c-0.05,-0.08 -0.09,-0.13 -0.13,-0.16 -0.04,-0.02 -0.09,-0.05 -0.13,-0.09 -0.47,-0.52 -0.71,-0.94 -0.71,-1.29 0,-0.34 0.24,-0.75 0.71,-1.22l5.59 -5.33c0.43,-0.3 0.79,-0.45 1.09,-0.45 0.35,0 0.8,0.26 1.35,0.77zm42.16 0c0.38,0.3 0.85,0.7 1.41,1.19 0.56,0.49 1.2,0.99 1.93,1.51 1.07,0.73 2.15,1.29 3.24,1.7 1.1,0.41 2.22,0.61 3.38,0.61 2.23,0 3.73,-0.45 4.53,-1.35 0.79,-0.9 1.19,-1.95 1.19,-3.15 0,-0.68 -0.26,-1.28 -0.77,-1.8 -0.52,-0.51 -1.13,-0.97 -1.84,-1.38 -0.7,-0.4 -1.45,-0.75 -2.25,-1.03 -0.79,-0.27 -1.48,-0.52 -2.08,-0.73 -5.19,-1.8 -9.05,-3.92 -11.6,-6.37 -2.55,-2.44 -3.83,-5.54 -3.83,-9.31 0,-2.02 0.41,-3.84 1.22,-5.47 0.82,-1.62 1.96,-3.02 3.44,-4.17 1.48,-1.16 3.27,-2.05 5.37,-2.67 2.1,-0.62 4.43,-0.93 7,-0.93 1.93,0 3.81,0.21 5.63,0.64 1.82,0.43 3.58,1.14 5.3,2.12 1.45,0.86 2.72,1.74 3.79,2.64 1.07,0.9 1.6,1.65 1.6,2.25 0,0.38 -0.27,0.89 -0.83,1.54l-4.95 5.27c-0.34,0.34 -0.71,0.51 -1.09,0.51 -0.3,0 -0.57,-0.08 -0.8,-0.26 -0.24,-0.17 -0.51,-0.38 -0.81,-0.64l-0.32 -0.26c-0.86,-0.72 -1.89,-1.44 -3.12,-2.15 -1.22,-0.71 -2.51,-1.06 -3.88,-1.06 -1.42,0 -2.64,0.24 -3.67,0.71 -1.02,0.47 -1.54,1.33 -1.54,2.57 0,1.2 0.6,2.12 1.8,2.76 1.2,0.64 2.98,1.35 5.33,2.12 2.28,0.77 4.37,1.57 6.3,2.38 1.93,0.81 3.59,1.79 4.98,2.92 1.39,1.14 2.48,2.49 3.25,4.05 0.77,1.57 1.15,3.46 1.15,5.69 0,2.36 -0.48,4.49 -1.44,6.39 -0.97,1.91 -2.28,3.54 -3.95,4.89 -1.67,1.35 -3.65,2.4 -5.92,3.15 -2.27,0.75 -4.71,1.12 -7.32,1.12 -1.67,0 -3.32,-0.21 -4.95,-0.64 -1.63,-0.43 -3.2,-1.01 -4.72,-1.74 -1.52,-0.73 -2.95,-1.58 -4.28,-2.57 -1.32,-0.98 -2.5,-2.05 -3.53,-3.21l-0.13 -0.07c-0.04,-0.08 -0.08,-0.13 -0.13,-0.16 -0.04,-0.02 -0.08,-0.05 -0.13,-0.09 -0.47,-0.52 -0.7,-0.94 -0.7,-1.29 0,-0.34 0.23,-0.75 0.7,-1.22l5.59 -5.33c0.43,-0.3 0.8,-0.45 1.1,-0.45 0.34,0 0.79,0.26 1.35,0.77zm32.45 13.94l17.41 -44.85c0.39,-0.94 1.05,-1.41 1.99,-1.41l7.84 0c0.99,0 1.63,0.47 1.93,1.41l17.55 44.85c0.38,0.95 0.08,1.42 -0.9,1.42l-9.58 0c-0.94,0 -1.56,-0.47 -1.86,-1.42l-11.12 -31.23 -10.86 31.23c-0.3,0.95 -0.94,1.42 -1.93,1.42l-9.57 0c-0.99,0 -1.29,-0.47 -0.9,-1.42zm16.13 -52.95c-0.35,0.47 -0.74,0.54 -1.19,0.2 -0.45,-0.35 -0.8,-0.65 -1.06,-0.9l-2.06 -2c-0.6,-0.6 -0.87,-0.99 -0.8,-1.18 0.06,-0.2 0.33,-0.66 0.8,-1.39 0.86,-1.28 1.92,-2.29 3.18,-3.02 1.27,-0.72 2.61,-1.09 4.02,-1.09 0.81,0 1.62,0.17 2.41,0.52 0.79,0.34 1.54,0.71 2.25,1.12 0.71,0.41 1.36,0.77 1.96,1.09 0.6,0.32 1.11,0.48 1.54,0.48 0.6,0 1.05,-0.13 1.35,-0.41 0.3,-0.28 0.69,-0.7 1.16,-1.26 0.38,-0.51 0.78,-0.75 1.19,-0.7 0.4,0.04 0.78,0.23 1.12,0.57l2.96 2.96c0.25,0.26 0.37,0.51 0.35,0.77 -0.02,0.26 -0.08,0.45 -0.16,0.58 -0.99,1.46 -2.14,2.6 -3.47,3.44 -1.33,0.83 -2.81,1.25 -4.44,1.25 -0.85,0 -1.66,-0.17 -2.41,-0.51 -0.74,-0.35 -1.45,-0.71 -2.12,-1.09 -0.66,-0.39 -1.29,-0.76 -1.89,-1.1 -0.6,-0.34 -1.18,-0.51 -1.74,-0.51 -0.81,0 -1.41,0.24 -1.8,0.74 -0.38,0.49 -0.77,0.97 -1.15,1.44zm42.09 30.53c0,1.8 0.3,3.47 0.9,5.01 0.6,1.54 1.43,2.88 2.5,4.02 1.08,1.13 2.36,2.03 3.86,2.69 1.5,0.67 3.13,1 4.88,1 1.76,0 3.39,-0.33 4.89,-1 1.5,-0.66 2.78,-1.56 3.85,-2.69 1.07,-1.14 1.91,-2.48 2.51,-4.02 0.6,-1.54 0.9,-3.21 0.9,-5.01 0,-1.76 -0.3,-3.41 -0.9,-4.95 -0.6,-1.54 -1.44,-2.89 -2.51,-4.05 -1.07,-1.16 -2.35,-2.07 -3.85,-2.73 -1.5,-0.66 -3.13,-1 -4.89,-1 -1.75,0 -3.38,0.34 -4.88,1 -1.5,0.66 -2.78,1.57 -3.86,2.73 -1.07,1.16 -1.9,2.51 -2.5,4.05 -0.6,1.54 -0.9,3.19 -0.9,4.95zm-12.4 0.06c0,-3.43 0.64,-6.63 1.92,-9.61 1.29,-2.97 3.03,-5.58 5.24,-7.8 2.21,-2.23 4.81,-3.99 7.81,-5.27 3,-1.29 6.19,-1.93 9.57,-1.93 3.39,0 6.57,0.64 9.55,1.93 2.97,1.28 5.58,3.04 7.8,5.27 2.23,2.22 3.99,4.83 5.27,7.8 1.29,2.98 1.93,6.18 1.93,9.61 0,3.39 -0.64,6.57 -1.93,9.54 -1.28,2.98 -3.04,5.57 -5.27,7.78 -2.22,2.21 -4.83,3.95 -7.8,5.24 -2.98,1.28 -6.16,1.92 -9.55,1.92 -3.38,0 -6.57,-0.64 -9.57,-1.92 -3,-1.29 -5.6,-3.03 -7.81,-5.24 -2.21,-2.21 -3.95,-4.8 -5.24,-7.78 -1.28,-2.97 -1.92,-6.15 -1.92,-9.54z"/>
 </g>
</svg>
