<svg xmlns="http://www.w3.org/2000/svg" xmlns:xlink="http://www.w3.org/1999/xlink" xml:space="preserve" width="1131" height="265" version="1.1" style="shape-rendering:geometricPrecision; text-rendering:geometricPrecision; image-rendering:optimizeQuality; fill-rule:evenodd; clip-rule:evenodd"><rect id="backgroundrect" width="100%" height="100%" x="0" y="0" fill="none" stroke="none" class="" style=""/>
 <defs>
  <style type="text/css">
   <![CDATA[
    .fil0 {fill:#FFFFFF;fill-rule:nonzero}
    .fil1 {fill:black;fill-rule:nonzero}
   ]]>
  </style>
 </defs>
 
<g class="currentLayer" style=""><title>Layer 1</title><g id="svg_1" class="">
  <g id="svg_2">
   <path class="fil0" d="M132.62428336710536,0 c-73.23354645971087,0 -132.62428336710536,59.39073690739448 -132.62428336710536,132.6248643874433 c0,73.2347085003868 59.39073690739448,132.6254454077813 132.6254454077813,132.6254454077813 c73.2347085003868,0 132.62602642811925,-59.39073690739448 132.62602642811925,-132.6254454077813 c0,-0.015687549125395252 0,-0.048224688052140974 0,-0.0644932575155138 c-0.03253713892674572,-73.21785891058546 -59.40700547685787,-132.5603711299278 -132.62602642811925,-132.5603711299278 c0,0 0,0 0,0 l-0.0011620406759552035,0 z" data-name="&lt;Caminho composto&gt;" id="svg_3"/>
   <path class="fil1" d="M215.76306454865832,139.5535319178262 c-7.40568522786251,17.631062155930326 -24.671866611542903,29.109118932677845 -43.800218178441504,29.109118932677845 c-0.029051016898880087,0 -0.06972244055731225,0 -0.09877345745619233,0 c-2.2595880943948927,-0.005810203379776021 -4.5174331277758535,-0.16326671497170617 -6.7508753069617535,-0.46481627038208134 l-2.910330872929807,-0.5234993245178191 l-2.969594947403522,-0.7564884800468373 c-4.879989818673876,-1.2701104588190373 -9.530476603846601,-3.338542862019299 -13.741130993170279,-6.1111719148484145 c-1.4043261568918635,-0.9406719271857372 -2.7772772155329357,-1.9574575186465402 -4.0764386912508535,-3.029440042215215 c0.15978059294384053,1.084183950666205 0.4752746364656781,2.1468701488272384 0.9319566221160732,3.143320028458825 l0,0.000581020337977602 c0.6519048192108691,1.3601686112055655 0.9906396762518108,2.854552920483957 0.9906396762518108,4.364624778887744 c-0.003486122027865612,1.3985159535120875 -0.2829569045950921,2.7848304799266446 -0.8151715341825753,4.0764386912508535 l0,0.40729525692229884 c-0.34977424346251634,0.8151715341825753 -0.7564884800468373,1.6884451021629105 -1.1643647573071136,2.445514602547726 c-2.3426740027256905,4.932281649091861 -5.225115899432573,9.640870468062344 -8.558429578410074,13.972958108023343 c-3.339123882357277,-4.346032128072461 -6.248873734949107,-9.04125747926946 -8.621179774911653,-13.976444230051207 l-1.393286770470289,-2.616334581913141 l0,0 c-0.5351197312773711,-1.306714740111626 -0.8145905138445975,-2.709878856327534 -0.8145905138445975,-4.1229203182890615 c0,-0.0029051016898880098 0,-0.009296325407641635 0,-0.01162040675955204 c0.004067142365843213,-1.4165275839893927 0.2823758842571144,-2.822596801895189 0.8163335748585304,-4.1339597047106365 c0.49212422626702873,-1.0946423167498014 0.8471276527713435,-2.251453809663207 1.0464176286976605,-3.4355732584615586 c-1.3125249434914021,1.092318235397891 -2.700001510581915,2.1050366844928505 -4.1339597047106365,3.030021062553193 c-4.166496843637381,2.786573540940578 -8.783865469545383,4.9026496118550025 -13.622602844222849,6.2273759824439345 l-2.9690139270655447,0.7564884800468373 l-2.969594947403522,0.5234993245178191 c-2.209039324990842,0.3038736367622856 -4.456425992288205,0.4595870873402829 -6.6927732731639935,0.4665593313960141 c-0.012782447435507245,0 -0.0302130575748353,0 -0.041833464334387366,0 c-19.152173400755682,0 -36.45902620809451,-11.474570654719654 -43.91642224603702,-29.11260505470571 c-0.052872850755961764,-0.10690774218787873 -0.07959978630293144,-0.22659793181126467 -0.07959978630293144,-0.3480311824485836 c0,-0.4497097415946638 0.36546179258791156,-0.8151715341825753 0.8151715341825753,-0.8151715341825753 c0.006972244055731226,0 0.013944488111462443,0 0.020916732167193683,0.000581020337977602 l73.70533497414867,0.0011620406759552035 l0,-18.688519171049556 c0.0011620406759552035,-0.016849589801350463 0.0011620406759552035,-0.043576525348320155 0.0011620406759552035,-0.0604261151496706 c0,-3.720854244408562 -0.29573935203059937,-7.449842773548808 -0.8692064256144921,-11.118405187539386 c-0.531052588911528,-3.3681748992561564 -1.3160110655192678,-6.703231639247591 -2.331053595966138,-9.952297369218337 c-1.994061799939129,-6.508008805687117 -4.972953072750292,-12.708076832246103 -8.794904855966957,-18.340487988600977 c-0.038347342306521724,-0.07785672528899866 -0.05984509481169301,-0.16210467429575093 -0.05984509481169301,-0.24867670465441358 c0,-0.2893481283128456 0.23473221654295115,-0.5234993245178191 0.5234993245178191,-0.5234993245178191 c0.04067142365843213,0 0.08076182697888666,0.004648162703820816 0.1202712099613636,0.013944488111462443 c3.3321516383015455,1.0086513067291163 6.624212873282637,2.26772237912658 9.785544532218765,3.722597305422494 l1.6884451021629105,0.8151715341825753 l1.6297620480271726,0.8157525545205528 c1.594319807410539,0.7634607241025686 3.158426557246243,1.6233708243094191 4.655715968214523,2.5622996904812236 c0.690252161517391,0.4229828060476941 1.4862500245467047,0.6460946158310931 2.297354416363437,0.6460946158310931 c0.8111043918167319,0 1.6071022548460465,-0.22311180978339903 2.2996784977153473,-0.6443515548171603 c1.5716600142294126,-0.9900586559138331 3.0857990149990426,-1.862751203556191 4.716142083364193,-2.6204017242789837 l1.6297620480271726,-0.8151715341825753 l1.6884451021629105,-0.8151715341825753 c3.194449818200854,-1.4508077839300715 6.492321256561721,-2.701744571595848 9.839579423650685,-3.724921386774404 c0.03892836264449935,-0.009296325407641635 0.07959978630293144,-0.013944488111462443 0.1202712099613636,-0.013944488111462443 c0.2893481283128456,0 0.5234993245178191,0.23473221654295115 0.5234993245178191,0.5234993245178191 c0,0.08657203035866268 -0.021497752505171278,0.1708199793654149 -0.062169176163603436,0.24693364364048073 c-3.813236478147,5.6457746241283555 -6.807234279745582,11.838870406631612 -8.848939747398875,18.342812069952885 c-2.075404647255993,6.813625503463335 -3.1671418623159067,13.939258928420642 -3.203165123270518,21.073607658447614 l0,18.455530015520537 l73.70649701482462,-0.0011620406759552035 c0.03137509825079051,-0.004648162703820816 0.062169176163603436,-0.005810203379776021 0.09296325407641634,-0.005810203379776021 c0.4497097415946638,0 0.8151715341825753,0.364880772249934 0.8151715341825753,0.8151715341825753 c0,0.1684958980135046 -0.05229183041798417,0.3335056739991435 -0.1499032471982213,0.4706264737618574 l-0.0011620406759552035,0.000581020337977602 z" id="svg_4"/>
   <g id="svg_5">
    <path class="fil0" d="M321.2583462949135,33.63642940619932 c0.000581020337977602,-0.022659793181126476 0,-0.04764366771416335 0,-0.07146550157124505 c0,-0.8174956155344856 0.3131699621699274,-1.604197153156158 0.873854588318313,-2.198580958907245 c0.5903166633852432,-0.5978699277789521 1.3967728924981544,-0.934861723805961 2.2369283012137666,-0.934861723805961 c0.050548769404051376,0 0.10051651847012513,0.0011620406759552035 0.1499032471982213,0.0029051016898880098 l21.424543942586087,0 c0.8186576562104408,0.01336346777348485 1.6059402141700911,0.32479036892947954 2.2131064673566856,0.873854588318313 c0.6844419581376148,0.5816013583155792 1.088251093032048,1.4304720721008555 1.1068437438473313,2.3281484942762503 l-0.0011620406759552035,78.77241334165133 l39.82313396498482,0 c0.01220142709752964,-0.000581020337977602 0.025564894871014484,-0.0011620406759552035 0.037766321968544146,-0.0011620406759552035 c0.8105233714787543,0 1.590252665044696,0.313750982507905 2.1747591250501626,0.8732735679803354 c0.5978699277789521,0.5804393176396241 0.9366047848198942,1.3799233026968039 0.9366047848198942,2.21426850803264 c0,0.05752101345978257 -0.002324081351910408,0.11562304725754276 -0.004648162703820816,0.17256304037934775 l-0.0011620406759552035,19.039455455188026 c0.000581020337977602,0.013944488111462443 0.0011620406759552035,0.03137509825079051 0.0011620406759552035,0.04764366771416335 c0,0.8140094935066199 -0.28992914865082325,1.6018730718042478 -0.8157525545205528,2.221240752088371 c-0.5723050329079377,0.6978054259110996 -1.4258239093970346,1.1051006828333982 -2.3281484942762503,1.1074247641853088 l-64.62573015257269,0.000581020337977602 c-0.14525508449440044,0.022078772843148874 -0.29399629101666647,0.03486122027865613 -0.4415754568629773,0.03486122027865613 c-1.54319001766851,0 -2.7941268053342867,-1.251517808003754 -2.7941268053342867,-2.794707825672264 c0,-0.14816018618428842 0.01220142709752964,-0.2969013927065545 0.03544224061663371,-0.44215647720095486 l-0.0011620406759552035,-101.24453695361102 z" data-name="&lt;Caminho&gt;" id="svg_6"/>
    <path class="fil0" d="M471.932026461293,36.72222842119836 l-1.8052301900964087,-4.1339597047106365 c-0.37998730103735157,-0.4863140228872525 -0.8111043918167319,-0.9366047848198942 -1.2794067842266788,-1.339251879038372 c-0.5693999312180498,-0.4868950432252304 -1.2962563740280293,-0.7564884800468373 -2.046353630357113,-0.7564884800468373 c-0.016268569463372864,0 -0.03428019994067851,0.000581020337977602 -0.04996774906607376,0.000581020337977602 l-18.514794089994258,-0.000581020337977602 c-0.19987099626429503,-0.03660428129258894 -0.40497117557038825,-0.055196932107872194 -0.6100713548764818,-0.055196932107872194 c-0.20451915896811584,0 -0.41020035861218684,0.018592650815283267 -0.6112333955524369,0.055196932107872194 c-0.43692729415915643,0.1754681420692358 -0.8494517341232537,0.4107813789501645 -1.2224667911048739,0.6983864462490773 c-0.3689479146157772,0.2672693554696968 -0.701872568276943,0.5798582973016465 -0.9894776355758558,0.9325376424540509 c-0.23124609451508554,0.2661073147937415 -0.3921887281348812,0.5862495210194003 -0.4659783110580366,0.9313756017780956 l-39.357155653926775,102.23459560952486 c-0.1708199793654149,0.2695934368216072 -0.2614591520899208,0.5833444193295121 -0.2614591520899208,0.9034866255551707 c0,0.4758556568036557 0.20161405727822784,0.9296325407641627 0.5531313617546767,1.2491937266518436 c0.6112333955524369,0.45610096531241745 1.3555204485017445,0.7024535886149205 2.1189811726043133,0.7024535886149205 c0.04996774906607376,0 0.10167855914608037,-0.0011620406759552035 0.15106528787417656,-0.003486122027865612 l21.366441908788325,0.000581020337977602 c0.05984509481169301,0.002324081351910408 0.1208522302993412,0.004067142365843213 0.18011630477305654,0.004067142365843213 c1.6361532717449265,0 3.0683684048597146,-1.101614560805533 3.4884461092175205,-2.682570900442587 l2.794707825672264,-7.336543807643177 l2.7941268053342867,-7.335962787305199 c0,0 15.544618122252755,-45.52875368392487 16.47599372403085,-48.380982523056915 c0.9319566221160732,-2.8522288391320467 1.8633322238941687,-5.47263056341103 2.7941268053342867,-7.976247199756516 c0,0 21.017248685663787,61.24767790757091 21.94920530777986,63.69261148978065 c0.9319566221160732,2.445514602547726 1.862751203556191,4.891029205095451 2.8522288391320467,7.336543807643177 c0.2329891555290183,0.8122664324926874 0.7239513411200917,1.5280834888810924 1.3973539128361323,2.0376383252874493 c0.7053586903048085,0.4224017857097165 1.512395939755697,0.6460946158310931 2.3345397179940033,0.6460946158310931 c0.07553264393708825,0 0.1522273285501317,-0.002324081351910408 0.22717895214924233,-0.005810203379776021 l20.78425953013477,0.000581020337977602 c0.10748876252585635,0.00871530506966403 0.2155585453896903,0.013944488111462443 0.32362832825352394,0.013944488111462443 c0.8947713204855067,0 1.7570055020442674,-0.3381538367029643 2.4135584839589574,-0.9459011102275355 c0.23008405383913028,-0.344545060420718 0.35326036549038203,-0.7500972563290838 0.35326036549038203,-1.1649457776450913 c0,-0.4136864806400524 -0.1231763116512516,-0.819819696886396 -0.35326036549038203,-1.1643647573071136 l-37.78549563969737,-98.15873793861199 z" data-name="&lt;Caminho&gt;" id="svg_7"/>
    <path class="fil0" d="M1092.6174608719498,36.72222842119836 l-1.8046491697584308,-4.1339597047106365 c-0.3811493417133068,-0.4863140228872525 -0.8122664324926874,-0.9366047848198942 -1.2811498452406118,-1.339251879038372 c-0.5688189108800721,-0.4868950432252304 -1.2956753536900516,-0.7564884800468373 -2.046353630357113,-0.7564884800468373 c-0.015687549125395252,0 -0.03369917960270092,0.000581020337977602 -0.04938672872809616,0.000581020337977602 l-18.572315103454038,-0.000581020337977602 c-0.20161405727822784,-0.03660428129258894 -0.40671423658432115,-0.055196932107872194 -0.6112333955524369,-0.055196932107872194 c-0.20510017930609345,0 -0.41020035861218684,0.018592650815283267 -0.6112333955524369,0.055196932107872194 c-0.8674633646005595,0.33931587737891955 -1.6320861293790834,0.9034866255551707 -2.212525447018707,1.630924088703128 c-0.2306650741771079,0.2661073147937415 -0.39160770779690374,0.5862495210194003 -0.465397290720059,0.9313756017780956 l-39.29789157945307,102.23459560952486 c-0.17198202004137023,0.2695934368216072 -0.2632022131038536,0.5833444193295121 -0.2632022131038536,0.9034866255551707 c0,0.4758556568036557 0.20161405727822784,0.9296325407641627 0.5537123820926544,1.2491937266518436 c0.6123954362283922,0.45610096531241745 1.3561014688397222,0.7024535886149205 2.1195621929422908,0.7024535886149205 c0.04996774906607376,0 0.10109753880810272,-0.0011620406759552035 0.15106528787417656,-0.003486122027865612 l21.366441908788325,0.000581020337977602 c0.059264074473715386,0.002324081351910408 0.1202712099613636,0.004067142365843213 0.17953528443507896,0.004067142365843213 c1.636734292082904,0 3.068949425197692,-1.101614560805533 3.4890271295554984,-2.682570900442587 l2.7941268053342867,-7.336543807643177 l2.7941268053342867,-7.335962787305199 c0,0 15.544618122252755,-45.52875368392487 16.476574744368826,-48.380982523056915 c0.9319566221160732,-2.8522288391320467 1.862751203556191,-5.47263056341103 2.7941268053342867,-7.976247199756516 c0,0 21.017248685663787,61.24767790757091 21.94920530777986,63.69261148978065 c0.9313756017780956,2.445514602547726 1.862751203556191,4.891029205095451 2.8522288391320467,7.336543807643177 c0.2324081351910407,0.8122664324926874 0.723370320782114,1.5280834888810924 1.3967728924981544,2.0376383252874493 c0.7059397106427862,0.4224017857097165 1.5129769600936747,0.6460946158310931 2.335120738331981,0.6460946158310931 c0.07553264393708825,0 0.1522273285501317,-0.002324081351910408 0.22659793181126467,-0.005810203379776021 l20.785421570810726,0.000581020337977602 c0.10632672184990112,0.00871530506966403 0.21497752505171264,0.013944488111462443 0.32246628757756896,0.013944488111462443 c0.8953523408234842,0 1.757586522382245,-0.3381538367029643 2.4141395042969345,-0.9459011102275355 c0.2306650741771079,-0.344545060420718 0.35326036549038203,-0.7500972563290838 0.35326036549038203,-1.1649457776450913 c0,-0.4136864806400524 -0.12259529131327392,-0.819819696886396 -0.35326036549038203,-1.1643647573071136 l-37.7849146193594,-98.15873793861199 z" data-name="&lt;Caminho&gt;" id="svg_8"/>
    <g id="svg_9">
     <path class="fil0" d="M583.5402231834106,60.82527612186118 c-2.41297746362098,-1.7204012207516788 -5.061849184460866,-3.0980004420965725 -7.859462111823018,-4.075857670912876 c-2.8377033306826065,-0.9633317203668637 -5.827633989915345,-1.4566179873098475 -8.826860974555723,-1.4566179873098475 c-0.043576525348320155,0 -0.09703039644225951,0 -0.1411879421285572,0 c-0.07378958292315545,-0.000581020337977602 -0.15978059294384053,-0.000581020337977602 -0.2364752775568839,-0.000581020337977602 c-7.329571563587445,0 -14.325056432837767,3.0887041166889304 -19.264310325985363,8.502070605626248 c-2.499549493979643,2.645966619149998 -4.4825719074971975,5.755006447668144 -5.821823786535569,9.139449916387674 c-1.3444810620801704,3.5204022278062883 -2.0388003659634046,7.268564428099797 -2.0388003659634046,11.038805401236456 c0,0.04531958636225295 0,0.09412529475237151 0,0.13944488111462447 c-0.000581020337977602,0.06565529819146904 -0.000581020337977602,0.12898651503102762 -0.000581020337977602,0.19289875220856378 c0,3.7533913833353063 0.691414202193346,7.4817988921375775 2.0376383252874493,10.98418948946656 c1.3398328993763495,3.370498980608067 3.3193691908660385,6.4615271786489075 5.8224048068735454,9.085415024955758 c2.400776036523451,2.594255809069992 5.323889356888764,4.682442903761492 8.557848558072095,6.1111719148484145 c3.382119387367619,1.493803288940414 7.047776699668308,2.2717895214924226 10.744809110219789,2.2717895214924226 c0.08424794900675231,0 0.1754681420692358,0 0.25913507073801023,0 c0.04125244399640975,-0.000581020337977602 0.0923822337384387,-0.000581020337977602 0.13479671841080365,-0.000581020337977602 c1.646611637828523,0 3.300776540050755,-0.119690189623386 4.92995756773995,-0.34977424346251634 l5.297743441679772,-0.9319566221160732 l0,-18.979029340038355 c-0.000581020337977602,-0.0302130575748353 -0.0011620406759552035,-0.0615881558256258 -0.0011620406759552035,-0.0918012134004611 c0,-0.8006460257331351 0.2905101689888008,-1.5757271565952558 0.8163335748585304,-2.178826267416006 c0.5705619718940049,-0.5990319684549074 1.3624926925574758,-0.9383478458338269 2.190446674175558,-0.9383478458338269 c0.0650742778534914,0 0.131310596382938,0.0017430610139328058 0.19638487423642942,0.006391223717753623 l19.678577826963387,0.0011620406759552035 c0.8477086731093207,0.039509382982476936 1.662880207291896,0.345707101096673 2.3287295146142277,0.8715305069664027 c0.762879703764591,0.49328626694298394 1.2236288317808293,1.340413919714327 1.2236288317808293,2.249129728311296 c0,0.026145915208992086 -0.000581020337977602,0.05403489143191696 -0.0011620406759552035,0.0801808066409091 l0,34.93210475988937 c-0.029051016898880087,1.380504323034782 -0.8430605104055,2.6238878463068493 -2.0963213794231867,3.2025841029325406 c-2.349065226443443,1.576889197271211 -4.881732879687809,2.91439801529565 -7.512592970050391,3.959653603317356 c-2.7883166019545107,1.1155590489169953 -5.687608088462743,2.036476284611494 -8.61711263254581,2.733700690184616 c-2.982377394839029,0.7193031784162709 -6.036801311587282,1.264881275777239 -9.081928902927892,1.629181027689195 c-2.9411249508426196,0.35093628413847155 -5.9374468337931114,0.5264044262077071 -8.90587974052068,0.5264044262077071 c-0.018011630477305664,0 -0.037185301630566533,0 -0.055196932107872194,0 c-0.07611366427506588,0.000581020337977602 -0.15629447091597495,0.000581020337977602 -0.23008405383913028,0.000581020337977602 c-9.73906290518056,0 -19.309629912347614,-2.600647032787745 -27.71525114186958,-7.513755010726344 c-4.093869301390181,-2.279923806224109 -7.907105779537181,-5.085671018317948 -11.298521492312442,-8.320211239839255 c-3.370498980608067,-3.4878650888795426 -6.300584545029112,-7.417305634622063 -8.672309564653684,-11.643647573071139 c-2.516980104118971,-4.103746647135801 -4.480247826145286,-8.543323049622655 -5.820661745859614,-13.160110655192678 c-1.268948418143082,-4.703359635928686 -1.9086518102564216,-9.568242925815143 -1.9086518102564216,-14.440679480095314 c0,-9.94764920651452 2.6709504936830344,-19.733193738733288 7.725827434088169,-28.294528418833252 c2.4001950161854726,-4.0874780776724275 5.327956499254608,-7.875149660948413 8.67521466634357,-11.235771295810862 c3.326922455259747,-3.318788170528061 7.1000685300862925,-6.21168843331854 11.177088241675124,-8.559010598748051 c4.134540725048614,-2.487348066882113 8.58573753429502,-4.45293987026034 13.217050648314483,-5.817756644169726 c4.803876154398811,-1.3090388214635365 9.782058410190903,-1.9754691491238456 14.766050869362768,-1.9754691491238456 c5.547582187010142,0 11.081800906246796,0.8238868392522393 16.382449449616455,2.4373803178160394 c5.12866652332829,1.6216277632954863 10.033640216535204,3.978827274470617 14.494714371527229,6.985607523504704 c0.7867015376216725,0.45784402632635024 1.4316341127768106,1.1242743539866593 1.8650752849081014,1.9231773187058614 c0.25216282668227913,0.4107813789501645 0.3857975044171275,0.885474995077865 0.3857975044171275,1.368302895937252 c0,0.48224688052140946 -0.13363467773484847,0.9569404966491101 -0.3857975044171275,1.3677218755992742 l-11.644228593409114,16.942553055426867 c-0.4816658601834318,0.6675923683362643 -1.1236933336486814,1.2091033233313893 -1.8633322238941687,1.5710789938914351 c-0.21846364707957822,0.05171081008000657 -0.44273749753893243,0.07901876596495384 -0.6675923683362643,0.07901876596495384 c-0.6978054259110996,0 -1.3723700383030952,-0.25681098938610003 -1.8941263018069814,-0.7198841987542486 l-0.34919322312453865,0.35093628413847155 zm0,0 l0,0 l0,0 z" data-name="&lt;Caminho&gt;" id="svg_10"/>
    </g>
    <g id="svg_11">
     <path class="fil0" d="M647.4658238287202,84.2880394100727 c-0.000581020337977602,0.07378958292315545 -0.000581020337977602,0.15338936922608687 -0.000581020337977602,0.22834099282519754 c0,3.7603636273910386 0.6943193038832339,7.498648481938926 2.0376383252874493,11.006849282647687 c1.3224022892370217,3.3751471433118883 3.3077487841064865,6.4714045243945275 5.822985827211524,9.084252984279802 c2.457716029645255,2.48328092451627 5.3907066957561875,4.470370480399667 8.615950591869854,5.821823786535569 c3.4843789668516774,1.454293905957937 7.22905504511732,2.2067152436389312 11.003944180957797,2.2067152436389312 c3.7748891358404784,0 7.5195652141061196,-0.7524213376809941 11.002201119943866,-2.207877284314886 c3.251389811322659,-1.3369277976864617 6.203554148586853,-3.321112251879971 8.674633646005594,-5.821823786535569 c2.5163990837809926,-2.61168641920932 4.501164558312481,-5.707943800291959 5.825309908563434,-9.084252984279802 c1.3380898383624167,-3.5779232412660713 2.031247101569696,-7.380120332991497 2.031247101569696,-11.205558238236028 c0,-3.824856884906552 -0.6931572632072788,-7.626472956294 -2.0324091422456503,-11.205558238236028 c-1.3218212688990436,-3.391996733113239 -3.3083298044444645,-6.5062657446731835 -5.821242766197592,-9.142355018077563 c-5.190835699491894,-5.4249868956968665 -12.385610544668534,-8.497422442922424 -19.896460453704993,-8.497422442922424 c-3.8120744374710447,0 -7.5875445936495005,0.7930927613394263 -11.077733763880953,2.326405433262317 c-3.2519708316606364,1.461847170351646 -6.188447619799435,3.5616546718026982 -8.617693652883787,6.17043598932213 c-2.5134939820911044,2.6372513140803338 -4.499421497298547,5.751520325640279 -5.822985827211524,9.142936038415542 c-1.3433190214042154,3.51517304476449 -2.036476284611494,7.259268102692156 -2.036476284611494,11.026603974138926 c0,0.04880570839011856 0,0.10167855914608037 0,0.15048426753619887 l0.2916722096647561,0 zm-28.294528418833252,0 c-0.000581020337977602,-0.03137509825079051 -0.000581020337977602,-0.07901876596495384 -0.000581020337977602,-0.11271794556765471 c0,-4.938091852471636 0.67107849036413,-9.863401257507766 1.9795362914896892,-14.620795784868369 c2.5541654057495373,-9.261464187362972 7.475407668419823,-17.71240500324719 14.262887256674166,-24.506275815219283 c3.397225916155037,-3.3978069364930144 7.242999533228782,-6.356362497474962 11.411820458218074,-8.736221801831219 c4.130473582682771,-2.4856050058681802 8.586899574970973,-4.45293987026034 13.21588860763853,-5.8189186848456815 c4.789931666287348,-1.311943923153425 9.757074535657866,-1.9847654745314873 14.730608628746134,-1.9847654745314873 c4.974115113426248,0 9.941257982796765,0.672821551378063 14.73177066942209,1.983603433855532 c4.643514541116993,1.3613306518815207 9.117952163882505,3.326922455259747 13.268180438056513,5.821823786535569 c8.250488799281944,4.793998808653191 15.12163531620506,11.663983284900354 19.912729023168364,19.910404941816452 c2.4989684736416646,4.153714396201875 4.456425992288205,8.625246917277495 5.821823786535569,13.271666560084375 c1.3165920858572455,4.795160849329147 1.9888326168973303,9.757655555995843 1.9888326168973303,14.732351689760069 c0,4.975858174440181 -0.6722405310400853,9.9377718607689 -1.9888326168973303,14.73002760840816 c-1.3514533061359015,4.615625564894068 -3.3245983739078366,9.050553804677103 -5.820080725521636,13.1595296348547 c-2.358361551851085,4.206006226619858 -5.28844711627213,8.090127186000126 -8.672890584991661,11.52686248513764 c-3.372242041622,3.3431910247231196 -7.149455258814388,6.266885365426411 -11.239838438176704,8.676376707019527 c-4.136864806400523,2.518142144794926 -8.616531612207835,4.490125171890905 -13.275733702450221,5.820661745859614 c-4.787607584935439,1.2933512723381415 -9.75358841363,1.9551334372946296 -14.725960466042316,1.9551334372946296 c-4.972953072750292,0 -9.938352881106878,-0.6612011446185109 -14.73177066942209,-1.956295477970585 c-4.638866378413172,-1.3409949400523047 -9.091806248673512,-3.308910824782442 -13.211821465272685,-5.820661745859614 c-8.245840636578121,-4.952036340583099 -15.097232462009998,-11.968437942000618 -19.85753209106049,-20.322348361442575 c-4.9131079779385995,-8.349262256738134 -7.509106848022523,-17.882643962274624 -7.509106848022523,-27.575225240416973 c0,-0.09993549813214753 0,-0.21207242336182464 0,-0.31200792149397216 l-0.28992914865082325,0.17663018274519096 zm0,0 l0,0 l0,0 z" data-name="&lt;Caminho composto&gt;" id="svg_12"/>
    </g>
    <path class="fil0" d="M748.1862804374755,33.69511246033505 c0,-0.022659793181126476 -0.000581020337977602,-0.04648162703820817 -0.000581020337977602,-0.06972244055731225 c0,-0.8070372494508887 0.28992914865082325,-1.5890906243687406 0.8157525545205528,-2.2009050402591552 c0.5502262600647888,-0.5990319684549074 1.329374533292753,-0.9412529475237148 2.1433840267993727,-0.9412529475237148 c0.08076182697888666,0 0.16268569463372853,0.003486122027865612 0.2428665012746375,0.009877345745619229 l21.25139988186876,-0.000581020337977602 c0.8459656120953881,0.04531958636225295 1.6605561259399855,0.35093628413847155 2.3287295146142277,0.8732735679803354 c0.7622986834266134,0.49386728728096146 1.2230478114428516,1.3409949400523047 1.2230478114428516,2.249129728311296 c0,0.02672693554696969 -0.000581020337977602,0.05403489143191696 -0.0011620406759552035,0.08076182697888666 l0,101.12775186567754 c0,2.0957403590852093 -1.2218857707668962,3.202003082594563 -3.551777326057079,3.202003082594563 l-21.250237841192806,0 c-0.14583610483237813,0.022078772843148874 -0.29457731135464404,0.03428019994067851 -0.44215647720095486,0.03428019994067851 c-1.54319001766851,0 -2.7941268053342867,-1.2509367876657767 -2.7941268053342867,-2.7941268053342867 c0,-0.14816018618428842 0.01220142709752964,-0.2969013927065545 0.03544224061663371,-0.44215647720095486 l-0.000581020337977602,-101.12775186567754 z" data-name="&lt;Caminho&gt;" id="svg_13"/>
    <path class="fil0" d="M799.8279490972627,33.69511246033505 c0,-0.022659793181126476 -0.000581020337977602,-0.04648162703820817 -0.000581020337977602,-0.06972244055731225 c0,-0.8070372494508887 0.28992914865082325,-1.5890906243687406 0.8157525545205528,-2.2009050402591552 c0.5502262600647888,-0.5990319684549074 1.3287935129547754,-0.9412529475237148 2.1433840267993727,-0.9412529475237148 c0.08076182697888666,0 0.16268569463372853,0.003486122027865612 0.2428665012746375,0.009877345745619229 l23.63765040994277,-0.000581020337977602 c0.7280184834859349,0.020335711829216067 1.44383553987434,0.19987099626429503 2.0957403590852093,0.5240803448557967 c0.7739190901861654,0.39451280948679157 1.420594726355236,1.0010980423354077 1.8639132442321462,1.7471281562986485 c6.132088647015609,9.897681457448446 12.206656280571433,19.600140081336413 18.222540859991522,29.109699953015824 l18.33932594792502,29.110280973353795 l0,-58.22056194670759 c0.14525508449440044,-0.7919307206634711 0.5560364634445649,-1.5106528787417643 1.1637837369691362,-2.0376383252874493 c0.5612656464863631,-0.4880570839011854 1.2811498452406118,-0.757069500384815 2.024855877851942,-0.757069500384815 c0.004067142365843213,0 0.009296325407641635,0 0.01336346777348485,0 l20.610534449079463,0 c0.043576525348320155,-0.0011620406759552035 0.08889611171057311,-0.002324081351910408 0.13363467773484847,-0.002324081351910408 c0.8581670391929176,0 1.6936742852047089,0.2881860876368904 2.3694009382726597,0.816914595196508 c0.630407066705698,0.5415109549951248 0.9941257982796764,1.3334416756585958 0.9941257982796764,2.164881779304544 c0,0.055196932107872194 -0.0011620406759552035,0.10981284387776676 -0.004648162703820816,0.16442875564766132 l0.000581020337977602,102.17649357572708 c0.005810203379776021,0.07204652190922264 0.009296325407641635,0.14525508449440044 0.009296325407641635,0.21904466741755585 c0,0.7419629715973974 -0.32246628757756896,1.448483702578161 -0.882569893387977,1.9347977254654134 c-0.6338931887335633,0.45726300598837244 -1.39793493317411,0.7041966496288532 -2.1799883080919615,0.7041966496288532 c-0.06914142021933463,0 -0.13944488111462447,-0.002324081351910408 -0.20684324032002627,-0.006391223717753623 l-23.288457186818228,0.0011620406759552035 c-0.005229183041798419,-0.000581020337977602 -0.01045836608359684,-0.000581020337977602 -0.016268569463372864,-0.000581020337977602 c-0.617043598932213,0 -1.2131704656972322,-0.22892201316317512 -1.6727575530375152,-0.640284412451317 c-0.5635897278382737,-0.5264044262077071 -1.0725635439066528,-1.1149780285790176 -1.51413900076963,-1.7471281562986485 l-19.0377123941741,-31.497112521765786 l-19.0377123941741,-31.612154548685353 l0,62.17963452968698 c0.004648162703820816,0.07378958292315545 0.007553264393708826,0.1499032471982213 0.007553264393708826,0.22543589113530946 c0,0.7867015376216725 -0.2701744571595848,1.5490002210482863 -0.7646227647785238,2.1602336166007228 c-0.6234348226499666,0.5386058533052367 -1.420594726355236,0.8355072460117913 -2.2450625859454525,0.8355072460117913 c-0.12491937266518442,0 -0.2504197656683464,-0.006972244055731226 -0.3741770976575756,-0.020335711829216067 l-20.551851394943725,0.0011620406759552035 c-0.0836669286687747,0.005810203379776021 -0.16733385733754935,0.009877345745619229 -0.251000786006324,0.009877345745619229 c-0.8296970426320153,0 -1.6239518446473964,-0.3410589383928523 -2.1950948368793797,-0.9424149881996702 c-0.48863810423916304,-0.5938027854131089 -0.7576505207227926,-1.3409949400523047 -0.7576505207227926,-2.1114279082106044 c0,-0.033118159264723314 0.0011620406759552035,-0.06739835920540183 0.0017430610139328058,-0.10051651847012513 l0.29109118932677835,-101.18585389947529 z" data-name="&lt;Caminho&gt;" id="svg_14"/>
    <path class="fil0" d="M918.4810174173587,33.69511246033505 c0.044157545686297754,-0.822724798576284 0.37359607731959793,-1.6059402141700911 0.9307945814401178,-2.212525447018707 c0.519432182151976,-0.6269209446778322 1.2927702520001638,-0.9912206965897885 2.1085228065207167,-0.9912206965897885 c0.03486122027865613,0 0.06972244055731225,0.000581020337977602 0.10458366083596835,0.0017430610139328058 l21.48322699672182,-0.000581020337977602 c0.8204007172243737,0.05345387109393937 1.6012920514662703,0.3828924027272395 2.212525447018707,0.9325376424540509 c0.7297615444998679,0.5240803448557967 1.1643647573071136,1.3694649366132072 1.1643647573071136,2.269465440140512 c0,0 0,0.000581020337977602 0,0.000581020337977602 l0,34.40802441503357 l35.980265449600964,0 l0,-34.40802441503357 c0,-0.01975469149123847 -0.000581020337977602,-0.04067142365843213 -0.000581020337977602,-0.0604261151496706 c0,-1.7366697902150514 1.407812278919729,-3.1439010487968027 3.1439010487968027,-3.1439010487968027 c0.03892836264449935,0 0.07901876596495384,0.0011620406759552035 0.11678508793349796,0.0017430610139328058 l21.425124962924063,0 c0.009296325407641635,0.000581020337977602 0.01975469149123847,0.000581020337977602 0.029051016898880087,0.000581020337977602 c0.8814078527120217,0 1.7448040749467382,0.26436425377980866 2.475146639784583,0.757069500384815 c0.697224405573122,0.4764366771416334 1.1155590489169953,1.2683673978051044 1.1155590489169953,2.113751989562515 c0,0.07204652190922264 -0.003486122027865612,0.14351202348046774 -0.009296325407641635,0.21439650471373506 l0,101.30322000774676 c0.005229183041798419,0.07146550157124505 0.008134284731686429,0.14525508449440044 0.008134284731686429,0.21846364707957822 c0,0.8215627579003286 -0.3404779180548747,1.6065212345080686 -0.9400909068477596,2.1677868809944316 c-0.6600391039425555,0.52814748722164 -1.4816018618428846,0.816914595196508 -2.3281484942762503,0.816914595196508 c-0.038347342306521724,0 -0.07843774562697627,-0.0011620406759552035 -0.11678508793349796,-0.0017430610139328058 l-21.367022929126303,0.000581020337977602 c-0.03428019994067851,-0.000581020337977602 -0.07030346089528983,0.000581020337977602 -0.10574570151192353,0.000581020337977602 c-0.8140094935066199,0 -1.6024540921422257,-0.2893481283128456 -2.222983813102304,-0.8163335748585304 c-0.5990319684549074,-0.5705619718940049 -0.9383478458338269,-1.363073712895454 -0.9383478458338269,-2.190446674175558 c0,-0.06565529819146904 0.0017430610139328058,-0.13189161672091562 0.006391223717753623,-0.19638487423642942 l0.000581020337977602,-41.16064278300926 l-35.980265449600964,0 l0,41.103121769549475 c0.0017430610139328058,0.04473856602427533 0.0029051016898880098,0.09122019306248351 0.0029051016898880098,0.13770182010069162 c0,0.8384123477016793 -0.3619756705600461,1.6378963327588592 -0.9929637576037212,2.1898656538375807 c-0.6844419581376148,0.5322146295874831 -1.5280834888810924,0.8215627579003286 -2.394965833143674,0.8215627579003286 c-0.07495162359911063,0 -0.15106528787417656,-0.002324081351910408 -0.22543589113530946,-0.006391223717753623 l-21.600012084655322,0.0011620406759552035 c-2.0370573049494713,0 -3.085217994661065,-0.9319566221160732 -3.085217994661065,-2.8528098594700246 l0,-101.41942407534228 z" data-name="&lt;Caminho&gt;" id="svg_15"/>
   </g>
   <path class="fil0" d="M321.2240660949728,244.6420994274971 l0,-63.567692117115456 c0,-0.6681733886742419 0.18244038612496696,-1.1690129200109347 0.5461591176989455,-1.502518594010078 c0.3642997519119563,-0.33466771467509865 0.819819696886396,-0.5008395313366928 1.3659788145853418,-0.5008395313366928 l29.233457285005052,0 c3.0968384014206167,0 5.9351227524412025,0.6367982904234515 8.51543407339973,1.912718952622265 c2.5797303006205516,1.2747586215228583 4.7957418696671255,2.944030052532508 6.648034707139719,5.008976333704903 c1.8517118171346165,2.063784240496442 3.2938042959950242,4.416916609305728 4.325696416243244,7.058235065751905 c1.033054160924176,2.6407374361082 1.5490002210482863,5.357007516153487 1.5490002210482863,8.150553301149797 c0,2.732538649508661 -0.5008395313366928,5.403489143191696 -1.502518594010078,8.014594542063037 c-1.0028411033493407,2.610524378533364 -2.4135584839589574,4.9485502185552335 -4.235638263856717,7.012334459051675 c-1.8214987595597814,2.063784240496442 -4.007297271031519,3.7185301630566507 -6.556814514077234,4.963075727004673 c-2.550679283721671,1.2445455639480227 -5.373276085616861,1.8673993662600117 -8.4695334666995,1.8673993662600117 l-13.934029745378844,0 l0,21.584324535529927 c0,1.3351847366725287 -0.6983864462490773,2.002777105008793 -2.0939972980712764,2.002777105008793 l-13.478509800404403,0 c-1.2747586215228583,0 -1.912718952622265,-0.6675923683362643 -1.912718952622265,-2.002777105008793 zm27.321319352720764,-51.18208157244693 l-9.83609330162282,0 l0,15.2087883669017 l9.83609330162282,0 c2.246805646959386,0 3.9770842134566835,-0.7739190901861654 5.190835699491894,-2.3217572705584963 c1.2137514860352103,-1.5478381803723307 1.8214987595597814,-3.2943853163330017 1.8214987595597814,-5.236736306192124 c0,-0.9104588696109019 -0.16733385733754935,-1.8214987595597814 -0.5008395313366928,-2.732538649508661 c-0.3335056739991435,-0.9104588696109019 -0.7890256189735833,-1.730278566497298 -1.3659788145853418,-2.4588780703212105 c-0.5763721752737808,-0.7285995038239126 -1.3049716790976933,-1.320078207885111 -2.1857985114717375,-1.7755981528595508 c-0.8796647916980892,-0.4555199449744398 -1.8668183459220344,-0.6832799174616596 -2.959136581319925,-0.6832799174616596 zm34.60673337062191,51.18208157244693 l0,-63.567692117115456 c0,-0.48573300254927493 0.15164630821215408,-0.9412529475237148 0.4549389246364622,-1.366559834923319 c0.3038736367622856,-0.42414484672364916 0.7890256189735833,-0.6367982904234515 1.457199007647825,-0.6367982904234515 l30.235136347678434,0 c3.2182716520579353,0 6.147195175803025,0.6524858395488468 8.788513632249202,1.9586195593224953 c2.641899476784155,1.3049716790976933 4.918337160980398,3.0201437168075733 6.830475093264685,5.1455161131296405 c1.9121379322842869,2.124210355646112 3.38444346871953,4.537768839605069 4.416916609305728,7.240094431538895 c1.0318921202482207,2.701744571595848 1.5478381803723307,5.479021787128784 1.5478381803723307,8.332412666936786 c0,3.6429975191195627 -1.0173666117987807,7.1337677096889935 -3.050356774382409,10.473472612384247 c-2.034152203259583,3.339123882357277 -4.721371266405992,6.07108151152796 -8.060495148763268,8.196453907850026 l13.023570875767941,24.225061971638123 c0.3038736367622856,0.48515198221129746 0.3642997519119563,0.9412529475237148 0.18185936578698936,1.3653977942473638 c-0.18185936578698936,0.4247258670616269 -0.6065852328486162,0.6373793107614291 -1.2747586215228583,0.6373793107614291 l-16.3917457750241,0 c-0.6681733886742419,0 -1.1544874115614947,-0.1208522302993412 -1.457199007647825,-0.3642997519119563 c-0.30445465710026326,-0.2428665012746375 -0.6379603310994068,-0.7593935817367254 -1.0028411033493407,-1.5484192007103086 l-10.83661032362025,-20.582064452518562 l-7.2854140179011475,0 l0,20.491425279794054 c0,1.3351847366725287 -0.6681733886742419,2.002777105008793 -2.0039391456847486,2.002777105008793 l-13.660369166191394,0 c-1.2747586215228583,0 -1.912718952622265,-0.6675923683362643 -1.912718952622265,-2.002777105008793 zm27.68561910463272,-51.54638132435889 l-10.108591840134315,0 l0,16.48354698842456 l10.108591840134315,0 c1.2137514860352103,0 2.3066507417710786,-0.22775997248721996 3.2781167468696286,-0.6832799174616596 c0.97146600509855,-0.4549389246364622 1.822079779897759,-1.062105177823056 2.550679283721671,-1.8209177392218037 c0.7285995038239126,-0.7588125613987479 1.2898651503102758,-1.639639393772792 1.6843779597970672,-2.6413184564461774 c0.3950938298247692,-1.0022600830113628 0.5920597243991761,-2.0184646541341884 0.5920597243991761,-3.050937794720386 c0,-0.97146600509855 -0.19754691491238463,-1.958038538984518 -0.5920597243991761,-2.959717601657903 c-0.39451280948679157,-1.0022600830113628 -0.9557784559731548,-1.897612423834847 -1.6843779597970672,-2.6866380428084304 c-0.7285995038239126,-0.7896066393115607 -1.5792132786231217,-1.426404929735012 -2.550679283721671,-1.912718952622265 c-0.97146600509855,-0.48573300254927493 -2.063784240496442,-0.7285995038239126 -3.2781167468696286,-0.7285995038239126 zm50.72656162747249,19.762244755632167 c0,2.5500982633836937 0.42414484672364916,4.917756140642421 1.2747586215228583,7.103554652114158 c0.8494517341232537,2.18521749113376 2.0329901625836286,4.082829914968607 3.551777326057079,5.691675230828586 c1.518206143135473,1.6094263361979566 3.339123882357277,2.8836039373828375 5.464496278679344,3.8254379052445295 c2.124210355646112,0.9412529475237148 4.431442117755168,1.4112984009475944 6.921114265989192,1.4112984009475944 c2.4890911278960455,0 4.7957418696671255,-0.4700454534238799 6.921114265989192,-1.4112984009475944 c2.1247913759840893,-0.9418339678616924 3.946290135543871,-2.216011569046573 5.463915258341367,-3.8254379052445295 c1.5176251227974957,-1.6088453158599791 2.701744571595848,-3.5064577396948264 3.5523583463950574,-5.691675230828586 c0.8500327544612313,-2.1857985114717375 1.2747586215228583,-4.553456388730464 1.2747586215228583,-7.103554652114158 c0,-2.4896721482340234 -0.4247258670616269,-4.826535947579937 -1.2747586215228583,-7.012334459051675 c-0.8506137747992089,-2.1857985114717375 -2.034152203259583,-4.0985174640940025 -3.5523583463950574,-5.737575837528817 c-1.5176251227974957,-1.6390583734348143 -3.339123882357277,-2.9295045440830676 -5.463915258341367,-3.8701764712688047 c-2.1253723963220668,-0.9412529475237148 -4.432023138093146,-1.4118794212855725 -6.921114265989192,-1.4118794212855725 c-2.4896721482340234,0 -4.7969039103430795,0.4706264737618574 -6.921114265989192,1.4118794212855725 c-2.1253723963220668,0.9406719271857372 -3.946290135543871,2.2311180978339906 -5.464496278679344,3.8701764712688047 c-1.518206143135473,1.6390583734348143 -2.702325591933825,3.551777326057079 -3.551777326057079,5.737575837528817 c-0.8506137747992089,2.1857985114717375 -1.2747586215228583,4.522662310817652 -1.2747586215228583,7.012334459051675 zm-17.577027264498405,0.09122019306248351 c0,-4.857330025492749 0.9110398899488797,-9.395679885435799 2.7319576291706835,-13.615630600167119 c1.822079779897759,-4.219369694393343 4.296064379006386,-7.90768679987516 7.422534817663863,-11.064951316445448 c3.1270514589954526,-3.157264516570288 6.815368564477268,-5.646355644466333 11.065532336783424,-7.467854404026115 c4.2501637723061565,-1.8214987595597814 8.772826083123807,-2.7319576291706835 13.569729993466888,-2.7319576291706835 c4.7957418696671255,0 9.304459692373312,0.9104588696109019 13.523829386766655,2.7319576291706835 c4.219950714731321,1.8214987595597814 7.90768679987516,4.310589887455826 11.064951316445448,7.467854404026115 c3.157264516570288,3.157264516570288 5.646355644466333,6.845581622052102 7.467854404026115,11.064951316445448 c1.822079779897759,4.219950714731321 2.733119669846638,8.758300574674367 2.733119669846638,13.615630600167119 c0,4.7963228900051025 -0.9110398899488797,9.304459692373312 -2.733119669846638,13.523829386766655 c-1.8214987595597814,4.219950714731321 -4.310589887455826,7.893161291425719 -7.467854404026115,11.019631730083193 c-3.157264516570288,3.126470438657475 -6.8450006017141245,5.60103605810408 -11.064951316445448,7.422534817663863 c-4.219369694393343,1.8214987595597814 -8.728087517099532,2.732538649508661 -13.523829386766655,2.732538649508661 c-4.7969039103430795,0 -9.31956622116073,-0.9110398899488797 -13.569729993466888,-2.732538649508661 c-4.2501637723061565,-1.8214987595597814 -7.938480877787971,-4.296064379006386 -11.065532336783424,-7.422534817663863 c-3.126470438657475,-3.126470438657475 -5.600455037766102,-6.799681015351872 -7.422534817663863,-11.019631730083193 c-1.8209177392218037,-4.219369694393343 -2.7319576291706835,-8.727506496761556 -2.7319576291706835,-13.523829386766655 zm109.37591658360758,31.601115162263778 l-10.564111785108754,-36.5188713029062 l-3.824856884906552,36.61067251630666 c-0.06100713548764821,1.3351847366725287 -0.7285995038239126,2.002777105008793 -2.0033581253467703,2.002777105008793 l-12.93235068270546,0 c-1.3967728924981544,0 -2.063784240496442,-0.6675923683362643 -2.0033581253467703,-2.002777105008793 l6.830475093264685,-63.567692117115456 c0.0604261151496706,-1.3357657570105061 0.7280184834859349,-2.0033581253467703 2.002777105008793,-2.0033581253467703 l15.937387870725614,0 c0.6681733886742419,0 1.1080057845232865,0.16675283699957177 1.320078207885111,0.5008395313366928 c0.21323446403777988,0.334086694337121 0.4404134161870221,0.8343452053358359 0.6832799174616596,1.502518594010078 l12.385029524330557,40.8898873055117 l12.386191565006513,-40.8898873055117 c0.2428665012746375,-0.6681733886742419 0.4700454534238799,-1.1690129200109347 0.682698897123682,-1.502518594010078 c0.2126534436998023,-0.33466771467509865 0.6524858395488468,-0.5008395313366928 1.320078207885111,-0.5008395313366928 l15.937387870725614,0 c1.2747586215228583,0 1.943513030535078,0.6675923683362643 2.0033581253467703,2.0033581253467703 l6.830475093264685,63.567692117115456 c0.0604261151496706,1.3351847366725287 -0.6071662531865937,2.002777105008793 -2.0033581253467703,2.002777105008793 l-12.93235068270546,0 c-1.2747586215228583,0 -1.943513030535078,-0.6675923683362643 -2.0033581253467703,-2.002777105008793 l-3.7336366918440684,-35.70021364669576 l-10.655912998509216,35.6084124332953 c-0.2428665012746375,0.8506137747992089 -0.5002585109987151,1.4118794212855725 -0.7739190901861654,1.6849589801350449 c-0.27307955884947277,0.2736605791874504 -0.7437060326113302,0.40961933827420927 -1.4112984009475944,0.40961933827420927 l-11.293292309270644,0 c-0.6670113479982868,0 -1.1533253708855393,-0.13653977942473644 -1.4566179873098475,-0.40961933827420927 c-0.3038736367622856,-0.27307955884947277 -0.5467401380369231,-0.8343452053358359 -0.7285995038239126,-1.6849589801350449 zm58.92243451498454,0.0918012134004611 l0,-63.567692117115456 c0,-1.3357657570105061 0.6379603310994068,-2.0033581253467703 1.913299972960242,-2.0033581253467703 l13.66095018652937,0 c1.3351847366725287,0 2.002777105008793,0.6675923683362643 2.002777105008793,2.0033581253467703 l0,63.567692117115456 c0,1.3351847366725287 -0.6675923683362643,2.002777105008793 -2.002777105008793,2.002777105008793 l-13.66095018652937,0 c-1.2747586215228583,0 -1.913299972960242,-0.6675923683362643 -1.913299972960242,-2.002777105008793 zm40.52674959427569,-19.762825775970143 c0.5461591176989455,0.4247258670616269 1.2143325063731873,0.9865725338859678 2.0033581253467703,1.6849589801350449 c0.7896066393115607,0.6983864462490773 1.7000655089224626,1.4112984009475944 2.7319576291706835,2.139897904771507 c1.518206143135473,1.032473140586198 3.051518815058364,1.8366052883471988 4.5993569954306945,2.4135584839589574 c1.5484192007103086,0.5763721752737808 3.14215798778287,0.8651392832486492 4.781797381555662,0.8651392832486492 c3.1566834962323096,0 5.296581401003817,-0.6373793107614291 6.420274734652499,-1.912718952622265 c1.123112313310704,-1.2747586215228583 1.6849589801350449,-2.7627517070834955 1.6849589801350449,-4.462236195667981 c0,-0.97146600509855 -0.364880772249934,-1.8214987595597814 -1.0934802760738462,-2.5500982633836937 c-0.7285995038239126,-0.7285995038239126 -1.5937387870725614,-1.3810853433727592 -2.595417849745947,-1.958038538984518 c-1.0016790626733851,-0.5763721752737808 -2.064365260834419,-1.0626861981610334 -3.187477574145123,-1.457199007647825 c-1.1236933336486814,-0.3950938298247692 -2.1096848471966716,-0.7437060326113302 -2.959717601657903,-1.0475796693736157 c-7.346421153388796,-2.5500982633836937 -12.826023960855558,-5.555135451403849 -16.43822740206231,-9.016273604736423 c-3.6122034412067494,-3.460557132994596 -5.418595671979114,-7.862367213512905 -5.418595671979114,-13.204849221216953 c0,-2.853390879808002 0.5769531956117585,-5.433702200766531 1.7308595868352754,-7.740933962875586 c1.1533253708855393,-2.307231762109056 2.7772772155329357,-4.280957850218969 4.871855533942189,-5.919435203315806 c2.094578318409254,-1.639639393772792 4.62957005300553,-2.899291486508232 7.603813163112874,-3.780118318882277 c2.9754051507832986,-0.8796647916980892 6.28431597556574,-1.320078207885111 9.926732474347325,-1.320078207885111 c2.732538649508661,0 5.388382614404278,0.3038736367622856 7.968693935362807,0.9104588696109019 c2.5808923412965066,0.6071662531865937 5.08508999797997,1.6094263361979566 7.513755010726344,3.005618208358133 c2.063784240496442,1.2143325063731873 3.8556509628193645,2.4588780703212105 5.373276085616861,3.7336366918440684 c1.5176251227974957,1.2747586215228583 2.2764376841962433,2.337444819683891 2.2764376841962433,3.187477574145123 c0,0.5461591176989455 -0.39451280948679157,1.2747586215228583 -1.1841194487983524,2.1857985114717375 l-7.012334459051675,7.467854404026115 c-0.48515198221129746,0.48515198221129746 -1.0016790626733851,0.7285995038239126 -1.5484192007103086,0.7285995038239126 c-0.42414484672364916,0 -0.8041321477610007,-0.12143325063731875 -1.1382188420981216,-0.3642997519119563 c-0.33466771467509865,-0.24344752161261524 -0.7134929750364949,-0.5461591176989455 -1.1387998624360995,-0.9110398899488797 l-0.4555199449744398,-0.3642997519119563 c-1.2137514860352103,-1.033054160924176 -2.6866380428084304,-2.0492587320470013 -4.416335588967751,-3.050937794720386 c-1.730278566497298,-1.0022600830113628 -3.566883854844497,-1.502518594010078 -5.509815865041596,-1.502518594010078 c-2.002777105008793,0 -3.7336366918440684,0.3335056739991435 -5.190254679153916,1.0016790626733851 c-1.457199007647825,0.6681733886742419 -2.1857985114717375,1.8825058950474296 -2.1857985114717375,3.6424164987815844 c0,1.7006465292604402 0.8494517341232537,3.005037188020156 2.5500982633836937,3.9160770779690357 c1.7000655089224626,0.9110398899488797 4.219369694393343,1.913299972960242 7.55849357675062,3.005037188020156 c3.2176906317199583,1.0934802760738462 6.1925147621652785,2.216011569046573 8.92505341167394,3.3699179602700893 c2.732538649508661,1.1544874115614947 5.08508999797997,2.534991734596277 7.057654045413927,4.144418070794233 c1.9737260881099128,1.6082642955220015 3.5064577396948264,3.5209832481442667 4.5993569954306945,5.736994817190839 c1.0928992557358688,2.216011569046573 1.639639393772792,4.9026496118550025 1.639639393772792,8.05991412842529 c0,3.3397049026952543 -0.6832799174616596,6.359848619502827 -2.0492587320470013,9.062174211436652 c-1.3659788145853418,2.701744571595848 -3.2327971605073755,5.008976333704903 -5.60103605810408,6.921114265989192 c-2.367657877258727,1.912718952622265 -5.160622641917058,3.400131017844925 -8.378313273637016,4.462236195667981 c-3.2176906317199583,1.0626861981610334 -6.678828785052532,1.5937387870725614 -10.381671398983787,1.5937387870725614 c-2.3682388975967044,0 -4.705683717280596,-0.3038736367622856 -7.012915479389653,-0.9110398899488797 c-2.3066507417710786,-0.6065852328486162 -4.537768839605069,-1.426404929735012 -6.693935313839948,-2.4588780703212105 c-2.1550044335589247,-1.0318921202482207 -4.174050108031091,-2.246224626621408 -6.055974982740543,-3.6424164987815844 c-1.8819248747094517,-1.3967728924981544 -3.551777326057079,-2.91439801529565 -5.008976333704903,-4.553456388730464 l-0.18244038612496696,-0.09122019306248351 c-0.0604261151496706,-0.12143325063731875 -0.1208522302993412,-0.19754691491238463 -0.18185936578698936,-0.22775997248721996 c-0.06100713548764821,-0.03079407791281291 -0.12143325063731875,-0.07611366427506588 -0.18244038612496696,-0.13653977942473644 c-0.6675923683362643,-0.7285995038239126 -1.0016790626733851,-1.3357657570105061 -1.0016790626733851,-1.822079779897759 c0,-0.48515198221129746 0.334086694337121,-1.0626861981610334 1.0016790626733851,-1.730278566497298 l7.9233743490005555,-7.55849357675062 c0.6071662531865937,-0.4247258670616269 1.1236933336486814,-0.6373793107614291 1.5478381803723307,-0.6373793107614291 c0.48515198221129746,0 1.1236933336486814,0.3642997519119563 1.912718952622265,1.0928992557358688 zm59.74225421187093,0 c0.5461591176989455,0.4247258670616269 1.2143325063731873,0.9865725338859678 2.0033581253467703,1.6849589801350449 c0.7896066393115607,0.6983864462490773 1.7000655089224626,1.4112984009475944 2.732538649508661,2.139897904771507 c1.518206143135473,1.032473140586198 3.050937794720386,1.8366052883471988 4.5987759750927175,2.4135584839589574 c1.5490002210482863,0.5763721752737808 3.14215798778287,0.8651392832486492 4.781797381555662,0.8651392832486492 c3.157264516570288,0 5.296581401003817,-0.6373793107614291 6.420274734652499,-1.912718952622265 c1.123112313310704,-1.2747586215228583 1.6849589801350449,-2.7627517070834955 1.6849589801350449,-4.462236195667981 c0,-0.97146600509855 -0.364880772249934,-1.8214987595597814 -1.0934802760738462,-2.5500982633836937 c-0.7285995038239126,-0.7285995038239126 -1.5931577667345838,-1.3810853433727592 -2.595417849745947,-1.958038538984518 c-1.0016790626733851,-0.5763721752737808 -2.064365260834419,-1.0626861981610334 -3.187477574145123,-1.457199007647825 c-1.1236933336486814,-0.3950938298247692 -2.1096848471966716,-0.7437060326113302 -2.959136581319925,-1.0475796693736157 c-7.347002173726774,-2.5500982633836937 -12.826604981193533,-5.555135451403849 -16.43822740206231,-9.016273604736423 c-3.6127844615447278,-3.460557132994596 -5.418595671979114,-7.862367213512905 -5.418595671979114,-13.204849221216953 c0,-2.853390879808002 0.5763721752737808,-5.433702200766531 1.730278566497298,-7.740933962875586 c1.1533253708855393,-2.307231762109056 2.7772772155329357,-4.280957850218969 4.871855533942189,-5.919435203315806 c2.094578318409254,-1.639639393772792 4.62957005300553,-2.899291486508232 7.60439418345085,-3.780118318882277 c2.9754051507832986,-0.8796647916980892 6.2837349552277635,-1.320078207885111 9.926732474347325,-1.320078207885111 c2.7319576291706835,0 5.388382614404278,0.3038736367622856 7.968112915024829,0.9104588696109019 c2.5808923412965066,0.6071662531865937 5.085671018317948,1.6094263361979566 7.514336031064325,3.005618208358133 c2.063784240496442,1.2143325063731873 3.855069942481387,2.4588780703212105 5.372695065278883,3.7336366918440684 c1.5176251227974957,1.2747586215228583 2.2764376841962433,2.337444819683891 2.2764376841962433,3.187477574145123 c0,0.5461591176989455 -0.39451280948679157,1.2747586215228583 -1.1841194487983524,2.1857985114717375 l-7.011753438713698,7.467854404026115 c-0.48573300254927493,0.48515198221129746 -1.0022600830113628,0.7285995038239126 -1.5490002210482863,0.7285995038239126 c-0.42414484672364916,0 -0.8041321477610007,-0.12143325063731875 -1.1382188420981216,-0.3642997519119563 c-0.334086694337121,-0.24344752161261524 -0.7134929750364949,-0.5461591176989455 -1.1387998624360995,-0.9110398899488797 l-0.4549389246364622,-0.3642997519119563 c-1.2143325063731873,-1.033054160924176 -2.687219063146408,-2.0492587320470013 -4.416916609305728,-3.050937794720386 c-1.730278566497298,-1.0022600830113628 -3.566883854844497,-1.502518594010078 -5.509234844703619,-1.502518594010078 c-2.0033581253467703,0 -3.7336366918440684,0.3335056739991435 -5.190835699491894,1.0016790626733851 c-1.457199007647825,0.6681733886742419 -2.1857985114717375,1.8825058950474296 -2.1857985114717375,3.6424164987815844 c0,1.7006465292604402 0.8500327544612313,3.005037188020156 2.5500982633836937,3.9160770779690357 c1.7000655089224626,0.9110398899488797 4.219369694393343,1.913299972960242 7.55849357675062,3.005037188020156 c3.2182716520579353,1.0934802760738462 6.1925147621652785,2.216011569046573 8.92505341167394,3.3699179602700893 c2.733119669846638,1.1544874115614947 5.08508999797997,2.534991734596277 7.058235065751905,4.144418070794233 c1.9731450677719355,1.6082642955220015 3.505876719356849,3.5209832481442667 4.5987759750927175,5.736994817190839 c1.0928992557358688,2.216011569046573 1.639639393772792,4.9026496118550025 1.639639393772792,8.05991412842529 c0,3.3397049026952543 -0.6832799174616596,6.359848619502827 -2.0492587320470013,9.062174211436652 c-1.3653977942473638,2.701744571595848 -3.2327971605073755,5.008976333704903 -5.60103605810408,6.921114265989192 c-2.3670768569207494,1.912718952622265 -5.160041621579081,3.400131017844925 -8.378313273637016,4.462236195667981 c-3.2176906317199583,1.0626861981610334 -6.678247764714554,1.5937387870725614 -10.381671398983787,1.5937387870725614 c-2.3682388975967044,0 -4.705102696942619,-0.3038736367622856 -7.012915479389653,-0.9110398899488797 c-2.3066507417710786,-0.6065852328486162 -4.537768839605069,-1.426404929735012 -6.693354293501971,-2.4588780703212105 c-2.1555854538969026,-1.0318921202482207 -4.174631128369067,-2.246224626621408 -6.05655600307852,-3.6424164987815844 c-1.8819248747094517,-1.3967728924981544 -3.551777326057079,-2.91439801529565 -5.008395313366926,-4.553456388730464 l-0.18244038612496696,-0.09122019306248351 c-0.06100713548764821,-0.12143325063731875 -0.12143325063731875,-0.19754691491238463 -0.18185936578698936,-0.22775997248721996 c-0.0615881558256258,-0.03079407791281291 -0.1220142709752964,-0.07611366427506588 -0.18244038612496696,-0.13653977942473644 c-0.6681733886742419,-0.7285995038239126 -1.0022600830113628,-1.3357657570105061 -1.0022600830113628,-1.822079779897759 c0,-0.48515198221129746 0.334086694337121,-1.0626861981610334 1.0022600830113628,-1.730278566497298 l7.922793328662578,-7.55849357675062 c0.6071662531865937,-0.4247258670616269 1.1236933336486814,-0.6373793107614291 1.5478381803723307,-0.6373793107614291 c0.48573300254927493,0 1.1236933336486814,0.3642997519119563 1.912718952622265,1.0928992557358688 zm45.99066485261706,19.762825775970143 l24.680581916612564,-63.567692117115456 c0.5461591176989455,-1.3357657570105061 1.4874120652226606,-2.0033581253467703 2.822596801895189,-2.0033581253467703 l11.110851923145677,0 c1.396191872160177,0 2.307231762109056,0.6675923683362643 2.732538649508661,2.0033581253467703 l24.862441282399555,63.567692117115456 c0.5461591176989455,1.3351847366725287 0.12143325063731875,2.002777105008793 -1.2747586215228583,2.002777105008793 l-13.569729993466888,0 c-1.3351847366725287,0 -2.216011569046573,-0.6675923683362643 -2.6407374361082,-2.002777105008793 l-15.755528504938626,-44.26038628611976 l-15.391228753026667,44.26038628611976 c-0.4247258670616269,1.3351847366725287 -1.3357657570105061,2.002777105008793 -2.7319576291706835,2.002777105008793 l-13.570311013804863,0 c-1.3956108518221992,0 -1.8214987595597814,-0.6675923683362643 -1.2747586215228583,-2.002777105008793 zm22.858502136714808,-75.0428437921731 c-0.48515198221129746,0.6681733886742419 -1.0469986490356382,0.7593935817367254 -1.6849589801350449,0.2736605791874504 c-0.6367982904234515,-0.48573300254927493 -1.1382188420981216,-0.9104588696109019 -1.502518594010078,-1.2747586215228583 l-2.9138169949576724,-2.822596801895189 c-0.8500327544612313,-0.8506137747992089 -1.2294390351606053,-1.4118794212855725 -1.1382188420981216,-1.6849589801350449 c0.0906391727245059,-0.27307955884947277 0.4700454534238799,-0.9261464187362971 1.1382188420981216,-1.958038538984518 c1.2137514860352103,-1.822079779897759 2.7168511003832654,-3.249065729970749 4.508136802368211,-4.280957850218969 c1.7912857019849457,-1.032473140586198 3.6883171054818154,-1.5484192007103086 5.691675230828586,-1.5484192007103086 c1.1544874115614947,0 2.292125233321639,0.24344752161261524 3.41581856697032,0.7285995038239126 c1.123112313310704,0.48573300254927493 2.18521749113376,1.0173666117987807 3.187477574145123,1.5937387870725614 c1.0016790626733851,0.5769531956117585 1.9278254814096822,1.0934802760738462 2.7772772155329357,1.5484192007103086 c0.8500327544612313,0.4549389246364622 1.578632258285144,0.6832799174616596 2.18521749113376,0.6832799174616596 c0.8506137747992089,0 1.4874120652226606,-0.19754691491238463 1.912718952622265,-0.5920597243991761 c0.4253068873996045,-0.39567485016274684 0.9720470254365278,-0.987153554223945 1.639639393772792,-1.7761791731975285 c0.5461591176989455,-0.7285995038239126 1.1080057845232865,-1.0626861981610334 1.6843779597970672,-1.0016790626733851 c0.5769531956117585,0.0604261151496706 1.108586804861264,0.3335056739991435 1.594319807410539,0.8192386765484184 l4.189156636818508,4.189156636818508 c0.3642997519119563,0.364880772249934 0.531052588911528,0.7285995038239126 0.5008395313366928,1.0934802760738462 c-0.0302130575748353,0.3642997519119563 -0.10632672184990112,0.6373793107614291 -0.22775997248721996,0.819819696886396 c-1.3967728924981544,2.063784240496442 -3.035831265932969,3.6877360851438383 -4.918337160980398,4.872436554280167 c-1.8825058950474296,1.1841194487983524 -3.9765031931187056,1.7755981528595508 -6.2837349552277635,1.7755981528595508 c-1.2137514860352103,0 -2.3525513484713096,-0.2428665012746375 -3.4152375466323424,-0.7285995038239126 c-1.0626861981610334,-0.48515198221129746 -2.064365260834419,-1.0016790626733851 -3.005618208358133,-1.5478381803723307 c-0.9412529475237148,-0.5461591176989455 -1.8360242680092211,-1.063267218499011 -2.6866380428084304,-1.5484192007103086 c-0.8500327544612313,-0.48515198221129746 -1.6692714310096495,-0.7280184834859349 -2.4588780703212105,-0.7280184834859349 c-1.1533253708855393,0 -2.0033581253467703,0.34919322312453865 -2.5500982633836937,1.0469986490356382 c-0.5461591176989455,0.6983864462490773 -1.0928992557358688,1.3810853433727592 -1.639639393772792,2.0486777117090234 zm59.65219605948441,43.25870722344638 c0,2.5500982633836937 0.4247258670616269,4.917756140642421 1.2747586215228583,7.103554652114158 c0.8500327544612313,2.18521749113376 2.033571182921606,4.082829914968607 3.551777326057079,5.691675230828586 c1.518206143135473,1.6094263361979566 3.3397049026952543,2.8836039373828375 5.464496278679344,3.8254379052445295 c2.1247913759840893,0.9412529475237148 4.432023138093146,1.4112984009475944 6.921114265989192,1.4112984009475944 c2.4896721482340234,0 4.7963228900051025,-0.4700454534238799 6.921114265989192,-1.4112984009475944 c2.1253723963220668,-0.9418339678616924 3.946290135543871,-2.216011569046573 5.464496278679344,-3.8254379052445295 c1.5176251227974957,-1.6088453158599791 2.701744571595848,-3.5064577396948264 3.551777326057079,-5.691675230828586 c0.8500327544612313,-2.1857985114717375 1.2747586215228583,-4.553456388730464 1.2747586215228583,-7.103554652114158 c0,-2.4896721482340234 -0.4247258670616269,-4.826535947579937 -1.2747586215228583,-7.012334459051675 c-0.8500327544612313,-2.1857985114717375 -2.033571182921606,-4.0985174640940025 -3.551777326057079,-5.737575837528817 c-1.518206143135473,-1.6390583734348143 -3.339123882357277,-2.9295045440830676 -5.464496278679344,-3.8701764712688047 c-2.1247913759840893,-0.9412529475237148 -4.431442117755168,-1.4118794212855725 -6.921114265989192,-1.4118794212855725 c-2.4890911278960455,0 -4.7963228900051025,0.4706264737618574 -6.921114265989192,1.4118794212855725 c-2.1247913759840893,0.9406719271857372 -3.946290135543871,2.2311180978339906 -5.464496278679344,3.8701764712688047 c-1.5176251227974957,1.6390583734348143 -2.701744571595848,3.551777326057079 -3.551777326057079,5.737575837528817 c-0.8500327544612313,2.1857985114717375 -1.2747586215228583,4.522662310817652 -1.2747586215228583,7.012334459051675 zm-17.577027264498405,0.09122019306248351 c0,-4.857330025492749 0.9110398899488797,-9.395679885435799 2.732538649508661,-13.615630600167119 c1.822079779897759,-4.219369694393343 4.296064379006386,-7.90768679987516 7.422534817663863,-11.064951316445448 c3.126470438657475,-3.157264516570288 6.814787544139291,-5.646355644466333 11.065532336783424,-7.467854404026115 c4.249582751968179,-1.8214987595597814 8.772826083123807,-2.7319576291706835 13.56914897312891,-2.7319576291706835 c4.7963228900051025,0 9.304459692373312,0.9104588696109019 13.524410407104634,2.7319576291706835 c4.219369694393343,1.8214987595597814 7.90768679987516,4.310589887455826 11.064951316445448,7.467854404026115 c3.157264516570288,3.157264516570288 5.646355644466333,6.845581622052102 7.467854404026115,11.064951316445448 c1.8214987595597814,4.219950714731321 2.732538649508661,8.758300574674367 2.732538649508661,13.615630600167119 c0,4.7963228900051025 -0.9110398899488797,9.304459692373312 -2.732538649508661,13.523829386766655 c-1.8214987595597814,4.219950714731321 -4.310589887455826,7.893161291425719 -7.467854404026115,11.019631730083193 c-3.157264516570288,3.126470438657475 -6.845581622052102,5.60103605810408 -11.064951316445448,7.422534817663863 c-4.219950714731321,1.8214987595597814 -8.728087517099532,2.732538649508661 -13.524410407104634,2.732538649508661 c-4.7963228900051025,0 -9.31956622116073,-0.9110398899488797 -13.56914897312891,-2.732538649508661 c-4.2507447926441335,-1.8214987595597814 -7.939061898125949,-4.296064379006386 -11.065532336783424,-7.422534817663863 c-3.126470438657475,-3.126470438657475 -5.600455037766102,-6.799681015351872 -7.422534817663863,-11.019631730083193 c-1.8214987595597814,-4.219369694393343 -2.732538649508661,-8.727506496761556 -2.732538649508661,-13.523829386766655 z" id="svg_16"/>
  </g>
 </g></g></svg>